<mxfile host="65bd71144e">
    <diagram id="IBHHGi4e9_RNz2FblQWW" name="Page-1">
        <mxGraphModel dx="3806" dy="1416" grid="1" gridSize="10" guides="1" tooltips="1" connect="1" arrows="1" fold="1" page="1" pageScale="1" pageWidth="850" pageHeight="1100" math="0" shadow="0">
            <root>
                <mxCell id="0"/>
                <mxCell id="1" parent="0"/>
                <mxCell id="4" value="" style="group" parent="1" vertex="1" connectable="0">
                    <mxGeometry x="-820" y="50" width="1116" height="219" as="geometry"/>
                </mxCell>
                <mxCell id="2" value="&lt;font style=&quot;font-size: 24px;&quot;&gt;Entity Relationship Diagram&lt;/font&gt;" style="rounded=0;whiteSpace=wrap;html=1;" parent="4" vertex="1">
                    <mxGeometry x="275" width="590" height="60" as="geometry"/>
                </mxCell>
                <mxCell id="3" value="" style="shape=image;verticalLabelPosition=bottom;labelBackgroundColor=default;verticalAlign=top;aspect=fixed;imageAspect=0;image=data:image/png,iVBORw0KGgoAAAANSUhEUgAABFwAAAB3CAYAAAA+XVQvAAAAAXNSR0IArs4c6QAAAARnQU1BAACxjwv8YQUAAAAJcEhZcwAAFxEAABcRAcom8z8AAKAjSURBVHhe7J0FWBVPF8av3WJgB9hdoKDYYGAHYne32N0dGGBgK3YXCtKhSIoYqAjSpXT3+83s7iUU+YMiH/c6v+eZR3c22Ds7c+acd2dmRciF8PBwREVFCVuMwiI9PR3BwcFITU0Vchh5gZZZSkqKsMXIyrdv35CQkCBsMX4FLSNaVv8K/6Kt+f79O+Li4oQthiQRGxvLPT/G34f2pdQ2MKQT2pZCQ0OFLUZRJS0tjWuHtK9mSBYRERGIjIwUtqQf5j/nDhNciiBMcPk9aJkxwSVnmOCSN1iHIf0wwUVyYYJL4cEEF+mGCS6SARNcJBcmuEg3THCRApjg8nvQMmOCS84wwSVvsA5D+mGCi+TCBJfCgwku0g0TXCQDJrhILkxwkW6Y4CIFMMHl96BlxgSXnGGCS95gHYb0wwQXyYUJLoUHE1ykGya4SAZMcJFcmOAi3TDBRQpggsvvQcuMCS45wwSXvME6DOmHCS6SCxNcCg8muEg3THCRDJjgIrkwwUW6YYKLFMAEl9+DlhkTXHKGCS55g3UY0g8TXCQXJrgUHkxwkW6Y4CIZMMFFcmGCi3TDBBcpgAkuvwctMya45AwTXPIG6zCkHya4SC5McCk8mOAi3TDBRTJggovkwgQX6aZABRcWoP3/SExMFP7HyCuszH5NcnKy8D/Gf/GvlVVSUpLwv38DJmRLNuz5FR7/mm3412BtSTJgvi1DUvjXXnrnp22K6NuinBIVW65du4Zx48Zh/PjxLBViomU+YsQIjB07Nsf9LOWcWJn9Oo0cORKampo57mMpM9EyomWV0z5pTbTN/Et2/l/7vdKU6HNjNr5wEitr6U4aGhr/XF8niUkcD7A+S/LSqFGjMHr06Bz3SWP61/oM+ntnz54Nf39/bkZQTlpK1iSKj49HTomqVEuWLMGECRPw6NEjlgo5PXnyJMd8ln6dWJn9OtGyefz4cY77WMpMtIz+pXp0+/ZtNGzYEJcvX85xvzQmRUVFrFy5Msd9LBXttHTpUigpKeW4j6WCTWfPnoW8vDwePHiQ436WJDvRvo75BJKRmG8rmelfa2Pbtm1D27Ztc9wnjenOnTto1qwZfH19uUEqOWkpWVOuU4pWr14NXV1dYYvBYDAY0oaqquo/NX102rRpMDQ0FLYYksTDhw8xa9YsYYvxN6HrD/Tv31/YYjAYDAbj19jb23OjxP8l+vbtm+d1a/5TcDl48KCwxWAwGAxpgqruvXr1+qcWOps4cSLu3bsnbDEkiRs3bmDq1KnCFuNvQt/aUWeSrfPBYDAYjP/C3Nycm6b4r0BfVPbu3RshISFCTu4wwYXBYDD+UZjgwpAkmOBSeDDBhcFgMBh5hQkuucMEFwaDwfhHYYILQ5JggkvhwQQXBoPBYOQVJrjkDhNcGJJPWiqSk5NIShMyMklPSeY+85uTz5hO8pOSU5CWHguXyzOhRpzL2doWiBf2MxjSDhNc8kIaUoitoHYk55SC1LR04dhf421+EtOIjek7Rw+fon+2VZRoD2NsHEGOGbERxh7RQu7vkI4Use376U+lIY3uS0lF+n/fdpGCCS6FBxNcGAwGg5FXmOCSO0xwYUg8qR9vYWwPOcg1GgL9dzFCLsUdR4Z1hZycHAbMOAvfLIFHpPstjCH5TYavgm24P86rV4ZIJIKMygH4CscwGNIOE1z+m4QQA8yoWwNVqlRBlWo1UK8BsTXEdtSWrcrnVVHG9oefhKN/zXv9BahHbIyoyWK8Css5iA11PgfVUuSYUqo45xwq5OafsPdX0FepCeQaNIDKoF14HSDsICQE3MbSznJoRGyfdZZ8SYAJLoUHE1wYRYtURH/zh4+PT2YKDkZ0irC70EhB9PdA8vcDEJX4m20jLR7f/f3g5/8d8Tlr7wyGxMEEl9xhggtD8vlmhontK3KCyXC9N0Im6dP87mNEwzJcfuk2Q/Aoi5Ly8fJULr+B+np8SErH10fLoTlmDFbqvWAjXBj/DExw+W8SQy2xobcK9zlipQ5NUK64iLMdNZsp8nlK43DC7Ktw9K9xu7ECLang0nEVnGOFzB8Ie6OPYdXJMdWHQf9NmJCbf0KerkPDivx9ikS1MemoJcTfoQp7fwY9uPuYBEMfIVNCYIJL4cEEF0bRwg86Go1RulQJwa6RVK0WBizdjcevvyJROOrv4469Q5uQv18TWyyChLzcCfWwg4XVC3wIFAx/yCMMliH3LzMYj/IWqzEYRR4muOQOE1wYUkAUrk3rguKkA5abeAkRQm7QYy00rSJ0zLJdsNv4O78jLQK3Frcg+TIYvtGY66i97Qxw5epVPHP04w4JcTWB/mk9GH+OQmSgDa5f14Oe3hWYOoZz+7OS4u2I52f1cOrUKZw9ewXvPP9kKgCDUXgwwSWfhJlgePsKxHZUxm6bnwPREA8b3Lx5itgCYi9u3oSNe5ywJ4vg0mULXrp/gPn9U8SmnMcTy8xhJqG/ElySA+B88wJOExtzSk8P5jafkNuL0W8G69GoVmlUVVBHnwYiVO6+CC+FATOhHy6gD7mPkl1nwDhDhE6D73tjXL0q3PvdB3D2yXx1HOVhhRsX9GD0MZbYw7dZ7GEUtz8h2ErI04ex3c8jc1L9nGFyTmwj9eH6JVLYkz+Y4FJ4MMGFUbTwwUH1ahCVrAiFQVMxc+ZMjFNvi/LUllXriWP2hdWHxcDmyhGsXbsfZl/z5uuZr6lH+owKGHOV9y+R8An6uzZjy+4r+PQL8Z3BkDSY4JI7THBhSAUfLsxAjZIiVJSbAytuiEocnq7ujxrFRZCpTjppkQwGrXsArntMcoSWPAlqKrbAhie0k06C/qSGnDDTZPpN0GUNXuwZjHJkW6aDOvp14acb0VS1kTquOYZxx9Agxd3wLGYoN0QZYT9NzTuPw5VXvmBuKqOowwSXfOJvgCFtqeBSCdtMszrbMXh5QQu928pk2AGa6ihq4sLLYO6IjzdXok0Jkl9TAb2UmmbYjNI1emLL3XecvYh6m1Vw4cXdOD9b7NXoAbks161UswNWn7LAr8bAfHu6DvVkyqDllCO4eWQYKpSUw9r7Hty+SLcL6EuuQQUXE3+aEwpD7elQaFIq4/oiUXE07TsPD9/xgsqXK1NQi+RXbj+E2EPeVtJUvekQ7N69ByN6VMnIk5HrD32774IglA4Pk4uYrSLP2VPxMU07jcalF97I72wAJrgUHkxwYRQtfHGwfyViP9tBVzyQOdEdNxd2JzalGDpMOQNx2BPjZITDSxdh0aJFWLv3Kj7zZozjo/0trF+3mOzbhiv2PoIvR4gKgOH+TVhMzlm84Qxsg6l1iofjtWPYtOsuXtndxM5F63HmpinMjS5h187jeBWUhMTvzjixcgtumb6Fm+MtrF5Mzl++EYbveSH9w4Oj0OxI7rt4GTTpOwGL9lyBq6cbnp08hP1H7+CLWHCJcsWVcyu4e160SAu7dZ7CO4m/u9RIN1zatAkXH7yG08vzWE3vccka3Lb9yO1nMIoCTHDJHSa4MKSCNJfjaFFZhGI1OuOSO81xx/YBLVFepIw1y2ejNnHym4zYBDfahwbehFrJYqjWdirMuOEwMbgxtx0XCCgsus91wPZHJ6CBEBzUHHcABgZXsUStKbfdSOsBkskxyV5GmNO+HMmrg2mH78HCwgL3to5HM3KMzNADcM/SyTMYRREmuOQTvycZgstWk6wNPBDHRsihy8CNuH3fgtiCB1inREfRiSA37SroOBf326vQriRvU8oNXIPrT57hyPgBqEy2RXXnwCYmDbGfrmO4ILhcfU/PisTVxY1QjBzTadIuPCE2xkJ/NzTqk2NqD8DZtzkbGU5wqVQM8tOvIsTHBJOaE5vUfydx4IEkj8sZgotpIDk43Q2betVCr7HaePKUXN/oGhY0rcndp/I6I04I8r67CK2FKUo1x+3j7OFitWbctkhUGrKa+0nedSwfyP/m+otvc1OY0nzNsECRlldNTDp4h7ORD3ZM5kb6VB64G27i4Yh5hAkuhQcTXBhFC18cHFAZItnW2GeVRez2v4luxYhd6jYTrxKJJTbahqEt6qAUZ5toqozWGofwNjwRYc6XoCqfKYpXbbkUL+OIxxf/BWcX9UL1jHNKovNEXXghHtcnKHDXqCdXifxbGgNnbMHKqa3J/6tip30koojN7ltChIq1mqJF46rC+SLIthmDyw5fYbCuK0pnXJckOU3cNr2G8bLk/2X74xEd7OdvibVjm6MMXb8r49hqaD9fF19iiB39ZoyxpF8oI9MI8g3KZhxTuZU6jtnkbVoTg/G3YYJL7jDBhSEdJL/BqnZVICpeDZNvBgMBdzGkeUmU7LIZ1q/0MYx0ZCWajsbdLySEeTofFYoVQ4tBOuBe8OYkuBwZh5pku0L39XglzArwvrkQjcqRQKXPAQQjDR+vLedEmZpDNsLWN4oLXqNcbmJihxIQleiJM6+FKUwMRhGFCS755JeCSyriIoIQGhyG+IR4Uq5RsNo9FFWLE/sw7DioT/3l9kq0oo5yq9l44i9MCHp3k9ipYuR6rXDsbSyiPt7CCE5wGYEbn2ORGvEMI6kTLt8Tx8wCEEOeV/z3zzgzg64hUBUT9ltlrM2SFbHgUm/MBSQiGRY7hqJc8VpYY+6DCM+b6EfuI3NKUTJiwgIR9i0SCYnk+rHheLisEzdFs93cG9woFJ87C9CkrAjluq7LsIevj09GLRLolOqyAi+EonhzahrqkPOK99pNbGsavtxZg0Zku7r6Glh7RfI28u1dTFMoRWxkN5x0yJujIoYJLoUHE1wYRYucBZfUWGcsayhC1W5TYefng70DahPb2AgrrpjD0tIE+4d0QTFRLewy88Rb/emcn6e08iAsLO/i5IzdsEuKhZfZXrQgtqz6iA2weO8Otzva2DxnM94gHg/n9uEEk+pTjsHK3RNB31xxcHxHcp0mOOQchegvDzGmFrHRlbtjqZ49Pru/x9nFVKQRQXXNLQSGB+DK7AYQlamKQbufwt0nGDH+BhjboDIq1R8P65REvDo4HpXI8e0XnYOruzvcHR9iXi+6LmE9bDHyRXy4Axa1JH+jVG1M3veI/A0HnJouS/ZXwUhtW6EkGIz/L0xwyR0muDCkBtMN7UkHVBK9N5vgvfEOdKwogsIWSxIIeWF3fyqCdMAu4y8w2qRE/l8a6kechTNzFlxqkO3K6kcEUQbwf7QcrSqIULrXQZAuE+b7x3Lzh+l5P6d62GDklTlclcEogjDBJZ/8UnAB4rzMcXhaZ9SrkdUOFEdjTT3QI6ngwq3horAeruKPqXk9xtiOxbljVxqEIPzDHYykbz6rj8Ctj1GIc9VBB2GR3pxSryU3kNO3jDIEF41T/LSjr48wsklJlBlwCG/eXMYAci4nuAhLCkS8vYdtGs1RlS7kmHH9ilBecidDcGlcVoQK/Q9n2EPfB1poSexh2b4H4SMYOpczs9CQnFu6xx5yXAxsjkxExYzr/ZhqYc0Tj3zZSCa4FB5McGEULX4xwiXoLnqXEKFG7yV4+9YGmorCKJNixVCsWKa90TzzBqG+lljdow1qVyoH+cYq2H36FSISE2FzbBSKEZ9N67qbcFExYbg6owcqiBpj1yvxulPeODyG+ppiweUBhhI72Hy6LsSrcUW+PoXO5G/Kj98Nupz6y81NICpbAxP0PfkDQp9idL1KqCQ/FQ6+7tg7Xp5cryvOClM4Ka8OTYMsucaQ444IC36NOQ1FqKW2GI7CVx38rlPxqDbGHLThMxiM/zNMcMkdJrgwpAafh0tRhXRQrYZOxiat6aSzKo7J+p+BtETcW6tMOqfSGLNrF2Z1aoUyJRtjp424A43+peBSqf8BeAr+ps/9ZWhBOtYyvangkoCXOtNRlR7TpjfGT5vGBXITJ03BzLmLsXyJLl74Z13jgcEoejDBJZ/8SnAJd8RSFbqOSWk07zma/I2pGN27McoTp7+hxg+CS+fN+CR8UiP94w2MbEFHuFTGRrMwRLhlCi43P0Uj0eM8VOg51Ruj/7hZmDyJ2JiJkzBl5jwsW7IZV00+57gOSlbBhX+ycTBZPRiy5RSw6Y4exlbkBRczOhr9mynGtygFUXEZdOw3jtiwaRiqVIsEIGXRedEPgovq/kx7+ECwh732wD2Jz3PWm8GN+ivdkwouCXDQm80N06/YqifGTZ2GSYKNnDF3EbGRx2Dtk120+i+Y4FJ4MMGFUbTIsoaLq5CV6ovHq9U4363NFH1Ehr/ExA50zb5a6DdlEZYtWwatFSuxatVSXLL6ijCv93j79Quszx+GpmJdiEo0xh6jNzDaM4icUw2jta346yZHwNPJE6GIwI2ZPVBR1BT7MxYD94C2ZnbBZYSMCLXVNsJOcCnfG2hBXlQSXeafRUgaYLyyAURla2LyLTqHkxD2DKPrVkIlualwCPqKI5NbctdbayQo4CA+6+reKCeqiNm3PiGa9C+zGpC/MUALTsKaL17XZpNz6kDz0As+g8H4P8MEl9xhggtDakgLMcMU+dKoVLMGmjdujBIyKjhhz3eSX5/uQGsSMNRt2YIEIlVRu/MKvM4Yi59PwaXXfu4t79eHG9GCHCPTeT5eiftJSoAtzj23R1AMG9/CKNowwSWf/EpwcTyK+uVFEMk0wwXhU8vmW/qhQjER6o0WCy6r0IaOVqmhhKWPvbljPuovRgNil0TVR+NxUApiP94Q1nAZgRv08xXxlphSjZ7TDvvuZzEyaT548Pw5XnhnfgUpKz8LLuSUgHsY3aQqGrYfBbUmIpRWngULup6v1SZuvYMSzXrjuXC567Nbg64bo5Cb4JJhD3MQXHrsAv2Fvs+2ow3ZrqgwC9ZeWexhoB3OGdkhIDq3by39DBNcCg8muDCKFr44RL9SVLoqeoxbilWrVmHeWCXuJVvpaoOg50QtXRiuzmmPkqKaGLF8B/bu3Suke/gSHgonvWloqDIVW3bswszedFSJCFOveyPQQheKdHSfnDJmLFuF5Rqq6N19LRyQgPuzuqOcqBH2vBRPEffAIY225NxGOOjECy6adcm55G92UJ+PlatmoEf7shCVbIwV1/mFyq23KZH9JdFswHSsPHQT797dxyS5SihfRxMW8Ql4e3o694GH8u2HYCn5XasWjEMb0g+UaDYN5t+SkB5lg6l1RKihthj2wnu8r1foCJea0GAjXBhFBCa45A4TXBjSQ8o3nNCkC5vRzo8kRS28CuId+viPdzGusZBPkpwQSPBE4+pMfrHHtvPucoLLq0OjucUsS/fZCw/B36QLRzaii1523Ykv5LJJ4Q7YLCwSWadxJwwcOJCkvujcWAYiFS3YBeQvmGAwChsmuOQT30cY0LwkafOlsfF5FsElyhIzmtIRLiXQukc/Yge6oX75EpxtqDfyBCe4uN/U4gRazgbVaAc1Yita1y7PbSutfMAdE/P2EtTp4rQV1XHJlXjW6dF4vncoF1SUq9QQvftTGzMQqp3kIKrXFeuf5bxgYsiTVZAtLYLs8OMZX+6gX2Oz3jKM/zoSt/bKNJjS08MeYIhMaYjKlEenvuT6/RUgS7+mRH5LpwW3ODvpfWsO6pNzSvbck6M9/CwILk4nJnNfMxIpbcFHcmJyxGvsGNqK+4215TtiAGcjVaHUhJSV0iJY++UvmGeCS+HBBBdG0cIXh4fV5e2nOJWthO4z1+G2baYYnRBkhkOaHbnpOJnHKkLvXSiiv97GEHnha2wVZNB91QG8px+DS47Ei5OzoUrFb+74Jpiz1xYxdLr5jO4o/yvBRRjhMlxWhEZKA9GnUx3h/OoYuf4OPKJ4HzDa0wDjejbm97WdAWP7Z5jZpDIq1BmFp/TvR7vj1oGZaJ9l+mhl9Uk488qX/0BDkAWm1BWhptoSOGQILjPIcbWY4MIoMjDBJXeY4MKQHtKT8enMVHSQlYWsbEOorXuOILGqEvsRh2YrkXyyr3ZPLL+fNVCJwf0Vvbh9qmsNOMHFWW82WpJt+TG68Bb8TT+DjegqJ4t6w47Cg/aChFhfB5zboIluVcqiRIkSKFGhHFrMWYdL74KRyPxURhGHCS75JOA5JvSUI7ZCHvsts04ZTME366uY1KsOypcuiRKybTF/4WwotGmOtlPOc5+j93y4Bd1qyKLr4uO4sGsSWpYqibIVa6PnnENwjeANSsT7W5jUnNio5pNw673wCZ/EYJifXY8xrWqiArUxJFVWHYbNz94gMC5nIxNqshPt5Gug3YyL2dZ4SY9ywPqBcqhWTRYdJ2rBhVtLJgleT3QwpGNVlC1Frt9ACcuXTEPjRq2guvoBJ7j4PV6NzvVlITdKJ0d76CkILq6XlnL2t+7Qg/gsTJuK83fGhc3joVK1HG8jy5dFsxmrcd41CAn5tJFMcCk8mODCKGokhQfAx8cnM5F+SzAz2UmLQVjW43xCM16wpUeF8HkkSBKWQ8kgKciX35dlOnhq1Hf4+QRl+ztJEfQaQcRykv3ejzC8kghtZ5+CR3QU/On5fiHCZ/EzSYsP564dEM7/1aggP/gFZP9MW0ygP//3SdsL+aHZRQWSc8PE35AmpEWRYwMQIdheBuP/DRNccocJLgwGg/GPwgQXhiTBBJfCgwkujKKEo6MTzK1s8OLFi8xkYwNLc1MYP3+O5xnJGKYWVrDOetwLK5gZ030msBBfg55rZpJxnrGpOSxtMo83N+XzzSytybYNzE0yr2+eJe/uyRXc2lzlladB38RKON8GFmbGGdem51hw55B9VhYwMTHl/5aNFUy5+3oOE/L3rTL+/gvYWJjDRHy+MX+8DT1XyDM2s+T+jqW5CSfSMBj/b5jgkjtMcGFIPK9evcKxY8f4pHscJ0+dwqlTJ3HiuE5mPkm6x0+QfLLv5Akc18nMz7pPfI6O7gnuOidP6GYep0OuffKHPO7Y4zhB8vlrn8TJ47rQIfl6enpcg2QwiipMcPlv4uLicOLECaG965C2fpKzLz/aELrv+Am6T7Axx6m9IPZAbC8E23SC2gdqM+hxnJ3KamN0eVtCztfNen2Sf5xeizuH2qDj0BXvyyn9wlbRpCvcI70GtVP88cLfpdenf1u494x7o/f+4/Vy+Bv0d/F2M8u1hfycbCT9G7R88woTXAoPJrgwihLbtm2DhoZG0UtjNDFuwgSMHzcWY3LaXwjJ0NBQKCUG4/8HE1xyhwkuDInn6dOnWLp0aZFL69aty1cwwWAUNkxw+W+ioqK4vjCnNs7Sn6U1a9YgJkb8jez/hgkuhQcTXBgMBoORV5jgkjv/KbgcOXJE2GIwGAyGNEGDKdph/GuCy6NHj4QthiRx584dJrgUElRwUVVVFbYYDAaDwfg1NjY2GD16tLAl/aSlpaFPnz4FI7isXbsWGzdu5Dpelgov+fn54fv37/D3989xP0s5J1Zmv060bAICAnLcx1JmomVEyyqnfdKY3N3d0a1bNwQHB3Pii7Qn2kFSweXMmTM5lgdLRTvRaVpUcElPT8/x+bJUcMnb2xvdu3fn/s3pWbAk2SkoKIgT2nPax1LRSeJ4gP6b036Wim6igTj1rXLaJ43p1q1b3FcUc9onjenLly9QUVHhbGlOfeiPKVfBZefOnWjcuDH3BpSlwkt0iH+DBg24B5nTfpZyTqzMfp3k5eWhqKiY4z6WMhMtI1pWOe2TxtSzZ0/IycnBw8ODc+qocyDNKTY2FhMmTECbNm1yLA+WinZq1aoVJ7jQqZo5PV+WCiaFhobiw4cPqF+/PueP5PQsWJLs1KFDBzRp0iTHfSwVnURFT+rb0r46p/0sFd3UsmVLrs/KaZ80JmpT6Ndec9onjUnsP1PhJS/+839OKdq/fz9SUlJYKsREncmuXbtyK4/ntJ+ln1NSUhL3pt7T0zPH/f96Gjx4MIyNjXPcx1JmomVEyyqnfdKY6PoZtNP416YU0akpOZUHS0U7Xbt2jU0pKiToGzw6XDoxMTHHZ8GSZKfz589j8uTJOe5jqegk+vac+rZ0LbGc9rNUdBNdo4wu9pzTPmlMJiYmGDFiRI77pDHRF3j0hUSBreFy6NAhYYtRWNChR1Q9o4aWkXeoc0iHXTJ+ZtSoUbC0tBS2GL+ClhEtq38FKlT+i4vmPnjwQNhiSBJ0yDITXAoHKriwNVykl6tXr2LWrFnCFqOoEhYWliF8MiSLTZs2Yc+ePcKW9POv+c/JyclcrM6+UiTBiIMgup4EI2/QtRloxaejghg/Q1cOpyuIM3LnX1tlnX2liCFJsK8UFR5UcGFfKZJe9PX1MXPmTGGLUVShUxWob8u+eCl50DVQd+/eLWxJP+wrRbnDBJciCBNc8g8TXHKHCS55gwku0g8TXCQXJrgUHkxwkW6Y4CIZMMFFcmGCi3TDBBcpgAku+YcJLrnDBJe8wQQX6YcJLpILE1wKDya4SDdMcJEMmOAiuTDBRbphgosUwASX/MMEl9xhgkveYIKL9MMEF8mFCS6FBxNcpBsmuEgGTHCRXJjgIt0wwUUKYIJL/mGCS+4wwSVvMMFF+mGCi+TCBJfCgwku0g0TXCQDJrhILkxwkW6kX3CJd8PZdVpYsuIqPNOFvCzEB7zC4bnTse+WE2KEvN8i6jWOrlyGtScsUdhmjgku+ef/LbikxDjj2Kwl2HHSCpFCXlGCCS55gwku0s/fFlwi3c1wcOEszFp1Bi4h7MsSBQkTXAqPPAku/+GPMX6PsA9PsH3mTJwy+4pkIe93SPU3w+b5y7HvtivShDwx/6bgkgR3Uz3MmbUKN+z88HOVTcSrc5uwbNl+2IUKWb9B4KtLmDdjI245BQs5v4/ECi5hDji0cDHW7HyMPy8FyYQJLoVHlJcxtpEY7PijD6SVFw5SILgkwOXGWnRWGISDhl9+NogRhhhRrQREZabhxU87U+F2fS5Kiiph2tk3pNAjcHvtSPTorgIlRQUoKHSG5vjlMH8Xyx39zfEqZvXogfl6L8hfpRkvsGWoCrqP34GXnm+wu4cMyjYcC/MI7vBC408Fl2SfR5jWuQdGz7uCQCFP2vl/Cy4JITfRSyRCkwE6KIoymUQKLumpSE5KRFJK4b1hZYKL9PNfgkucy0tcmDUUfbg+QwGdJ07DMQNHRP4YsfyCAPODUCC2QFR+GO58ihZyixhJPji+cyrpG7uje+9ZuGXF94k8fni+RwN9+g7EIbOi5SozwaXwyJPgkuGPTc3BHyt4Al4cg5pCLyw/LvhsuZGejhTSfyQmpwh+ZAo+G+xAN4V+2HbzLdn6OwTbnUB/hZ5YetSaE0veXpqPgT27o2sXRc6eKA4ajBVnHsAj9lcFFguzPeoQiRpiu1kA8W08cWqOKrqrdEVnapMUu2DGvF1w9OHPdzc4gDHEj91435Pbjv5wBwt7d0OPRWfw8YsFZjYQoUaPdXD7Qbn5fwguSV4PMEWhBzQX3fh7QXiYBbT69cFADV14CFmZxML8wCBStuUx+8Lrn+OLmFeY0aICSrdajHfx5Oh3t7F0VA9079oFiuTZ0ec3ZNEBfCKVx/boNAzsPxAXX/Pt4+O97Rii3A3DjlnA56UO2pM+QGXVfRKF/Bl/Lrikwdv0AHop9MG6i06FFozC+zI6kzKQaUbqnpD190iC28Mt6KrQH7vuv/9JXPyJ9DTOt0xMThXqQCzsLi4nz3cYdC29uZyCoNAElwxfWfzLw2CkPZv8nvG44lp4vt3/038OfLUbcqS+qa55WmiDJKRAcImHw6XFaNa0B3Y+/vSzQUyyxtQmNSBTZxHsftyZFIxzU+pD1GIUHnnRnX7Y27cCMa4ilJWRhWz18ihB/l+7+UJYxaUg0GQXWpDtDqsecR2j44Eh3LHq6x4hMjkdn46PQJnq8lj5uHBliz8VXNK8bmNUs/YYMOUc/IU8aef/Lbgkfr+PoaIqUNQ4gyAhryghkYJLoDFm9mmA3ttMhIy/DxNcpJ9fCy7J8LyyHH2qV+L6ifJVqkNWVhbVZSuhYlNl7LXM29i1IBtd9K0ggqj+RDxyL6KCyzc7LOpdnuvvaGoyXBveGXH1J+zqXJXkF8P0615CXtGACS6FR54EF8Efq1Jn4c/+2F8g0HwvOjftiHnalsRT/A+SvHBgvDyaTTue8eLJ7d46tCJtea2+y18TXAKtD0GJ3OOsfZbEoqTgxvQmfDsrV4WzJ1WrVUQxUWnIKy6DSejPI+DSw99is2oFlOy+Aq/pMO0EJyxuybfTCtWIH1ulNIqLiqNV711wS0zDu9NTUZ3sG3ziAz0Yt5YokGOrYtZZBySkpsF0TSeI6qnguGNWUfX/I7iketzA8CbtMWjGpb/3Yurbc8xWUoDKwEP4LGRlxf7EeFJ+9bHs2tuf4otQky1oKVsCansduO2v91ajOWcjy6JqdVL25Pl11FyPdyQ+uD+7MXmOxbD5FTkw5jUW96hEjlPCEedQpKV4YPfACiiltBgvg/Oo1P+Cghjh4vlsK9o3VcQyPbvCE1y+3UO/ijKQ77Ijx+dQ0Ly/tRItm3bFxpuu+M9XdOH20FJvAMWV9wQ7Eg/rU3PQuGlfHDL9yuUUBIUmuPg9w5ReDaC221LICMOjnePQpOlQnHMuvJcm/0//OdjxMDoQuzdym/F/9w0FhFRMKYoJ+ggLQ3N8CBA7q5F4Z2cMY2NruLrexsRmtVE9B8ElKdgMU2qIULe/Fl5zrz98sI90XJUadYb+51SkphFHcpA8MYqlMeehD0KstNG5mAi9d1nA6+1FqJYQodHITXCJ4i6HKNNNqFBSBiqL7//325QCJCfBJfyrPSxMn+N9AG9006K84WhpDPuv4UKnkQi/Dy/xzOYdQmNC8N7UDNb23sS4piL4vQOsbD0RGv4VTiakHM1e4GtE9tcd0R+dYW5My9gYb77mJUiIwmdbW9h/CERY4DtY03Nt3yBcsObpafHwfWeVcU2L9z4ZU7zCvrrA1vkL4sK+wlm4n4/czkh8IL/J2NgMrv7CQxBI9fuEl8K1Xr0L/KmjLHDBJTYQ9hbC3/salPH30uM94Srkm9k4IEyw7Imkc/lRcEmJ/AhnU/5YS7s3Gaprcowv7I3N4fz5G6/ExwXA3sQcL518iYMmPK+X5Hn5fYGtqTXeeP/5EKucBZcEBH6y5u4vIzm6IyLuOz68eAWXTyH47uYAU/PXCIpLR/T393AQH2fjBG/BqiWGecDGxAkBod8Q4MJfz/pzMKmRWQj355812Wdp//k/DWJSpB+cLq5Bh+oiVB+4FvctX8D182c4Pn8OB/dgTiClxIe4w8zwBT4Rg+f1xgF2Ln5I+CbUFWtHeP3gXYS4vIIJ9xvM8SnwZ9ejoDqM71+cYWFkjC+hYrc+CYEfHGBk8hohwp+N+ewCC+5ejOHimVnfU5K+4/MrE+E+zfDKO0wIDqLhbmcLO9cAhHu8gZmJHTxD/8wyMcElk1hXHfSqVpz0DyXRdc5ZvCE2kgabCe7m0D20E+ftMwWXCJ+3wvMhdd3aAf5iQ0DIKrg89iStPjkcH2zIsab28BKeV3piONxekDzyDL8KeUHvzWDy0hnfScMJ9XPmrm1s6ooQwXAE+9iS42neGwRnVJc0fPtsDzNi779EpCGBBGuWnA21xZeAH61kFoJfYWVfEiDU6Yhe8lVQvFpDbLYS1yV37FZuSMpBBgvuZLGnCUFwfW3K35eFORy9Mu1SemIEPtoSm/g2AIkpKXD/YMmXjR21aRSy/x1/rtUrbxIIcplZILbIwTqjv3B97yvkZ4cJLoXHrwWXH/2xWsQfyyK4JMfii42FUE/sEZglzk9L+A5HB3quGRw9vmd5E50KH5eX/Dl274ilo9N0fWBr5ogvvt/g7fgClg5fiA/jjVeGpnB2DyV9cjy+vLKF4/sAUjXf8z7ISxf40/tIjcLHZ7oY0YK0w3bjcPq+KVwDIonP4QFrQ+JfkD5VfLvRPo54IdQ7+/eZwVa033tYmr2Ff0QQPtmakf2meO0TLuz9Ncn0vg1N4PiJ9u+xuDylGUqWq4bFpC3Rsoz2ccGuEZ1QmgTy7addwLcfmmmY62WolRWh9ayT/AuzWCcsaSlCNeWJMP+eirRoG8xvUxai0o2w2z4antcWohG51qQrn/H5+Wa0LFYKSkvPw4frNNLxWX86SojqYOLhV9ne/BeU4BLmaQcLs+f4EMT36qmRXnAgNsjBK1Io4wT4vH+BZy/eIzwmGO/Is3/h6MP5OoFvia/z6ivCwjzhSJ+B+Ut4R2aXwqLcnDLtgldeFgqIhBuxTxbWn7h6RAkLcOLstaWtIx5oa6KMqEEOgksKDNf1R7ViZbDiCT+fyP3uGrQiZdt84TUEE6NFn18q8TXTiTd3c157yMjUxmGXCFjtHYbyZWtiBhW5uDNDcGNlF4hKKEPH5s9e2OYsuKTB940R8XFewS+K/xWx5DdaWJjh03fBO0oJh/MrSxi5eiOW+NovSLtx+UrrfSw+vbSFw8cgUi5vYUXL1tYV2UOCFPjaC76hqQ28wn6opL8kBE7W9Fm9xAf7M+hXqSoaZxVc4sLw3oLvB8xs3iAsiwuWFOMPW9KHGBtbcm01k3h8tuf7E9PX7pxfGf/tM6xNXeDjH0ziEGu8fOuNsG/upG2b451/NPmNkXhvbYu3X4IR6+vC1x8HN3znLheCNzd3QKWuCOV6LsJ1Q0tSZrGICfgAc/r/ELHBSkOouy0s6bkkvf4ijsdI/pfXpJ/9iJAIP7zl+ltLuAVnFzQpvyu4JIZ74qWpEzyI7fMi/aKl/VfEpKUg+Ist/7y4svjCjZ5KJb6yw7kVaFNNhJpDNuKB2Ut8jYxHpNcbmBLf2Cs6CSkJJMYws8fHoO8I/PiKO9/inXcW0TkZ3zxewFS4NpdefUBofP7Ewt/xn2k8+PJX8aAVvZfs8WDU9w+8raCJ+F6eQrGHZBFcaFWO+PgCRkaGpC4JkUhiFD5Zm3PnmVg5IUQchKR8x1tSV16L4x0zZwTEZLdBv0IqBJf3Nxejhqga5l19T7YSYHd5KuqX5hX+8nLN0bhqZdRppAX7H2xA+Nvj6ESc5c6T9IQ3Gj7Y27c8KjdVwTPO8ibj9Ng23NvLJYZhnOCiVEoE1fl7MVmtEWQ6jsKjr5kVLMH7CnqLyqFFv734kr9690fkJLj4XJ+OCqQMuuy157Y/6S9CffI7qozV4wP8aGdoKZdC8e4b4ORriRmlK6JRN218I8bqxqQuKFO2IwYOaMqVIX1zqThdF27hvCPla3UaGvL8SCCaqnWYgtNv/qsCOWFZkzqo1KQ3+nepzJ9bojY095mSTi6dBLYXMbAyfz0uNeqLjYa8826+Qx21ZNtjUv+mKCbsbz5+NVYuHIiqwnY91RUw8+S7y+hPBlis0jjzWrV6YZ2hBx0xnEFBCi5pYW64vKQPSon/XrsRuP6VNMBvL3BgQQdUE+eLymD4qvPwiCIdcPQjQXA5Tcqc9Ctf7mPd+MYoKz62uCwm7X2EYHKZ6E/H0U5UAr2WCELep9NoT55Jg66HSIdAntfkLihbpiMGK8hx5/bZakaP+iN+FlyS8OXhTgxsLP4tQmo7F2YfnmJunRqo1VINqrVofg+ccXLG0TFUrBQfWwVKm54gNC0dgRbb0URUHb3790FH0p64/a2HYK+BJ2fQ04MccWBCN5QTn1uiKaactkXkz3pHBoFWB7khuZl/ryLGbTyAcbVFqDxoD9w5G5oIs509Sdkq4oj9Cxwe0AqVa6tgfPdawjmV0HmWPj5xhjUB7+/uhKpM5jUb91uDhx7Zhb2CElw+nJnG1WXl/Y58RtwbrO1L2knzxXAhvkSQ0yWMbSq0G5KqtJmA40605qTB6coybuSdeF+ZbnNwzY06IO+xulVdVKzXC4Ob0NEJDbD60Z+9jWGCi5ho3FvYCcVJecu0ngyrX/r10XC6vgejlGtnPB/69rPHsAV4/oV3iEMyBJdJeOZPWkCoGSZz7ag9djzj7VNygCmm16N5rbHFgBcXrkwlz7R0DQyaqoU+bYoJ164HjfnHcO3cdqgIb7lForoYsvA0PLl7TML9JQqcHW03ch4mqFYUjimNdv3XwD7gJ2WDJ+QVVvQlQVvtyTh7eQ1aV6qMDnOuCsPfv2BPV7Hgwt9b0JuHWD9BBRXE7Zukyp1HQefpZ+6NaXrAC8xtRfIb9MaM6VNQX9zOKqpg06ErOLNjHGpWEvLKKWP9+VeIEPrU9AQf3N8wDT3KCPtJqlpfBTsv2f80HJ8JLoVHzoJLDF7q/+iPVSL+2FLeH0vwx5PdU9FMeI5UvOy15CLxNci+JG+c1RqFSsJzLt58Gh5/5dvMp/vLoEQCBv4cWUx/4gg/hyOcA91OqS/a0PzWi/HU+jAURRUwcK0x6Vu+Yn3Luqgq3wvjutARWfy5amuf4ZOXESbUFF+PT32OWsHTbCcakX5h/FFbLtgOfLUHY5XKZRxTon4nbLz9nuu3XM7MRHViY7sP6Yrawv6aPRbg6cfcRZew98fRkbS/vlqPSdtIw/WpvOCy7GGWsa9xLzFDvhRkmo3Es2ymNw1fnq4jvl0ZDNv2jH8xEeWExS1EkO05i/QAFH9sUSZ9R8UGOPQuER7XFqJpCRE0Vh/F8A6VUKv/cjhykSVP8Kt95HmUQa8F1/iAU6CgBBcv/UkoS+pD90PO3Pb7c3O48qo28RwJvwkRdljQuQRK9tkKF19iC4tXRLM+Oggngb++pgJKV1DAwH5i/64ElGbrwZ0zDunwNj+JUQ0yn0+NTjNw7t1/9VUOWFCzGmrKr+TKK/qLAeb2FdePymjRQZ74Ik2x4vqPgos3jo3sgDKiLjj9kY/i3O+u5QSX1qsNue1MYnFjfkfUqS6LRZv3olvNCuisdQ3faMXhSICNziTyd2Sx8NqbLIFt/slZcEmB4YomEJVvjA0m1IeJw905Lbnf2G//K+53Jbw+hg6yIjRa8wgeL7XJ7yiPkXtskIqP0JKvDZnmfdBfQfD7S9XDhENmiKAnpobhhd5yKBbny5ymjuMPwsZfLMjnTHrSNzw+pA4Z4ZxqLVqiQZmKaNF9N+lRCJGfcGn50Iy2JCIx3tAdT8C9Q476iH3TenP9L91XWWkVXobROhAP+9PEnoj7ndLNsMH+E/Fd15A2Uhtdu3Xn4qAK6tth8nQD5IlfOu2sC/mN9phevToatFPFyFal+HNJWU048gruby+iD2kv/D3wafLdt3C7uoD4bLWg9ZC7W3wxWoFBVLAVjpFprYrDJnTEZzKerx+M8qLmUBvcARWE/U2HbcEr/+yiy+8KLv5Wu9GSlE8H5T7kX3L9Nqtg6fYMMxpm3o9ItgOWPPWAt9UBEk9kySf2caWVJxwPjSH32AwHSSwX5X8ZKqTuN+/TD4o1hOPkemLfE376lK/pUWi0yXoNkuqNxP2P2V6b/ie/4z+bkniwJokHJ/b7OR4Ux1o0HjT3omUbgqMaWWJB8ls7rryNwKR0RLw5SvqLKhi9zwHpsS6YS39PtR647EriyFgv3N08ltQP8Xnl0G/1TRK7kUsmGmNcVWIvMuIdJei9DuPu7b+QCsHlwx0t0ojqYtmdT0iKtYAGCdzL1euLtbo62Di3K8qUJAFKo+VwyG4tEWy+DXWL1cSwrSa8gUv3waFBsihVqQb6TZqHeZOGogFpuMXkRsGClGew5SGoEMe4RhXqpMpAYYMFdx0xabGvsKB+Wcj1XAXnP7GY+STHKUU+t4hRr4LaaicRRYzQ4zWD+MpZdx4xLekIt9eFYplyGH3EBjEpjphWtipa9j5GOtgEYoj7cIF/TYWpOHhsBzS7yZLf2wlH7L4hJfk1ljQtg0ptRmLfpUu4pLMZPRqWRcOhx/9jjq0rNrStwVXe9iPWQ+fQEnSoU5w4AZNgFZeKMNfnOLJxB/ToNffPgrKoFFoMPcW9cbA7MJobAivqMBl7dA9hvnpr7jrF6vTFuoOHsXw07ThqYtap18T9CMFJtYYoXkkBK/XItc4fxjjlaijZaglcYjNVsIITXOLgeHomFywrTd4AXXJ/kyaPwcpHn/FytzpKk9+hNnEtyT+MhYPakPushln6rxEVbYZRpLF31rxIfuN36E+l+6pg5Lzt5Ni9mNC1Admuhy3mPgj10Ec3YvwGrHzMCy7uF6BcjHRMfXUQSnLukedF336JFMZji+4lPH/z55OUfhJcIolTolQTopbjsPPMKeydpEQ6ytpQ3/sMQZEvsLQ27aTKodmkTdDVN4Z74Gfc27oV+y+QZ3DpABYo1kKxssPwJCoBwY46UKL3W781pu49Cu11Y1CTbNfrtQaf0lNgtVKVODG1MHnfBXLuOf75Vh2IW59+/bYqPvg9Hu6cjtakc6jRcwb2n70O+49uODu7FaljHXDcLhxpKZ7Y2KUUaqiux4ek79Dr35zcswiNNRfjmO5OjOlIg+Lq2GgdgkjfpxhZR4T6qnNxnNbJfYvRskp5KC9+yNVJMQUluMD/PoY0LodiLefDlUSksU566EnsWN+9FoiJd8PaluVRofkw7KH3cnwr+siXRd2BOggiNf7z3fPYu+8wKatLOL58ELGFMhi56wXZ44Ndnepwv7Ha4GU4cvoenH3z8sbv1zDBRSDJCWsU65GyLQnFRQ+JO50z/i+0oVKJiiF1MHbjMdK2j2JOF97Rra92GB6kTwqzO5FdcAmzxKxGZLuUMvYZ8wJGcqAF5jUjeSUUscvIj8u7tYgXWKlN6bbwAHT3zUKrCoLwQpxFpfkHoXtgLtqVp9eqj1VGNHxKw5O1fVCFO4+0lWHEFutsQP9GdHg7cb6Pvuau/RNiwaXGWDzxcMeVMSQorNELum9piPcVuzMEF35SqsnmXpCv2QWL157CqVOnsG5wT1Qk1y+psgau1GEOdYBWd/4eRLLKmLdXBzvm90Nlss31U/VUMWePDnYvUufutWRHUja+1H6nwUp3AOekyyqOxR5y7VO7l0GdtFVRtZ7QoepkFpjgUnjkJLikBD7BSBnqj/X5wR9bhbdkv+/DTWhSVgSVeXs4+3WYBFiVSjWE1i1vpHidRMNixHZ1m4/zF45jeQ8NHDX6gKhvFhhdmwRNjQdgk64u9moNgfL2e3j/4gz607pTvinUV2vj3BMHfCJ9TRfSrw7dZEp8PGIPO/L2sNWUVdDR3YIhzauQ7XrYYfYR1pc3o1+z4ijVchA2HjgJI7dgfDXbjmZU0DnlhNQUNyxvV5q0pdZYtJW25VXoWqMERJV74HFgIj5cX43GtK7W7YkVew9j7bj25NpVMXYfvzbLrwj7cIr0h5UxcNXTbILLkntZJ3gH4FD/cqjYRAnX+fhOIAXv9GcTf60xFl+mJUqIcMKKjqVQplYzjJgxDzNHqXKBSDWVpfhImutH/QVoQZ5BTc6PbQjN09lXzIj1uofhFUnQPOUEsq5OUWBTiryuoYtsVdQfdBYxxHLeW9aPtwMNFsGJ+KahxGZ2KF0e407YEd/0FSaVrIq2A04inPhat6Z153yd2l2mQ/vYNozuUo2c2wUnSMCTnOCI+U1KQabDGByg/eSxDehWrywaj+Jfav0aRyxpUAcNWm6CF7kfw/X9yd8og34Ld+LY0WXo2Y7YPRKIrv5RcEl/h60Dm6JEzWkwF0Ysut9bh/akbGXaqGHaHBJDzNPCsRsu5Pmn4N5iJciSfdUrlSN1pjd07bP3xV8ebUQrUTGM1X2ZMbr5d/jVlKJgw7WoVLwm8Q3syNYXbFKqy5V7syF6vJ+9TwO1SH04+CYUwS7HSFBeFZoHXiKVHtuyOndsp1EboXNwEdrUJP1MlemwTU9DqONJKFcRobXmGpwn5a63eTLqlq2GUXtfcuL6r4h8dx7dShM73m4ktuseg9ZE6gMTf6z7QfiRduCmOx3Vi5fCoDU6nG3YMbs7SpTpiKM23xFju4mrB82GrMHFC9qYpzAOV94G4Punq1Ah9qZWl3EkVtDFxnmD0P+4Cdye7ERHcrxIVgETth3HVbO3cH22EU1I3DD7Ap1S5EJ8WPKci5eG8oJtXNvuTtt2iU446fAZz3UWQ7GeCJW7jMcu3fOw9g6HK2lHtUVyWP/MC4kRLzCO9EFlqnfD2n260D04H61I7Fi8yVjYRafixZ4JXAxTsdlwbDt8APPU6ctIOSy/9j5bnfpdwSXAVgfd6e+r2BxD1mnjwlNHeH98Ab3Vm3D8ImkLussxsGIZ1FHaBhfiKz/eORUtZEk59ZmFg6evwjE4HDYHNEkc0xZHXL8hOvguBtPrlayHUVra0Fk9jCvvhkPOIjH1K7YNIP293DBsOHUa2nN6owbxm3uuvgafyF+8sPkFv+M/W+8Xx4OTfooH1x7QzogHZ550Jq3uOx5v3YJ952gcchjLVOqjWCk13AiMQfhHKnTXxbQNZ7B3Yx/uxfzup/y6Vu5XtFCfPL/eSw5wde/A4v4oW6oZNj7xJzXTHgtrlCR/Q4h3LhnCPSxvQpOUCC7L0YB0mivufkLkm72oTILRLgvu8jvjnmKEXBVUrrP4pylFIRbbUb94fYw5/JLPSPfB4eHUiSYPk0ulUVdJC+ftQrhG4WeyH0rEQLTSnIABNaujhqIGjLL2SPHvsFaxPBr1XoPX/2/BJdULe/vWhEy9vrjn9Bo7RiihEgkYy8k2wTFbX1geHIzionbYY0aDcxtMJgayVR8quMTjzsyeqEAq4gZj3nm1OzaGOLjNsc/KG8GvtnOdd6XaLaE2fDiGD+yOeiRYkGlMOp1cY7k3WN1MFpWqqeIW50eE4+iItigvGowHVBxMCcGjy/MwZvwIDFfriPrFyqBNv6OciPNq7wjUKlEbC57x7y/fnp5OnPB6WHSddxTCLDeS518Vk485ICnwBhQrFUfpCvWgMoTc37D+aFmbOEnFu+Gce6biXmCCS4oPTs4kDb50d1x8z3cvSUnhCAmyw8r+xLmTHQ0TPj5CvP0pqFQXocGsC/DwM4YmCZQ6T7yBxKSXGNuWOH5NF8BViNwCHq1DSxIoKW42hNc7ffQkTuOg1Qb8tBuPy1ApXgktVangEo+75HmVJ89rkVHeGnFe+ElwiXeEVh8S4HWag7suNtDXaoOysuq48ZkGQS8xtUJp1Gg5BU+yqBFfrI9gkdZIDB/eD53rVkZJ8qzvhsYgyPEwNxpFecUVcONFUh0xS47UoW7TYP/JlQSk1UnQJYMOasPIuUOh1Jy+barLdWw/NOHsBDzBiJYitFz5VMgAvJ9sQWtSP7tsegZfx9NoX6YahmyzJB1sCA71aILypTrhNH0JQbDXHouaxMGffckV9hfmcyOWqjdRwCBaz/sqompxERr12YIPmbpdwQkuxNF7tFwBZUvLYqPpV9jraJIOriNO2H9HpN1uyJJ7qVizBVTpvaj3RINKpA02nAgLWqW/OeLUkQnkPoZDXbkpaRvE2dnIBxjb29RBRZmeOMX3I38ME1wEYq2xoBMVkMui9xHqwOZECC7PV+EEhHazL5G2ypNofgxKJGAUiVRwNZA4rA56UP1BcJlNR5KV7ppNcJnfnOSV7JwpuMynI7Nk0HvlbUHs9sOu3rStVES3xeIF0AOxT5UGJVUwZL8tl/N0TU9OUK87YCvsBJttu3cAKpG6X2/ieWSXLATEgks1DTzxSULMxyNoIyoO5cV3iCX/hsMq2Ue4RPp9wKfPARntNdbiOHoR2yeSm829vEAYsSfKZLuMIrTuCgPIfUigR9+mlWqHhWJHNOAxNOhbpEokQHlFRwq8wQIqrlRvje1PxRJ/PIxW0eC2AgavN8wmfjHBpfDISXCJMduEiqSv6vyDPybTYBU8kgNwfqEyeW7FId9ZFSOIbeuv1Jj0EyIM3myEyDg7zOhfG5Xlu2DcvKU4d80WIZHRCDFcTo6pgv6bxWt1xcAvKg5+9rqckN9mygmIzV24qy4UybHDOMHFG9ta1yF+UG/cEMyXyab+nKA3/yE1pAHY0r8kyg/bn7GGi5fpFjQT1cCMMy5I8DqJBmUroNkYPf7FB8F8iwoqkiB63lMPuF1fgfqikhi234rbF++8hwR0Mhi5xSjXAJoKLsrkOPXVuQkuzljSsDjKy6ngRjZbnoL3+nNQTtQKq+6581kRTliTZRQOFX1aD96OR594/+nN+floSu65y+Tp6F6mNBoPWwnHLINwEgOeYyJpc52mnCI9SCYFJrikeGBnz+qQkRuIR85O2DJEEZWrlEW5Gs1x0t4XJnsGEN+0Ew5ZU3/GAuNLVkO7gbzgcn1yV+LrNMBWc97RsDkwEpVFraFNfFp/682cEFupbmv0o/3kABXUIT5UteazYZOrguGIpQ3romHbHQhMdcfuUSQYrjIYj4X3VuaHh5D7aQCtH6cUpX/A9kHNUKr5IthzQz14waVjlpF3NHWfeZtYKODBAgVUr14JAyZORosyMlDbeBPBWS7oZ7YHnUlbGKfzijv+d/mV4JLg+xQaxL7Kj9gFZ/v7GNmqCapVJeXTaQJeupN4YST53dUmwzouGWFvDqMt8SPGcoKLO9Y0qgaZmgNxnzO533BwUCsSI4yFdXQIjPYN5Uaa1GmrgmGk3Af3aEOeEfFdJ+vluiak18255LzqGLn3BZ/hfwHK5SpATuUwwtI8sG1YM1J+ZdCi+0DiBw5Hrw5UICqPmWedERb2CIMVq6Bmq+6YtmI9rt19g3Dye9+fn0COqUvaqyA+kt7MPzoBnx5t5EbRdVv3AOKxCF7PNqAxCczncIKLM+aR+Kh664kw58xXGq5MbY3ypctgO+3e4+wxXYH0j7OuZUx9d74wD7VFjbDJ0BOhrzYRm0T64mUPhL3puDFbDsUr1sJO50DY7R+PqqJKmKXPt1Gfh4tRS1QL8847kb+Uye8LLtrcwvvtZ57NFEmTo2B+dzkmTiUxlboympQthXot1uAd3ef3EIOIP9FundiGpsBszxgS27UTBJeb6Euu13TYbvBjok0xvEJVNKHPJt0L+0c0h6j5eFy0t8W9LUooL9MdR+2yj/7OC7/jP1vuHY5axWtj/lPeaP0cD27i4sEJB625sg14dQpaq2gcMgDKDaoQv14Vl73DEfrxDHqQ+lSvdg0UL0VnBgj1MNkTByZRf6IkGiv14+qeqqIc8eNKYMwBK0STujK3chnI/hDv5AWpE1wiHHeiTInK6LbcgN+ZZIGJTWRzXDQ32GoHOa8K+i25zztp6T7Yr1YJFRq0xxGzr/j61Q+BGWsqkEZivA+KxClV2/0MpsfncW/sOk++BH+hxaTHuWB5q3KQ71UERrgQXI+PgmyTppiwZBl6temFjXvWomv7BmgxbidW9y6Bkh2mw5Q4/Egzw8RsgksPVBI1wyEn3mA7npqBGqIWnODi93wFMSzFUapcDdRp0AANGjZC81Zt0GvEerzMtb25YFXTmqheTxPPOY/+Oy5oKpGGMgpGEeFwvrIIDWXKQqZ2fTSoV50Y7NJop67LvZmwJQ2sbsnG0Lbn78f+xDTufnYJc12DXuxFa2K4Jx93QqL3aTStUhLFSxJjXI/cXwM5NG3RGp2Up+A2P6+Eo8AElyQPaE8gHVWDsXguCCsg5jvl20ssUSMBUd0psBbKJeXtJfSvyQsunn5GmYJLghU02slA1HY1PvGHItx0OzpVJJ3WFiq4XCKGoTL6rXrM7/x6BgrFK2YILvR5VSbP64hzjqHSb/Gj4JKe5ImjIztCtl4rqPTuie79BuCIoROSad2PN8Ok8uXQUEkLLoKvnfD5Jka2qIZSVWXJM6iL6uVLkWcyAg/CYhHkqM0NaeyzXpgilfYGi4nxr95zAVze2GCsAn3rWBHVatPn1wCNm7ZE2zbk75nn9FnGTNLfX4N6U+JQLLyb+UYx/AVmd5NFsebTsG2+MsrVV8YhW1oPvLGve1NULEOCXsEreH18IuqS+1p0xRXWOhPJPZRA2Uq1UJfWc7nGaNmmDYbOPYaPWXrIghNciJ2324V6MlXQYeQKLBxcFeV6rsF7YtBjni4jnUQx4oTLojbX5uS5Ntdj2Ea8jgjE7dX9UL5yBb6+16yM0iJZjNlqzgUYW1vXRbUaI2H4B5+szAoTXATibbFMgY6IKo2e+wTB/kdiX2PVEH5a3awrWV5LfzeGhgIdUVIRO1/GI9T+NFRJW8+34DKPjjysgUkn+KH51Gm6s5DeU1VoHuEXcSTWESdHUWGmEobs5BfIe7a6BxfUNptxPSNwdDuvgWrFRaivoYccXYEMwWUU7nnS1vUdZyfUR/GaQ3HT3QWn+tGFPrOs4ZIeBYfTKzGqTw1Uq1aNBBqVUZYEeaLW82FN/SQquCiR7QqDcPmNYLeCHbGKijDl+uGsIx8cJvoY8aN9yvTAsRfkzoKvo2+FUqQcyqJqjVqQJdeuJlsjY9pJh7G64EuMhwkuhUdOgkv087UoVVIGXX/wx6o0XIWviZ44Np06tmVQsXpd1Ce2Ta5xM7Rp2wkLj5oiMikSAd4vcG7/VCh2rIc6DRWx8dYbeN5eDFH5+hh7mp8wQ0lJTEKQw1F0InWgl9b1DHHz25vsgsvW1nVQpToJpoW5Z1Y7B6E6sa1LnsTQV+5Y1as4yvbfDk/Bf/My3ZopuLjronYF0u+SdiP+hQ4H+6JKmdKY/+wz3K5roZ6oFKad50eJRbw5RoKg/16U8WfBpSlKlq+OlYaZDlXY821c31RFgfix2V5speDdtbnEX6qN6SRQ5/rHCCcsbV0MVToNx3Un6scG4JuwbgfF5dxcNCJ+7NTz9niwsR+xBWUxcuvzjDXz4v2eYmx1ETpO/ksjXAivjw5D1aYtMHnpEvRo0wdb9q6CYpsGaDNhB1b2LIHSinNhFUI62mRjjM0quEzqSvzuVjjqwluuV8cmQ1bUhhNcvJ4sJUER8U3LC76pXCO0IP1kH43N+GEwyQ8Igku7HQhK+YRtwxtAJDsGz4Uu7tWJMSiR46K577FNvRkJ1kbiYTD/so1OKWpDyrbRlGNwdqdl742g0DhyXjyx1+2JraoLbUNXaGsQO128NTY9y5zi6220Ax3pCBcd278ywoU4pbg4rRHKKA2H1mxNdFSaiKO7xhGfSAnjlq6GRjNi/yefRyj5kWGOB7IILp+xWl4WNeQnwowrxxCcGaGAqsXH40WYH+5v6kPacCmUr1IH9Ui5N5RvitZt22Dihuu5Ci5fr8wg59XC2MNCXxVyC30qVIZ89yOISH2LlQOpiF8OMjXqcX6gfJMWxDZ0w4brbxCfGAa/TyY4tmkk2rSoizqN1HDM+BOcdEeTPqU11jwRS6a8bfj0cD23bpGGtkVG2Xr8ILjMrVIBtdvPBl3TmHKHPK/K5apgD53l7f8c49uJUGPSuYwXEq8vZgou3603kHuthn5bMqfzP13RDKUqNcTu176w2z8OVUmMsvoZ33d/fbqO3E9tzLtIR+Vn8vuCyyHuJabq6ruknVBS4f54I9pULYsKNeqS8quJSiWKo377Dfw0w3eXoUZ8jCbLHgl1OgVme7MKLjfQh1xPYeopYbFqa8yRqYkW3bURmBKOqzO6o2atZujaqydUiM3ffc8a8ZlmP8/8jv9ssYfEgyUa45Ad/2rlV/HgJB0HJESbYGrHmihZpTopg3qQrUAXEB+Iqz4RCP14EkqiuuipPhKK7Yk/0WsDOLOS8hFbNajYVxaVZPm6J9e4Oal7nbHyvB2iUh0ws2J5NKDxTj7jfKkSXLTufEJC+GOolhahautJuGRliesHh3NvICrJ/Tyl6Lv9ftKZlkOPWVd51TOdLppbHpUaK+N2DnE4J7iQSthjixGiEoOhM5Q4vCWaYdkdN1JdSRX/9hAji5dB496b8O43Kt/v8ivBJeHjOfSQrUKcGRlU7zAVT/0+4czQ1qRzrgnZSiRQWKTPOybxxjkILk2w7xXf4dsdn0o6tRbYbeOPaO/r6FZOBFmlNbhgYgITLpnh1fuAXIfNigWXanVGwYCbGEyMtkZnVBFpwtjvC87PqEcMpSLWnjWE4WUtqJDn0rrfMc755wUXeex5kfV+mmGrKf+QAqx2oSUVXI45ICXZHtPlSKOSHY99D8X3ZwILRw/EZHkmBTfCJQhXliuTjr4kNLZcgZXVc2xeMwc7r5rg7mIl0mirYpbOE5JvhiPz6Nu8aqS+fERsnDFGEkew81h9xNKvY6nVJ/saYaW+BTn2CTaNakGCiiY4YBuISC/SEZF6V11lMvSJgTq+hl63GFr1P0nqbdbnVUBRNeFHwSXt4w0MbFUKXWYfwQODp3hmZA47Ypg5tyfJHJPLl0N9xcWwEzQt/+vTISpWHK1nn4Sx0SWsVKqHMqJBuMsJLnSYtwhlFfpjr4EZjC+v4OZKNh+lg5AkXxwaTKdTqWDpeaOM52fy4h2+xf1Ho/p8EwObksCr2yLcN3sJ92/UzY2G0boRqCLML27YZy03ZYdOgzjUpzl5bsXQa8MJmFvdx8r+dK5nKxx/HQJfi92QLyFCi1EHcVt8DyaWeJ1t4caCFVyQ9gFblelvp/daESN38nPyk9wuQaU8sWkKK3Au415MYfshmEQU1pilQI5vMhYXHj/Hg52jIUed/M1mQoBRF1VlhyLrcgB/AhNcxPhAW1hHoNkkXWI3cyD1HdYO5Y+ZdjnLsP1vz6HRkc6Fl8Fuu4SfBZdQc8yUI9ule+CQuWDTI52gRdc8ySa40BE2ssRhFQs+qcTmUMGlCkbusxby/KEzvCbJq4yhu/k8KrjQ0VtNJl/IeNvnqjeSG8HVQPNMzsPvswgudz/xjk6QzX60KyOD0ScvYf+oDihTvDIW3CVOT1oMHm0fxs29L1e7GTp37gLljs0gW5bcf6sfBJfy/aFnJzgfwU5YrULyyvaBjg0/eiXB6ymm0bIo1xM6L8mdfb+DARVLkWOqorliDyh16Uyu3xnKPdUwZMhYbD/9IiNwpDDBpfDISXBJ/nodfcpQf2xidn+s0RoSxkXDct9wEvDXhPr66zAU2zYzO3h8T0CSrTY05u7GXRtLPD25C61J/Ww46wLePj+CuiSoraM8B9etrPDw9CKM2KyPD5Y6UCZ1TmXx5YyF6LMLLj7Y1aEO6ZfKQn3nBVhY3cQ8ZfrWXAFnPpF7jnuHdarlIJIbDt27FngXEAEvs+1oTgUXvddISbDC6CoilKmnDl0TK1iZ62F0U3J8tREwj0zEh2tLOcFlkh4fQIY55+0rGD8KLtemNEfJMpWhsfMe8QWsYHRVB/2qloCoVC1MvsG9n85CKtzuLiHBXGWM22/B+aHUVixpQf2FKbDNQWigggvtb8dd+IK40DdY1akS+Q2kfb3gW3742xPoTPpupZnZv1pZkIJL7Hs9dK1WBZWryaCG4iwY+7vhxMAWKEfqQvVKZdBH6wYfOMYa5iC4tMAhB/6HvThMp2q0xgH7IER6XEJnYmNqqWzApYx+0gx2HwL/wzcVBJfWW0gNicCdpd05GzrtyH1Ymp3E2F5UHG/685QifMLewa1I/VXDNR9eAKKCS2tSti2W3cs20o5OPecWza1YFQdekzJ2PoO+FckzVZgFG27VZsDp/Dzi15bHtHMO2T8gkE9+KbiQuvL2ykLULCcDWZkKaD7lJNy/mmFGnaqoJCOLypXqYskVvp8KebX/J8FFtuFYGHEPJRAnh3XkfHfzhBh8uD4fMsRfV557Go8zyt0G733FiyDnTKjDUa6s5PsuxV0rC+ht7EnKmWz3OEz8/lDcWtiFbDfDhAP3hWuSZOkMf9LWvhlsw/CFR2FobYE7u5ZxfY3yxsd4fWs1Ny21zfD1eETajv6h2Zh46CHcHm5GU+LrDd9nzI+qJmQXXFywhE4pqlQLE3TuwNLyLDQaVYSoojoe0c49yBgTOpB+qP10XDW0gfv3GLy5TKcUyWOjoRfigm6hG/m7sp2mQp/8Xaun+9GrSjGUbbkQLukpsN5Fp+tUxfJH/HBqj8eriZ9WsIJLB/L3ey2/IfTfMXiysg1ExRth2sGHMHq4HUMqVUC95mvgSnd/voq+9EVGz2V4ZPEKXpHRsNqv+ZPg0mGiDj/KLdUC0yvXQEvVE/ALI/6+Qhm0nbATd7hYgPiirwMR+xsx7+8LLvIkHuWlr1/Fg1NPvEbAq/WoVEqERpOPkjjkGjb0kidxSB9c9qWCywl0IrZ94mESH96chTrk9/bfakHaXiyeblIF/TLZ8K238Fxc98wd4BWWiLREC0ytUB71aLwjfmOVR6RCcHl7dQ4qiMpgBjeHNZJUtL4ZCxOJ6rVG8+rFUaE6MWxZazYhzvc+hhJnoOnwLXDjKosXtiiSc2Sa4Xz2aa0cXgZbuDm6rZfe5Yxp7Ht99KQLtzXQwDM/0qW+O4z6okroNPGioDIWDr8SXNLiXkNLWORUfvQe7m2F66GufLmI5LDyLv8uMD3GAMNIXu2O+4ihi8NVzbZkf1VsseYr9IuDo0hgWh1rjKmjnwjzQ+po88MiUrU1zvy0YGF2HLGgGulgSqvhPlfXgqDTn74VVYVBWATe3diAWuLrVa7NLaIop7Kfc5ysNvchjaQyNllkv5/VxNBR/Ew3cGuADN1tyRmvj7fnozsdvi6+Hk3tVuNdlsZRkIvmhr0zwEJVqojyf6tcreHQcQpFuP0lEljRAEh8HzXRYdZJfCQ/Iz3yNnqSvCb9+WDN/cle9G0mk+VYOaisvYUgKg7EfsbRcS0y9lVo3hbyxIg05BbNzfq8Ci4I/lFwQbwbNvXn50pmpAp9oHX9NSITLKFJtss1no4XgmeZ4v4MQ1uIf08ZyDWkQ5x74lpIDIKcjkGJOKbV6tfmhp5yx9TtRgJJfhRAkM0hjGmZuUAslyqNwH2P/3jvE/sR26YpCufUwbLHgtb/WR8D5OmcyzJQ32VNOlfKVxxSbY3yxJmrXbtMxt9pNf8UPGk9SfDHtVVdsyyaxSflVQbZnIgCFVwI7jfmcVP2RFW6kWBbCONT42B+dCjaCgtPipPs6HNITgvGrbUjuRELNK9CrdqoVqIE1JYbEefbE6vrkN9WrCduZzcNvw0TXMQkw+nwKG5B9WLV5LFM/33GaBG676utFd56eeLR2v7c9J3Goy9kDM/3u78RzWm/ITMCz8LSEeZwKmNK0VM/YsEi7bGQLuBWogU2PeFDnkDTTeguS/JKd8lFcEnBnUWFIbgILmuCL3QmNUL5lkMwvl8TVKpWDQsekDYX/wrTe9BpTCJMu8nPf4i3OQiFquT+m+UmuDhiVTeS9wvB5RgXEDpjPp1iVLU5Nt/Karuj4eRsDwff7GEOE1wKjxwXzU37hgerfvDHZIsRf2wmbIkhTfGxxOZhTbmpIGK7Rvu+VQ/Jsw16ihHNSZ0T57dUwM4nnxCXFI57mwcTOyc+vjqGHrOB5ytt7pO8raefzviEcLDTAc5n67XckLQOX+xSkEe5MrKoxc3Bp+eWQudV+vDlIvIw3N49mvgW/HVHXXwHD5NNxLcohlGHXhK7nwjrY9MhV0X8d0kqr4BJF/gRLc5nphE/RYThR/mpe6H2u9GQbKuuMchVcAl9e4Rb9LzbwvtIIn/lwTzhs9BZUvlmnTFV9w74lp+dwFfH0Jkc03WpPt92o+0wgy4A3HIYjMWz7rLgeHwiF5T2137Dbfs9343GxJ8o23UdPkQmcVO2KpJge/iW59kC/4IUXFKjHbFIWNCz6Xht7nc57xX33U2x7hFv99KiHkGd5NXvqk2eTiwuDqfrM9TATlt+LL/F7iFkuyY2WlJPMQ7G+/qhlfByRZwaTKDr5OXGK8ysWAYVay7hpluE2J7DsEb063P0/Epo3I7YOGJTZ597/YOAEIObc7uTsqyJbZa8b/rx+mIucJOddgkh2VSeWFyexL9MWWtGvdQ4WO4ZzU3FaTL/EeJTSZC3ja5l0xo7jf5sYftfCy5kn8Np9BDKZ5SOE5JTk3B6fGn+t9YbgwfCtHs/q62oR/LUuenXblhYuRiKVVTHY67D8Id2L7p+WF/cjyYlEvYOOtPbZ/rvXKoIjV9OteVJi/2Ks9PbZrS3sk3aoXF5EWq12wg68Sb2/Q0s7F4380MSXOqC43ahSPx8CcpZfPzyHXvg5MtgJER9xekFPbh2yO9ritm3XfD54UrOr+qzxSBjhMrnh8tQRVQC408684JLPVmUr1wTNTI+3iED9X1P+T4y2QdHl/QS8qtgsbEP3l2cjtKkfiy6T+82FA+3DkcN0o7E91SsRm8sf+hBT8Yz4gfQvDl36Db523cXohIVZ085FIjg4me1k7M17edcEsTmFBKvHkRj+pKD3k+ZGpCrIUKVxktIJEaIdcPGSR2Ee22CHa9DYMu1pfrY4xyMqMBL3Jo3DYftJ1ExIdUYGqLikO2wh5RHMI6PoWJY5m8VleqK6brmyONSJhn8jv9svImPBzea8xHnr+LB4fteIDX0JSZ1pP4Pvc+SaChXgRzbGae/hOPb+0Ocf6+2gY5K8sbWLlR8b4x1dt+R7GmEdQPkyTPK8htFLbDNmI6iscRosl02S7yTV6RCcAl1t8TZw2dg/lEIUKK88ET/MLS1T+KB42e4mtzApQum+PGrl2kx7tipWgFlukwGt5QJMcsOd3Vx/Px15LSwfLSPA64dPoybLzwE5zoBbiancfDAVTj7JSDg7myUkKmFiXo/voX4u/xKcEF6Kj6an8Bhcs93zD9x9xzzyRTHyfbhC3fhJnjb6cSYPNM5ict3XhPHIAXuxrfIMRfgIHwGN+iNEU4dvghbH8HRTg/H+zvncFJbm5QxTceg/5wf5fNrImFzUQ8nTz/GV66SxuHtk2s4cfgBPOiJSTGwuH4Kh8n1bj+3xstn53D1gTM5ijgUDo9w5uh5OAT8eD98Nxrrb49Lh0/hmRNd0IiSDF+Tm7iQcX/aOH77FcKy3GBBCi6UqEAXnDtO/9ZRGJn6QPx1tCB3a5w4SvMPQ+esNdyFepUa9wUPD5/AtSdvM96EfH1thKNCeZ7Ud0RAZgSHxMA3uK5H6/QlmLi5w/7OeVy99+PzynLCH/Kj4BL16SHmtqoHxbGbcObcOZzZvQ5daACltBR2fgEwO6mLs9fMEZSljP1eGJC6p40T+o/hYPcA10md+xibDP+X+9FOVBp9lh3BnZvnuLK5aO2azbkLd3qGm1men/Z5I+Tl6+PfvtpD7ygpp+NPkPnhrM/Y1qUhyhRvBW1nsYX0xL4ezVGlXA/sf2SAi+RvHD59A2/j+DrGEecH+0sncCzjPk7ivq33XxVcEnxuQpUYc9neS/Eq2++NhNu981na3FFcMnzHLUqXHvwVt07RuqELQ2trGN/UwwMbX9IWomB7+QxOnnoIj+xx6G/DBJcsEEdzs0YjvjOu1BzDZy/GkiVLsERzBNrVaYLplzwQ++4kOtF2ImqIHhPJviUz0F2evjEtB7VtxtxojO8vddCLOkZ1xuORNzEcqd9wegYdTi2CvNIILFgyHWqNRChdviJEpTtjhyC43JxDRY2qGKMtzD0mtuD2AirCVMLwPfw6EtQ5PjaULnhYAYN38nlPV3bjHH35ieczBJc3p4ZzQVhd4atpPxFiC63epTiR6M5H8TtCcu+mB9G5kggl6MK8xFldcJucneKDA6N4cbb94LFYtnQBBrYXhOdWc2HFCS4OWEpfbpRRw6lXYsHFASuoCFOqF45ZiwUXA0ypT/JKq0DbkubFwGS3OhfAV6jRAdMWLMOyZcuwaHQPyNRphYmXhXUsBJjgUnjkKLhQcvDHLhN/TDwVO9nPGUbH6X7Bth27Clvus/fpCLR9zPkE2ro6uOHqkcXHiIQJsYf0+EuXrUG/zJoQ6sr7Z+YfMvrU+G8uJO8EHr70IfbwMza1aQDZmuo4ZvAE58i5h8/fw+eUzJAnNvQzrp89Sq57DS99kxHl78D5FkYu4ikKSbB7fl241zO4YuDJ+SiUkA/mOHP4GAzfCnU3xBlXDp/E41dZJ7nlQPR73CD3eN/ak3sZEOx4EyeOEB+N9J3c3zl/jlzTO1tglpUkfyvSNxdDlWHbuEVxkRwMi0uHcfLGM9D3gD/y7Z0JzpNyevLmG9+XpYbB9v4x7D/6AJ6R8XA8TIJDmTbYbJA5LYNSkIIL0lLwwVSX803vWblz/ViUmzF0qG966T4+C35SepIXDI6ehP59V+K/puCT4Q3i61yCUzCvZgQ4PyO+4CXY+wmdZVoo3t46ixPc86FJB1dMPwkvWX5FOKzOncG5SzaC7UuHx6tbOELO171sCtcvjnh47AxMP/w8jtFdfy63nprmWX4dqogvNrhMfsNF4m9n/0JuCj6bXsGJ4yeIvyTU4kg33Dp3GPv1XyAhzhvHJ5OAT34cnnz5Mz8uN8EFsYGwvEXr1hlYudOANQ0eNje553D6ySuECu5PTKAj9EndNXCk63CFw/r8KZw6ZwBv7tZi4frwKvHdH8MzXvCGwj7B8swxrsy4cj98Hs9d/zuoTP72HrfO0rZ/Hobvv8Dp4SXo3yS+urA/7pMNHh0TP0uSTtzD22B6E4n4YnqLz9M7hYfu4jFthOQgPLx6ktt345Yz6DqukV4vcYH8xkcOPlxdo0R6vSDtQA8m77+TUMkWc6pVRf32U3De8B7nZx2+TtqPcCwl3N8F56mdIu3EJSwdoZ/McfrwOVh7iIPFaJjdvyjc6yXcsfAX6l0qfF49wUlSnpacXSN/29Ma5w6fJnWKXx9UzO8KLrGBTsTWHMZty08Z9ggpSXAk90Ptp/5jS9ib6UP/hhU3a4AS4mGLU8TOaJ80BB20GuT8lNyjPl5/j0dS3CfcIde78syFFyvT/fD8hB4u3nLCdy8rrFZohPbDVuIkiQXOHdqO3nRNupaT8NwrSwCQB37Hf/YT4kF74fPNv4wHnfl4OMTeiLOlusSu2Ns/xo3zN/E2PBEJYW9wldpnOx/uGXxzMIL2EV1cduDtd7KXPZ7qZql7Ojfg6EdLNwBGuro480O8kxekQnD5fRLx8sgQiEq0w7Znua8P8d+E4/yEJqhUpzeuZflUdGHwS8GlkPF4fgJTVFWhmkOasv9JtqHe/28KWnCRNn4UXAKfrUf7yiLItuuHsePGYexgNdQvJ0LziYfxJZ8qr4/5TjQlAVPP1Q+zjArIA3GO2DdyUI71S23yCjz5nLP1i31zDr1rlkC5TuvwIeOtkwd2dWmAUqKuuP4HzaZgBZc0uF6eTALfsui3TlgguYjBBJfspAa74uiu5Wguk/mZfJFsbQxeeRTWgfQJRsPF6Aw0lVpl7C9eqzXm7XkErxi+xwnO+Cz0RDziRnGlIeyzAearir9CVANj1mlDZ2F30lcpYGdRGeFCSQ7HjVU9+TdBlethlzkfXIa6PMXC/rxoRFOHvoPRpz0JKJrM/M0RLj2gbSE01DgfPNy7AP3qCW9maWrYAuOO3MPr4OzGiAkuhccvBZcigytWNamGcpXUYZClCv99ovF020Ko59BvqfYbjJ1Pcxq3kg/SvuOmVieIKvTDpTe5jzP+T1I8sK17JVTpOB2WP1yqQAWXQsbd4Bgm5VT+JE09aJgZpOaXgPsYLF8R9UboZlsAN7/EeTzAyOrEn5quB7Ee87vkKrgUKrEw3q+FwTmUuapqf2y880E4rgiQaI7JZUugWsvZ/AiQ/xO/K7gUJpHWh9CN1FWZlr2gQWKBccPU0ahiMcgN3wwX7vPseaegX1gWdf5xwQUId9XHkLr1MeGgacbcvt8i3ArzurZBlwknM+YPFxZFQ3BJg8uVVWhdpgzK5JDoWh7e/2/7nwUmuOTOj4JLalww7usuQZOaFVCWPM+yMvXQe/FRuPhE/fLN268IeKWD3rVrY8wug4yALy8khz/HrDpVcqxfZVsNwDnnLKNTsvBabzZa1qmJYUfssoiq3tAd3g1N5UbirvfvezgF2mGkB+PcpOaQbUGCS2E6X1GDCS45ExMahsDAQC4FRecgLSfEZez/HvmjIUxDZDDZ9/2HYUgpkQim5wSLrxdDzg/LXI8gPoRsh2RbmwoJ37i86CxVOi2a5gVn5iVGIIhcNzQ2S4SQFo2QIHJvggiUE4mRwQgMyUk2T8R3ep8hwhtzMSn83wkMCkUSMRLJceEI/Jb5GxMi6G/Lbj8SubzIbHlx32lexE9vqdOiviOEXp+k4LicVV8muBQeRV9w+Yg9vTqiZespKMAP+uWBIJyf0AMyOfRbZcpVxcTTLsJxv0s6vAz3oHuNxlh+832mffgNkj1vYWizVhiy9uFPIoTkCi6pcD6/DC1zKn+S2s4/C998vjTKJBQXZ3VH605T8Py361QavJ5uQauailh7y+0PX/wWJcElFNdm90O1HMq8TJkKGH00qz/2fyb5FZa3aIIOqqvh8Nt14c+RBMElLSEMRhfWoHW9SlwsUKZiTXSZtQ+27mH/MZLsZ5jgkjtSJ7hQY5ccF424hORsTl6+SUtGXGwc4rnPthQuRWWES1pKEuJjYxGbQ4pPTC46xpXABJfc+VFw4UlHfJzwTEmAk/SbDzQ9NZmrJwlJqfmrE+mpSCROxI91i0vxCcgyMjwbyYnknJhYLujLJB3JCfHEKSHn/UHFLNgOIw2JsdHcbymqIQsTXHjevXuHJ0+ecOnpM0OYmplxdYFLpqZ4bvgMBsL+JwZPuYXXxPvNTE1g9Mwg43yDZ0YwofvMjPHsqTj/KYyMTYVzTGFErvfMiF6D/F8419CY/k0zGBs9y7iW4XM+zyQjzwBGJtnznj3n78XM2DDjHp+Sa5v9kJctGTwjv4HeowkMM+6RT8+MjLlzzUkZZPwu8psz75/c4/PnMDYh2/Q3GvD7n5vSfaQsxNfLmpdxnWcwNvshjyRaZsamZvzfpYmUL70OvfesNp0JLoVH0Rdc0pAUH8fZ/NRCdUbSkZKYQPzDHPot4jMm/qrjyg+0byR9R3xiPvvUH0hPTURMTDy5p5+vIskjXHL3TVP+rMySybP9yb/IH6lJ8YiO/TNfREzREVxyq/exSPw/xEq/hvct4+LpstX/PyRBcBGTEC88SxILJP5modG+mwkuv0YKBRfJp6gILpIEE1xyJ2fBhfEj/1qHwQQXnnPnzmHMmDEsFcFEvygghgkuhUfRF1wYf4IkCy7/EkVHcGHkF0kSXAoCJrjkDhNciiBMcMk/THDJHSa45A0muEg/eZlSxCiaMMGl8GCCi3TDBBfJgAkukgsTXKQbJrhIAUxwyT9McMkdJrjkDSa4SD9McJFcmOBSeDDBRbphgotkwAQXyYUJLtJNgQsuOjo6whajMKGOTlRUoS69L/HQ1dJDQ0OFLUZW6NB8Ozs7YYvxK2gZ0bL6l+jTpw/n1P0rUMHl2bNnwhZDknjw4AETXAoJPz8/qKmpCVsMaeP27duYN2+esMUoqtCgjvq2DMlj+/btOHTokLAl/fyL/jON1fP6wlJEG3NOib7VWLNmDebOnQtjY2OWCjHRYKBdu3bc27yc9rP0c3r+/Dnat2+Pa9eu5bj/X08qKircaLWc9rGUmWgZ0bLKaZ80JgMDAygqKnKj6RITE3PsC6QppaSkcILLli1bciwPlop22rBhAye4UP8kp+fLUsEkags8PT3RuXNnGBkZ5fgsWJLsRP17dXX1HPexVHTS3bt3Od+WLi6e036Wim6ivsaMGTNy3CeN6V/zn58+fcr1kf7+/nnyn0VUmckp0Z1r167lAv/Ro0ezVIiJDsmSlZXFoEGDctzP0s9p1KhRXJlRByKn/f96qlu3Lnr27JnjPpYyEy0jWlY57ZPGNGLECDRu3JgLrsLCwnLsC6Qp0WHZEyZMgLKyco7lwVLRTl26dOEEFzoVLqfny1LBpPDwcLi5uUFeXp7rW3N6FixJdqKBgpycXI77WCo6aciQIZxvO3z48Bz3s1R0U4sWLdCmTZsc90ljYv5zzv2pOP3nlCJdXV1hi1GY0CGEMTExwhYjL9DhzxEREcIWIyuamppwcHAQthi/gpYRLat/iX9xShF9a8+QPB49esSmFBUSdEpRv379hC2GtEFHTsyfP1/YYhRV6JqObGqfZLJjxw5oa2sLW9LPv+g/01idiil5gS2aWwRhi+bmH7Zobu6wRXPzBls0V/phi+ZKLmzR3MKDLZor3bBFcyUDtmiu5MIWzZVu6EygAl00lwkuhQ8TXPIPE1xyhwkueYMJLtIPE1wkFya4FB5McJFumOAiGTDBRXJhgot0wwQXKYAJLvmHCS65wwSXvMEEF+mHCS6SCxNcCg8muEg3THCRDJjgIrkwwUW6YYKLFMAEl/zDBJfcYYJL3mCCi/TDBBfJhQkuhQcTXKQbJrhIBkxwkVyY4CLdMMFFCmCCS/5hgkvuMMElbzDBRfphgovkwgSXwoMJLtINE1wkAya4SC5McJFumOAiBTDBJf8wwSV3mOCSN5jgIv0wwUVyYYJL4cEEF+mGCS6SARNcJBcmuEg3THCRApjgkn+Y4JI7THDJG0xwkX6Y4CK5MMGl8GCCi3TDBBfJgAkukgsTXKQbJrhIAUxwyT9McMkdJrjkDSa4SD9McJFcmOBSeDDBRbphgotkwAQXyYUJLtINE1ykACa45B8muOQOE1zyBhNcpB8muEguTHApPJjgIt0wwUUyYIKL5MIEF+mGCS5SABNc8g8TXHKHCS55gwku0g8TXCQXJrgUHkxwkW6Y4CIZMMFFcmGCi3TDBBcpgAku+YcJLrnDBJe8wQQX6YcJLpILE1wKDya4SDdMcJEMmOAiuTDBRbphgosUwASX/MMEl9xhgkveYIKL9MMEF8mFCS6FBxNcpBsmuEgGTHCRXJjgIt0wwUUKYIJL/mGCS+4wwSVvMMFF+mGCi+TCBJfCgwku0g0TXCQDJrhILkxwkW6Y4CIFMMEl/zDBJXeY4JI3mOAi/TDBRXJhgkvhwQQX6YYJLpIBE1wkFya4SDdMcJECmOCSf5jgkjtMcMkbTHCRfpjgIrkwwaXwYIKLdMMEF8mACS6SCxNcpBsmuEgBTHDJP0xwyR0muOQNJrhIP0xwkVyY4FJ4MMFFumGCi2TABBfJhQku0g0TXKQAJrjkHya45A4TXPIGE1ykHya4SC5McCk8mOAi3TDBRTJggovkwgQX6YYJLlIAE1zyDxNccocJLnmDCS7SDxNcJBcmuBQeTHCRbpjgIhkwwUVyYYKLdMMEFymACS75hwkuucMEl7zBBBfphwkukgsTXAoPJrhIN0xwkQyY4CK5MMFFumGCixTABJf8wwSX3GGCS95ggov0U2CCS0o0Pljfxblz57h09uxZnL14DheM7eAZJBxTyIR52OMOvQ+ahPviE5934bI5fOIlN4BmgkvhwQQX6YYJLpIBE1wkFya4SDeSLbgkRcHsziFceOErZPyb/G3BJc7DFAeWzMHs2bOxbMNt+An5ecXvxRXsPHkLXlFCRhHg7wguSbA9twFzSTnNnrMON6zyee0EH9w9uRdnbf7/9fmvCS7pIXhyYDHm0DKauxumXyKFHXkjKeQ1Th89iIfv83fe3yI/HUZqkAsuXDoOC88EIUfyYILL75Me6oK1vUQQiX5IpWtDofcS6Bl9Qn5C1QjXe1i5ciW0r9ggXMjLH+lwOjMD5X+8n2xJDbeCk4TjJQ8muBQeEiG4pMTA8u4hnLP2FjIYeaXICC6p8bC5p40zlp5CBiMrkiC4uN0/gCVziA84exmO33mXr36P9Hwwu7Qfhw3eCdvSQ34El1CXOzh09QH8ooUMCeSPBJe0IDzct4CLS2fP3Qfzr/kriMQgR5w6cgiP3QovMJVswSXWH1smNEDfg7ZCRm7Ew/7CdizY9/g3ndOiy98UXKI/G2DBAGWMXLgfly5dwoFF8zBZ1xwxdGeYHbYsXoPLLhHcsb/C/sho1FSZBpsiNACn4AWXOJjpzoaKynDsIuV06fgWjJ29FTdd+bJxu7UPc7beRK4vsiNtMVOlIfodthMy/n/8FcElNQBX14yASv+pOEnLaM8KjFiig5fBtLuNhtHRDdA6YYnc5Ig4N330btccC+/nV/b7O+Snw0hyuYze/dphu1nu7YUjyQMn163EvifuQkbRgAkuv096kANW9KAiRn2MXX8KT58+xVOD61g3sjknbhSr2Qrbn35BsnD8f+FxaRJ3XkP13fjdWhId4AZLeh8k3doxDmXJ9co36YYdV/i8Z0avEZSQIhydM+npwn+KIExwKTwkQnCJD8auKQ3RY6+VkJEbiXDS34l5ux8gVMj5lykygktSGPZPk0PXnaZCRm4kwfXabszdcQf/So9VtAWXdLy5sRF9uqhhtS7xAS/sx8wZq3DYnH/JGGpxGrOWn4Bbrl2OD3YMa4w2K6Rvmm9+BBf3yxPQYOhM2AUKGbnhbYTlCzbjiVfufXlh89uCS4ofLq8chu4DZ0CPxhK7VmD4suOw+5ZGdkbC4NA6rDz9gljwXxPteh7d27aE1uPCC0wlW3CJC8S+ue0x4rgDt5kSH4nY5DQkhHnD3f0LvIIiQYufEh/mCu1xiqjRQwum7u4IDI8nTZ8nKsiDHO+Orz6RGXmU9LgweH1xh/sXL/gFBsDXPwgx4pd9sYHwIOe4e/ohSvxU01IRHxeDxOQkhPuRfb7fkVAIvsffE1xS4Kw3Ac2bj4ZpvJCV/B0fv35HSnIsgm200bFOM0w6bgYPL1/EkLacnhhFyigFSZH++OLhiaDoVCSEfIb928+IomWXmoTY+FgkJZLzvUkZefjg+w8RduJ3ci4pW3rNgEA/+AaHIUn8IAuIAhdc4uywoENNDD/gKmQAQX7k/qOSkRDhgfNzeqJKp9l4/MkdAWFxSE1LR0I8X1fCfEk5+JHfmBQLrw+OeOfPK7WZ9dnnp/rMk4ggT3Kuuwd8AgLhT/7eN/oQCoC/Ibik+NzEkAZ1sfRRrJCThK9f/RBGGknMN1usG9AaDYfugC159iHRKUhPTUZcfBySE2MQ6OWOL8HRSIkLxQdXJ3iE8o0uKS4S8aSMYkNoGyblECauqALJ0fD1oGX0Fb6BgfD180dEQsFFiPkSXN7dxPDRPXHQmo7OIc8/LgoJySmIDKD35wm/SCHUTid14tMtDG/ZGD1WXMF7j68IixeefHocVxa0PgR8z96dxIf4kXyh3QT4wS8kAsnCT43/5insC80I6NOT4xGbEI/k+Aj4fXWHZ0hMNvuXE0xw+X3Sgx2xihvh0gbbn2UKhmnR76AzU4UTT8p234H3xE9OT0mAh+01LJrSEQ0a1kO9hvLoOG0l7tuGcm8DnU5qoLlsBe6cUuVkUKtePcjNOAn/+BTE+Fpi38qBaNGSnFe/AZoMH4dDt9z+sy9Kt9mJiuR6Mp3HwibDV/+OC9M7onnLnlhz9XWG/Un+ZodNqi3RvM88PPwSghd7RqFDJ2WsuWaHh3snQrFpfTRqNhBrj9kiNovRSon2wJMtk6FWn9wbuef2nQbg5B1XZDTJ9Cg83zQPii1bYt4lMyT+YVNlgkvhIRGCS8I3aC/ogCFH+Zd04j42MdyX+Bw/+IzhH6AzWQnVuy7Gc2I7A8LjMuxjtOAzenpHZO+T48Phnc1nDER0hs8YBE9yjruHLyLFPk869RmjiR+QjAjqM/p8w3/om/83io7gEg6dRR0x8BAvmqXERyE2KTXjGX4NjMgYMZEQ8RF607uhauf5eEafIfG9xM8rJpjvEz29w7OPsEiIgA/3DL8KzzAg08ePC854hhFiV4M8wwTyDBPoM/T/Qp5hCIgZ/r9RtAUXL+xRb4iu8+9lPIeIYF98/R6PlJhvMN05CpXlh+K8ozt8iP+SQhpcEnm+CcmpiA4kZesdjDjiMwe5O8GZxCGU1IRoPuaICuSejadf6A+BdipCvci5tH37BSDAzxtBEUVzlHF+BBfPm3PRfuJSONHYPTWRxFXEVyZlwfmHnr4IE9sdEpP5P1oHuZrtseKmIzx9AxEnrvA51WeONIR5URuXWWaBGWWWjO++tDzdiU+dWcdSEmjsl4qkCOKHEp81iAv4cud3BZfkr1eh3rABVj7L+JHwJLFEeCKpJ8E2WNG3JRqP2gM7co8hJCZKJ3EnF0vQ8iG+rkdwDIklvuO9qzM8hYJK5GIJEosE099GY4kf6khSFHypXSCxhB+NJfz9iR3Pn4MiVYLLu8vToTlnMVbPH4Z+ar3QWmkY9ht4cU6by3UttGtYHRVqNoOKmhq23nYlzTAF/vbnMGdkV6iRvE7Nh0Lb2oMzBPHfXHFq3lj06a0GtR5tUK9yLbQfuxGWvqTcwz7h+GqST87p26Ubxq6+CF9aWeNDcGldH4zX2ohlGqpQW6SHz+F/6DHmgb85wsXPZBday7bAgtOvkO29fJA99s3sjGoVZSDXQQVDpiyBJbF/Ic/WYOLceVg9bzj6DNXAHosIxFruQP95K+BEXxN9d8SeReqYqrUK8zVIGXZtA4U5p+AXQS1AGkI9nmLtgP7oQ8q2W3t51KomB/UN1+DFDakpOApccEn3gs6wNqjWazVsP2YfwfD5wUYoN66JctUboauqGtZdcUR0TBQur++LCaSuLBlN6sryy8TZC8H5Df0w7YILdx6tz2PmLslWn/c98gQ1D+mJ32CutxqDFcm5al3RVFYWcp0GQ9cqbw35v/gbggvi7bG0U0M0m6KLzwFZusT0GFifnokWdaqiUt3W6EmevbYZcTz9HbF7yWDMWL4S04epQX2vGaJ9nbFuYX9sNuTHCpkdHIzRC1dj9Uy+HBr1nYlbDmGcY5wU6YkbG2ZCrTupZ6qd0FCmBpoNmIu777N3x3/C7wguh17STioRd7b0wZjF67FyKrl3VQU0HLwSVqSipyf64MomddSrUhk1mylCdegYXH1D7jnpO6wuL8GI/tT29IBK70UwDKLXSsM39wdY3lcVfUnZKbdpiFqkrg3feQdBpCC+uz/CivEKnL1SaqmGjXcdQc1Vktt9rJmvgXlaizBuqBo0jlpldzxzgAkuv0+m4NIS6+98EHJ5Iq33Q0mW7Cs+CgZRQJjjCfSrXhI1G7RB27Zt0bKeLIqLRKikMBlPvibh85UZ6CJXjRdpZGqjOTlGYQWxIV4vsKpzacjUaIZ27dqibbP6KEeOKVajA7Y8zf1VWLjhRlQgx1buNAqG4kPT4/F8S3fu79QcsBIOwkw+3+cbUZdet/00WHyLx5P5rbljRPWbo1KjNujQrikq0+1ytTHj5GtO5EuLccaOfm1RUlQMNRuTe2vbCvKVS6J08WZY+lAYo5Pojp0D6nPXkplxChF/GLgwwaXwkETBxe3qbM5nXDV/OAao9UabLoOx66EHJwC+u7UaHeVkUb5GU3QjtnPTdVqP0xDgdAnzRilz9lSh6SDsM+OnAiZ8f48zi8ajby9in3u1Qz2ZmmirsQamXiRACP+MU2sHkH5cDapK3TBm+Rl4xZE/khiGKxv6YhzxA7TG9IXa/BP4EPr3fcbfocgJLtrW3Kb7jfkYO2chVi0YBXW1PmjXeSC23v2MeFKMbnfXQ1G+BsrLNuae4forDkgg3kGQy1Us1FDinqFis4HY/fwDiQbI4wj9iPPLJkGVPsPe7VCfPMPWI1fAyJMElBFfcGajOvcM1ZS7YeSSk/CganJyFG5s6ouxyzZiuWYfqM05BlfuTfv/h6ItuITh/uLeqNR6Mu68zD7e+5uVLoYpkP6qcl10InHXPO0HCCYdx/O9/TFm6XqsHt8LatP3wcE/EWaHh2LogWfceQHPNmLyrNlYvmgCRqmpQkGhNxafdUIM9wgi8ebhXoxp14M8a+JD162Beo2VsPHBJ+7cosbvCC5vaJ/sb4WtC4ZghtZyzBlFbUxbdF10CQFRaUj3NMKaUa1QuUI1NOvSG6MXbYdjeE71+RSpz9T2xOCdwQFotu1OyozYxHo1UFdOAevuEp8lNQauj7dj3MDeZJ8quhB/5JoHP2fE654WJsxdSGK/oeg7VBN7nv93bPW7gkt6rC0WdmiIVsRHcA/MMiY4LQrmJ6ahWa0qqFy/DXqR33bUMgyJvrbYsXgoZi1fjqkklhh60BIx3nZYuWAgdpjwwp3xfnUSS6zB6hnEDqspQ151Du45h3H7kkhZXV0zDao0lujbEQ1ILNF80AI8/PjfolJWpEpwcdUbifrNWgmOZQLMdg5G036LYceNB43EvRVD0GqMNsSzd2M/GWLuiIE4+o43jiFPl6Fb76V4HRUNsx3j0Ft9Gz5RKxxujlkqbbH4HhU0InBLazBGHHzOnYOEl1gwQAWrr7sTgx0PndFlUEV5OkwLaqZKHvira7jEB+DBEU00q1gbPWdthf79N1ywxvH1Nga274E1TzN/rM+DpWhZszomnHHJCN587y1Be40ZsKUxWsRrLOpZEU2nHMNnKqIEPMVYpWaYepl4JfDDoSHdMHqdAdf5hVnuQx/lATj/Nn+VOi/8jTVcIpz1MblPU1Qq3xMbTt2As4+4pGJhul0TTUl9chNykBCMA8NKo2r3ubAUv+yOC8DuWa0wRMee26T1uR6tzwZZ6nN/YmBj0hH56iD6Nx+Gq9w05lCcntgRvdbeR1IB+Wp/RXAheBnvx4CO9VC76RgcOPOEGHhhR7oPTkzrC8W5l8CbP5IV+ArzOpVCg7GH8Fk8zdLXGjM02mPJfX9u02BdG1TvqIZLr6mIEoxzszqh9dQTiExNwdsLC9Gzy3zYcOd+wHq1lhhLgr+C5PcFl2Scn1kD1XpMgYEH3fsFu0a0gPLKO3z7irXD/N5dMebIS2FEShLcb26G+kQtOAv9y8NN/aE26yqiUnyxv58Sxu3kn1fQ081Q6TYctz2JXYt5i3UafbHOnI+Uk5z2om+3sXjom4I072cY27wMWs+/BP88vvBhgsvvk5vggg9Xod6M7lPEGbd4RLk/he7uw3ASL+cU+hqLG9D9HbBVsLeBdxdywkTHCToZ62qlRLzDlT0b8dBebAgScVa1BjmuHAZuz30Ifo6CCyHytT761SB/u1pP6NhQ5yoZD5a1Idcsg75Lb4E2r/sLOqI0ObdKG00cc6GGPQ6PZ/VGSZJXW3ELqd3Ax9PTUYduq27ntimJBmvQuhy5dvc98KKvM8m1XS/qYN6UKThu8YbrB/4EJrgUHpIouHw4NxYNmrbAuoe0oSXBet8INO07DzaceYvG47XD0WLkfohXC4nzMMOCEQNw0IWvmWHGK9Gj90I4RETDat8k4uBvxDvqrkTbYF73Nph7k7ZV4nuuHIphe59w5yDJAUvVVbD8shup7ck4NbYiZDpPgtHX/1+QnheKquDy6fJkyDVthpV3qWefAttDGmjaeybMuXg+DkabRqHZ0F0Z0y7jvaywZFQ/7Hbk/cooi3Xo1XMuXoZHwfbwNPTqvQZvaH8YZ4clPVtjJudkRZG6MAJDdt7nzkGqC1YQX3XxWVfyBNNxfpIMKnfUxBOP/3/dL+pruCR7GGLN2I4oJ2qLRTrnYfmWD2opXy4tQuMuc2GRsaxGGm4sqI+KLQfg2nuxk5KKa6sVoLSR75MDn6xCmyYNMe3sW27b7fI8tFAaiQdepD0F3YRGsx44YEMdzUQYrCI+5tTD8C+4d24Fym8LLsEvMFO5ElrNOQsvWkxf72CYQgvMv0njKsLrE+jcuj+OOIoLNhyPfqzPQ1Ww9MJbxIQbYGKL7thtQS+cDKN1/aA48SCCUtMQbn0KI0dPgoHwyByOj0H3kXvgS4o64O4CNJOtgSnkGnm1ZL8ruFA8jPagX/s6qNtyHA6efYqv4nAr7SuOTOyNrouuQ1yz0vysMKt9KchPOgoP4eV9upcZJo3qgJWPefHj4aqWqKagjmuu1MEOhN7U9mg34zTi0lLwWm8uenZdAjt6bqorVqu2wsTTfH3LD1IluLjoaaDDgoP4LgQkEWZb0WXMeDz7SreicHfF4GyCi+ft5ZCX7Yhxi5Zi8eLFWDJtABpV7Y9b/t9JgDwRAzQOk2InpDhhUa/mmHmH9MLx5pjQqTVUhk7nzlm8bAZ6NGgEzR1mJFCKw+FZbTD04Evu+oXFXxVcONLwzuAs1s/pi4okWJiva82PdvG6jQHtu2ONQaZo4X13EToMnYEXWeqT3wMtKIybjVfUiQmxxawJXbDWUJgVnRIF3aUdMPCIE9nwxYEhvTBlD9+Rpjrroq9SL5x0Lnjr+HcWzSVEv8W5HVoY1Ko26iovhik3NCcJZtvGZBdcYn2wY0objDjCiyscOdTndqQ+fxP0Jq4+a06AeUAaom0PYmC7CXjMFWMKbszqgC5aNzKH5v8hf0twoSR5W0F70xwoVquFDiP2wzWa3rQ/Tkztk11w8bHAtGHtsDzrei1+Npg9TgFaD/m6/mBLd3Tb8oD7P+Wz/kS0mb4ZgakpcD23CKrEeeLNYgB2DmqKoVnLuwD4fcElHieXdYL60Vf8TsKLIwPQdvFx4p4TYu0wr5cyNI68IF0eJRj6SwegWauBmL2M2J3FizBRrT1ad12Pj8l+ODSwB2Ydc+aOjLfeC5WuA3HjC3H+nA6gba3WGDF7GWevls0nAUWFTthvl4JUjwcYqa6EvRZ5X9WKCS6/T+6CyzWoN6f7OkLHQXCK4r/C7Po2bNq2ARtXL4YqFWRKd8EOQ16F8bk5nxNcOow7Aq6LyyABHwwOY9eeDdiwcTPGdZchx1XDsF25t+dfCS5IDsK5OfLkGhUx7pAZYqPeYn6TYhCVb471j6ihT8LNue24e1FaYcCfQwgxWIGaxUQo13wMrEgwc3NuD26UTmP1Wdi0idzbBpLmDkX9SuR3leyPa94Fb+eZ4FJ4SKLg8u7ceLSbsxviAZfRVrvRVUMDjzhFMIYEJcOyCS4+D9agsWwHaC7kfcalM9TRuGpfXPX6Bsu9U9Gf9Gd863wLrd7NMeU6aUgJNpjapQ26Dp6GRZzPOBO95OQxcpMRYol1Pz63LdT35GVNmf8vRVVw+XhpMtrP2gZvQV+IfXEQ3TVG4PZHuhUPw00jswkugQYb0bRme4yZL/SJswajiUwvXPwSDBvtmeg/ZJdgTz+SwKoZxuuTJ5r4CrO6toXywCn8M1w6C30ayWPYmsfceoanF7RHvx15WVPm7yMJi+Yi3Rt3D2/ExB4NULmRJq478aNdvl5cyAku5hmCSxL0Vyig+5r7WaY7p+LGOiWoCH5fwKNl6DRxIZwElyTlnT7UR/eFnjNxnANvYkzrgdAT1te12aKGtuP3IuNdaBHj90e4mGDi2K7YYSEsHJsQjH3z2mHECRpXEZyp4NIPR8S+RZQVZv5Ynxs3woj1TxAQ9AxT2/WH7mu+xF/tHIi24/YglMSZLw9NgLxcT0zXWsK1nVkjuqJpk4kwp9rW3XloP2wuH+flkT8RXCgJnuY4uGkWOsrUQqfR2njHjdDxwZEJvaC86Fqm4PL1OSYN6YA1jzMdm3Rvc0zTVCTxKx+s3tmkgu7bM/0XtwuaaDtzB76nJcP55DyoqW4Q4jcfbB3YDCN0eX87P0id4NJ+1g74CApWiOEGdBkzCUacwhKJO8t5wYXX/NLw8exMVG3UB2t0z0BPTw+nz13GfUM70DU8Pe6vg1JNefQdqQnNYT2hNvsUPKjK4HcPA9q1Qr+Fe3CanKOndxZXbj+Ci28kN81j//wOGHlKqOSFxN8XXMREwWiXJlo2VMcDah99qeDSg1RYQUUleN9ZhI6TFsExy2jBbILLt1d8wPxACKIzHCD6DNNguH4gGjdQxChNTairqWHW7ucI+Qtq9F8TXAQS/J5iQvt6GEE6YfouzGrHGDQduA0fxL1GjA92zO6AMWffCBmEHOpzW1KfvQUbKq7PZtRmfDPE9BZV0LbPGGhqDkD7wVowfheepVP6M/6m4CImxFkPfes0wKLb1EX9hpOC4CI2RZxBHNcZa58GCzmEHwSXh1tUoLT2Wsab8LfnxqHt9C3wIx1AhL0uBtStTRxd0obH9ITy2D14F1iwPe2fCC6nlnZAv/1m/E6C2f5+6LD0FDdiADGvMK8XHeEiLPxFHJQTM1RQv9cMHD5zmrNX5/Wvw8ThC+KI0/5Yqxfk5ZWhQdpNf9UBWKRthXBSKFEG61BXrjPmH+BtnN6Zi7j1yBLexEYmf7iN4WN6Q/tF3ld3Z4LL75Ob4BLz6gi616L7huL+t1TEeZlhQ7/mqFaC5mVJFZSxUxBcvG/M4/I6jjuSERCmxbjj3LxuaFThh/NEtTFi928KLqR1vbmqhfpkn8yI3Ximvx5Ni5Pj2k6BGafVxeCGILgoLn1AXGSegPvLUJMcV7xxbzwhwcyFWUo/3JM4FUMlWU08CBSfWXAwwaXwkFTBpe30zRB/LC/UZBuUNcbiCdegovFwDS+4cIMQCR6X5qGafE+sOibY07OXcfeZLYKIrfV6vBkqteTQewTpb4b3RJ8ZuvhC20fgYwzp2Ap95+3C6dOCz3jrIZzp+i9J4TiysCOG6v7/F8r/L4qy4NJu6jq4CdFVuPkeqIwejXuf6VYcnm0ciWZDdoHbJPhcWwxZue5YfkT8DC/hjsFLBCSnw8doB3rUaoBew8kzHNETvaYehTud4hViiJGKrdBz9vaMZ6h/6wGcvoYhLSUaxxd3gvoRG+Ev/H+RCMFFTIQDVvRvgu7TT3Mv2vwuC4KL0B45wWVNF/TaxU8f4vlRcNFCp7GzYe3Le7/xzucwYJQaTr+mr6reYX232misNJT4ycPRSW06Lpv7CS+xih6/L7iYYtKYLthgKHjPNL6Y1R4aesKIbqfj/AgXB2G5g8CnOdZnZ69wJKe6YWvPumjUeQgps5FQVJ2C8+YBJLaIhcGGQZDtqIHdgg969uJVPLV+y72A975F7meKFl7nTUvg+FPBRUyQ/XH0qtkAy+7TuCAQRwXBRfzyNs3TCJPGKmHTc3HOz4LL3U3d0HXD7YwYykVvNNrP2gkafYS+0IZqnbpQGULsgkZPdJuwH25B+Q9M/w3BhdMDEmC8czJURx3OGH7tY7AWXVoPxOOsS26k0OL+jidbl2Pc+I24oH8Zl6/cgflnYURG7CssUm6MaafFg6J50pNJhPfD/RQWf09wIY5/dCQis/jBMTYbodRYGRfpz483w6zOatj+LFNd8aKCy/gFsM/isOdJcNGlhsETBzWnYu7GI7hy+TKu3jGC67e/YxoLXHBJjsW3bKtOBePwMDmoLr1Hah7w+uQ89O6/LaPTR4x3doNIyYvgojkFlgEpCLM+jXE9ZuDYdX1cvnwVd19+4gPzAuJvCC7pCVH4FpX1eTphkUItTDpOdeN43NYahSGzLmd8RSzd24wziKufZK1MeRBcZm5DUFI83pzbgTGDtXD2CmnD+jfwzJWfhlSQ/BXBhY7HTHPD9kGqmH1E7IhH4P6qPug8fC/XAWSQSIKb5LfYNXwyFu7QgT5tN/dM8CGMH9QZ7XQMvZt3hl5GxSMQE0e/LCO+H34R37zBBJffJ1NwaY2tT7J8ljbVD1dX9EcpkQjlR5xCdEosLA4M48SImoPXwOqzFzzfPMP8zuTckp0zRrh4XZ3NHdNh7GGIa3bQk7Xcl4ZETQfgjKUXvDw+QHtcLXKcDIYKU85+xa8FF/LcP97DWDrCpmw/jB7cAMXLl0LXhfeIC0bhBZdi5Nz2c65mrPXleGQgtwhv5bbz8DopEU+WqnLTjjrMPQWXj1/g5UXuz/MLPrxxgK2TF2IETyeNBAoRYWFISBG36t+HCS6Fh1QJLpx7lwTzfdPQd+j+jFHRAc83c+tg3cv020n7TScmNQyGu1ZhrOZ6XKD9zZXbMP0oHBTviGUqjTGR6+cySU8m5fTD/RRlJE5w+UQNSgpsDs9Cn0G7MkTpELMd6NqiN25keSmINPoMI2Cyfy3Gjl6D89wzvAUTNyEwSnLByp5NMPZwlhdkBO4Ziu9HWMT3/02RFlxS4xEaEUMiCzHJuLe4ExRH7AX1xL8bbkWfzvNgnTHFOQn6qzujZ5aRB3kTXPrhrAsJXLweYFq3Sdh97Qrxk6/gppkLwnnXqEjy1wQX75vQaDcIp7ip94TkX9XnNMS538OMbhOx6wqNLfRx08QZoVyZJePlYU106L4Q2T7InZTKiRTi+3HK5qDmzu8KLmk0lojO6h+8wtz2NTFNj45ji8a1hcMxbP51frQ4Ic3TMHv5EPIkuMzejdDUODie2oIxw1bgnBBLGL79wUHKI5ItuMT6Y+skEtQe4jsrp2MDITd+PbyEADXosRaaq4/AEw9ahGl4fXY2lNur4cgjU7z1iUBSyAusUVfAwHlHYGpqCpMn57Bt+gV8SY6A2d6paF6fBETDhmHYsKHoozYAW+58QmxaCjHK46HQbTxOG5iS8x7hyOK9uG7gjtS0UOzIcj+FxV8TXNIjYHl5F8av0eHKx9T0GTaM6YzBU3XATVVNeovNanJQm3cKz184ciNRfG7MQKOhU/EyS2zrc2sumgyZABvaEINtMGFIE8y9JQgd8cHYPVUevQ46kg0/aA/vjmbtemAILfehA9Bj5Axcc/he4Ip0gQsuPsZYsmQNDtx4wpXV41OrMaB9bxwy9uUasMedlejeWhl77prC5WsoUqL9sXGCHAYeyyLO5VCfG5D6/FUYBcjV50GjYErKNsFJBz0rN0K3wbR+DsOQ3l0wfuc9fCugPvZvCC7xb25i0rxNuPDUhCujqzsno3dnTVz/TG86GRZ7R6JzF02cMTTFx+AEpHmZYsygplgkrNfC4WPB15/bvGB3e3VbtFhyMUNwcTkxBA3GrkNgSho+Xl2JtjVaog/Xhoehf9+eWHzaFuKPARUE+RJc3uij74AO2GVFw9Q4HJktD+VtRvxOgtE2ZcjPPoJIzhsJxNlpHdF1+HrcNbeBF/ESAiyPYVAnJSw+co8rv5u6h7F/83PSvXzFvn5d0KJTb6Hd9EcPjXm4/y6c2KRPODSxK3qM2wJDrg3rY8fko7ALSUPKx2tQJfez0zyr4pw7THD5fTI/Cy2PmQfvwcXFBS6vLXB4TldeJKmogN2WtCNPwLOt/Tgxpd2UNbB3d4fjzbVoVowcU6ZLxggXvwfLOZGmRqvBuPLUBa+/BsHjnpawuO4A3HD+Anc74nzWKkauVQ3DfnuECyHJG7rzFFFaVBzFiotQunp7HH8jdpujcWO+AsrT31BOHoMOPsdrl1uY1qEq9xuUlz/j2qfbtaVoRI+R6QOdOzb48uULvryxwqmVo9B+xTV+gdy0cNxdPBr1qlbFiKNPIP441+/CBJfCQyIEF7G/sY8P1t+cGIoGmqvwSTCB35+tRauBg3GfC9bT8fbSAnRtS/rxh6Z44x2OpFA7bBiqiP6zD3E22PTZeWyffg6fEiJgrT0LLeq1y/AZ+6r1w8Yb7xFDfA1z7clQUNbEycfUBj/B0SV7cOWBG7HPUdiX5X6KMkVHcAnDgemNoCLYs/enR6Lh6KV4J7wTDXu+GW0HEPv3gTcebteXoFub7th/n/e9ksKdsHVEZ6jO2M8/w+cXyDM8A7eYcNjqzEWrOm2hJvgMqqqqWHvFFTGp6bA+Nh0KXUZDl9QF+gx1lu3B5TvvkJIeD216P7syX578PynSgkuYA7avWYX1p29zZW989SBGdVLA6gv8F/Ai7HQxsEUzrDhvCns3XySkJePC4mbosI4XV3hScXlpC7RdfYvb8rszF40HT4C5Nx8qx9mfQLd+SjjulASE3MWI2o3Qud9Q7nkO698NQ5afwuewPxfz/wb5EVy+6E+C3PDZcKa2y9cQI9SbQ+uxoCJGe2H9+CzxRagVFnaphxEbb8LS4S1Ck1NgdXRa9vqstRdX7n1AfOQTaNZtBEW1IXyZDVDBoGW6+EI66Di3m5jQtRMmbdXnnt/Dy7rYuegmN4jBS7ifPH2mWuB3BZfY19cxaf5mXHpG790Ul7eNR68u43H7C33pnQiTHUPQuetEnDcyxScSmKZ6PMPIrOVDSP/6HBokvljMTdcArq9sg9ZaVzMEF6djAyA3YTO+p6bh7fllaFOrNfoKdqGfam9onbdHtvfHeUCyBZfEcDw8vQoHjPgBn14m2lh16m7GZ4YjXW5gvbYO3gTzRZga8gYnV2tg1MhR2P/QjWvgKf422DtjJEaNGoVRo7Vw/0MMuW4Yrm+ajyWbHiM0PR3p6Wn4dHcJuhLHlluXCzEw0Z6P0eQ6o0ZpYPNZC0TQP5Gc/X4Ki785pSg9+iuu757Blw9J03c+yhimRfE03I2po0dBY+46vAgjJeN0HquPneWH0gqEOlzC2iN6cKfCQZQ79I6sxSUHoXdMjsKTs6ux96kn0iNcsW3sdGjfdUMiLXc6pHdVLyirb8H7Ap5zWfBTitIR8uIMZk7g69JIzRW46pBFTY34gsub+Lq349ZrxJGG94jUFW2TLKsv5FCfV5L6/E347Xx91sV7Yvg8jfdj8ui9eJ9A62c6qcd3oNm0CdY8KJhA+G8ILrSMPj7ajTFcuyFlNG0X6SQzH2yitxX2LxrN7Ttp/R2pYV9witSVK05ZK9NHof7weQ63NmH9NZuMNyY+Zkew8sQdhKfEwPzkKsycdxEBXBsmz8d2L/o2VsIJ8aqzBUB+OowU35fYf2gLnnyibxmSYHxxNXY+ynxX8O7RTqy+aIx44ceEOl3G8omkPDRn4M47/p69zU5iwSi+jk1bcgxvotORFmaH9aOm4/gzTyRz7SYcNxYoo9vIA/CifkX0e5xcLNi4UXNw8SUvVqX78ffz2C3vjhkTXH6f9O/OWKlCBZcfUpmKaNNFA1v17SB+EoFONzChJf8VIi6VkkHD6qXJ/5ti3QP+XW3iN0usbc5/GppLIw7Cw98BB9RacaILn18KjepUIf+WRu8NmeJeToQ90uLPkVfDoxwGgwUa7YZyFf66NVR2CVNzKdG4Ma8jyohKoKpcSzSmC+wKf7929zF47C6oJqlfcWXVWLSWLZ6xn6biTdpj8DFT/rcne2LvILpejAiyc84g8g/9Yia4FB4SIbhk+Bv8kD9fs6Okv7gF7mNvhOi3d7BB+wicAvk6m0a/PLSW77d333vLvfhJDbbFgVlie7oEd1xJxJMUjjvbFmLh2gf4JvQ3Ho9WoltzEvhz3Xk8zI4uEvo+DWw4ZYow6jOmZr+fokyREVxSYmF4fjV2P+FHDPlb6mLl8WvwF0a2x75/gE2HDsHOn6+H6WEfcX5Dpu9FB2ynf3OA9hzxM1yIG6+JP5oUgfu7F2P+ytsI4Z4h8cGerUP3Zn1x5TN9WImw1F0KTcF/WadrhO80Oy37/fy/KepTiuLe38eKmULZj5yNI0+zzBZICoPBofEYTfYtP26A78T+291Yhy13sq6XkYYX19Zj0y1eTAh3vIQ1JL5wE77ulfTVDLsO7oApcX7C3S5g6sDVsP6WyrVJxNtiiUJDTDnmkhFYFyXyI7gEvzyNVccu8msXhb2FjvZ63HARxnQkfMfdU9njC9dbqzCGlOvklQfwmhOYf6zPz0m8S+KM9+cxbcBKmAcl82WW6IDlXRpiwkEnrsxCX9/CqnH88xs3bTusg/h2FiLcj2feB0z/tuBCRbcP93dw9YTex8gZe2DtmzEsCgmkDuxZwMcSei/DkUrihuNHspQPIf3be5w4vBZXnfk8u5sbsfGGbUa98DI5hFWn7iEqJRrGR1dgzqIrCOTsQjoCrHaidxMVnHbNn4Mi2YLL3+L7S8zt3QbDj2Y2cqcT49GixTgY0O+sFjEKbw2Xv0uasy6U2nXHnpfiFbMicHZKR7QffgCccFmA/O01XP4usbi1tBuaaJ7ImH6T/EEXPeu0xSbjvDXk/+LvCC6FSNwXbB/VFl1XZ8799SEBZdsGqrjgVnCTr36/wyg4kl7uR8d2fXHMRfy7QnBsdFsojjsOn4L7qRxMcPkDUiNh/1AX27dvw9atW7FlyxZsIf/Xvv8UX3Mozu/vn+HwLnrcdhy/ZQgH4+vYvuM0rD3E9hGIeX0Ph7fR622BnuF7XngMdcWloySPXH/H6dtwefEU23cfwXXrTIkkJxI9LbBn+3bsO30LnuKvh2UlxAyTlStyYsiQE/yn63licXMeXcOlFLpqXYOz5SXs2bIV27adJk7vjxeKwWfz69AT/37iL1x/78dNu+RJh/eze9hP7uOhq+cfO8VMcCk8JEJw+VuEOWCRamsMOpC5Fsubs5PRouloPPAXBEcJp8gILn+LiNdYPqAN+u/OXIvlw+UZaNV4OO76SE6dlqg1XP4ydgeGon6ftZkfq/j+GBqNGmHGubcSL7j8LV4fGYX6PVcIH5sghBliXBN5TDnpnPFis6AoCv7zfxL7EZuGtUWPDSZCBuB5dxHaNBwA/S9Uvs07THDJieQI2J5aiB4KHTFEQwMaGkPQo7M6dhl+zHgDWZSQFsEFUV64qtUXHZX6kjIn5T6kO3oNnIMb70MKvKFLtuCShoAX+pjUvR66j6D1UwOq7ZQw/dDTAvvcncQLLmlx+HBnBwYqtkB/rg2PRK8OvbDqunOGSFUQFIUOIy38C84v7I72yv34dqPeDb2HLsb9T6HcKL6ChAku/y5x7y5hcNNyEIka4eCLrNPQojMWzVVYnPVrEv9/mOBSePzTgktyJOzPLEMvhfYYzPU3Q9FTcQC2G3yAMPBC4pF6wSUlCs4XV6KvQjuoc89wGHoq9MOWh++IhZMcmOCSScRHEyztL4dOA3k/eUgXRYxecwEfI4qmjSoKgkukuwVWqMujY//RXJkNVVbEyBVn8P4vTMOSCMElLRZvb2xGf8VWGMDZBRJLdOqDtbfeZKwRk1f+1979vMRxhgEcD/RPUK9CQTBWCr16SahaL5VeBD17WArWW6Eq6KVa1JM3z4XeevDkQdcmqW1aSBMNSX9QqMY0WurB6vojqUXwad5xiFs6Tt7ZrG/2eeb7gQecDAn47o+Z/e7uhOByoUNZu3dLiouLsrhYlO8fbFb9xUu1mAkuzrNNWf32q+dr/nzdizfkx98v51CnO7ic+WvtttyI7p+LsrT8MPODP4364BI5kc2Hy7IUr9HynbWqXljYqZkDxuFjubu8FD9ubsrPW5dzskVwqUypVJLu7u7omgAq591r8s6b7qtJ7mtA9fJ22/Wy/dekue7sa0JvNFyV6+V/7xWnUCjEK1gZgks4uQ4ukaeyvnp+zvjd/SdVf6PodTIfXCJ/y8b9r1/chrdXH7+4PpwWBJf/erp1T24tnZ0DFm/+INvZPpQQVC0EF+fZHyvna3bjjvx5/hHUqlIRXCL/yJMH568lvrm7Hn01MSuCiwGmgksgFoLLZbIRXC6fngNGdRBcKuNehLr/lWd9fV3n/Losn334nlx9q1U++vRL+e3Ro7L9P8nnH78vra2t8sEnX8gv5X/vFWdrK+FiMhkQXMIhuNiWj+CiH8FFr1oJLqHk7fyZ4GIAwSU7gks6gosfgot9fKVIL4JLOAQX2wguOhBc9CK42EZwMYDgkh3BJR3BxQ/BxT6Ci14El3AILrYRXHQguOhFcLGN4GIAwSU7gks6gosfgot9BBe9CC7hEFxsI7joQHDRi+BiG8HFAIJLdgSXdAQXPwQX+wguehFcwiG42EZw0YHgohfBxTaCiwEEl+wILukILn4ILvYRXPQiuIRDcLGN4KIDwUUvgottBBcDCC7ZEVzSEVz8EFzsI7joRXAJh+BiG8FFB4KLXgQX2wguBhBcsiO4pCO4+CG42Edw0YvgEg7BxTaCiw4EF70ILrYRXAwguGRHcElHcPFDcLGP4KIXwSUcgottBBcdCC56EVxsI7gYQHDJjuCSjuDih+BiH8FFL4JLOAQX2wguOhBc9CK42EZwMYDgkh3BJR3BxQ/BxT6Ci14El3AILrYRXHQguOhFcLGN4GIAwSU7gks6gosfgot9BBe9CC7hEFxsI7joQHDRi+BiG8HFAIJLdgSXdAQXPwQX+wguehFcwiG42EZw0YHgohfBxTaCiwEEl+wILukILn4ILvYRXPQiuIRDcLGN4KIDwUUvgottBBcDCC7ZEVzSEVz8EFzsI7joRXAJh+BiG8FFB4KLXgQX2wguBhBcsiO4pCO4+CG42Edw0YvgEg7BxTaCiw4EF70ILrZVPbjMzs7GWwipo6MjujHhr7OzUw4ODuItlOvt7ZWVlZV4Cxdxa+TWKk/cc02eXlT19/dLsViMt6DJ/Py8FAqFeAuX6fDwULq6uuItWDM3NycDAwPxFmqVezPRndtCn4mJCZmZmYm37Mvj+XN7e7v3G5ZX9vf3JWncpywGBwejf2x6epoJOK6I1tXVycjISOJ+5v8zNTUl9fX1MjQ0lLg/79PY2Bi90Ezax5yPWyO3Vkn7LI47IXDPNaOjo4n7LU5TU5P09fUl7mNqe3p6eqS5uTlxH1PdccfShoYGmZycTNzP6B73TnRLS0viPqZ2ZmxsLDq3HR8fT9zP1O60tbVFn4BI2mdx8nj+7H7fjY2N6A2KpJZSPld2d3claVxwWVhYkOHh4ejAy4QdF1tY+2zj1izpzxnuT77j1ihv96M8/r48FnSOu9247cINx1S7k8djncbhdtI7eTte5fG+6qKL+4SLCypJLaV8Ur9SdHx8HP+E0E5OTuKf4Is1u5j7WCr85G2t8va4OT09jX+CRtx+4XBMBV4/HofQIm/nz+7DKb5Sg4srMq7aICx3Qrm9vc3F6jJya8aBKZkrsFwT6OXcGuXpArJ5fK5xFyHkAoQ6HR0dRbcfLp87lrrnBtjkHks7OzvxFmqVewHrHoeEZn329vakVCrFW/Zx/pyO4FKDCC6VcWtGcElGcPHDAcM+goteBJdwCC62EVx0ILjoRXCxjeBiAMGlMm7NCC7JCC5+OGDYR3DRi+ASDsHFNoKLDgQXvQguthFcDCC4VMatGcElGcHFDwcM+wguehFcwiG42EZw0YHgohfBxTaCiwEEl8q4NSO4JCO4+OGAYR/BRS+CSzgEF9sILjoQXPQiuNhGcDGA4FIZt2YEl2QEFz8cMOwjuOhFcAmH4GIbwUUHgoteBBfbsp0/i/wLWdeUfsRbFLcAAAAASUVORK5CYII=;" parent="4" vertex="1">
                    <mxGeometry y="100" width="1116" height="119" as="geometry"/>
                </mxCell>
                <mxCell id="7" value="" style="group" parent="1" vertex="1" connectable="0">
                    <mxGeometry x="400" width="1070" height="670" as="geometry"/>
                </mxCell>
                <mxCell id="5" value="" style="shape=image;verticalLabelPosition=bottom;labelBackgroundColor=default;verticalAlign=top;aspect=fixed;imageAspect=0;image=data:image/png,iVBORw0KGgoAAAANSUhEUgAABLsAAAJOCAYAAABfiQVrAAAAAXNSR0IArs4c6QAAAARnQU1BAACxjwv8YQUAAAAJcEhZcwAAEnQAABJ0Ad5mH3gAAABjaVRYdFNuaXBNZXRhZGF0YQAAAAAAeyJjbGlwUG9pbnRzIjpbeyJ4IjowLCJ5IjowfSx7IngiOjEyMTEsInkiOjB9LHsieCI6MTIxMSwieSI6NTkwfSx7IngiOjAsInkiOjU5MH1dfYPxasAAAP4HSURBVHhe7N09euK6//j9T+6N/L4FTJErK3BWANOkSjsdlKGZLmW6aaAM3bSp0gysIKwgV4pAcf4r4daTbdmWjQEDBt6vc3lOQmzZlm1JyHq4+e+//9YCAAAAAAAAXICbteJ+3tv/+3//T/7v//7P/QYAAC4FeXxziEsAAHDtDl0e+v/c/wEAAAAAAICzR2UXAAAAAAAALgaVXQAAAAAAALgYVHYBAAAAAADgYlDZBQAAAAAAgItBZRcAAAAAAAAuBpVdAAAAAAAAuBhUdgFnajUZys3NjVnuJyv36eVazdPzHc7rna+/zTXEEQAAOC/HLM9dW9lRo/wIXC8qu4AD8jPLm+HcfepbyXzo/l66ji6c3CfrxBn18mtq/q8tvpbup1NYyeTeO4dNS8k5bvT96X4Q+fx2P2zibQMAAM7QfCL3ofKEXu7v5X44kfnqfCskjlmea0/ZUaP8COCwqOwCDqjTvZXI/SzTdylm00t5T8sdJeus5N/bwv0cyW23Y37q3g7M/7Xotut+AgAAuCRfEpeCChYLWUxH0u925eZ+okpM56fR8tzKqxgczgvxQdkRwDWhsgs4pM4PuXM/inzKd77UMX8Xv64ruI4s5Ssp5d3JD1vXJZ2nV1mv12b5eHIfnkRHnj7sccTLcpxU8Uk0Xmb+tn7tub8AAABsYTDLlCmWs7EM4iLHYiTdM6zwOlh5LtCMqT1lR43yI4DDorILOKiePCQv0Rby9i9bBFsVmkkX11ErSbLW4EGFCAAAgE7vSV4/ZpIWtUbyizGWAAAKlV3AgXVv07dU+fERlmmTrUR+ndW/t6T5/uAhreoqGzwzHd9raLpE6vX8sS702BZlxUCzbmb8BD0WxlwONRTGajWXoR5vwzu+ZJ9unTL5Y72/V+e75XEe+3wBAEDTevI6S7vnLd7+FcoQ2+T3q/nElE0K67q/+wrhqu2GfmWb+nscxkTtbD6Mw1W/u3ErdBjx9hvLcxXlHjMGbHeUdvnULd1y4ZbtK1Y8d7WYcyqe/z7lzX1RfgRQy7pB//33n/sJQGI5XkfqUdOPm0Tj9dJ9vF7P1qpoZj8fDNKfZaD+klLlN/d5tB6nG6tgI/e5rCPvD+nn0TqK4m3zS3YfaitvP6Elv361smPz+euEl+w+N6+vl3px1PT5AteAPL45xCWwhdkgzZ8HZbmzV6bK5OHb5feVZY3MvpfrcWkZS9bJqsmxF8tk8TplZZX0c1VGHJQdV1ruqTrPONzycpHevuLc9ZIpw/phbVPerFZ1fDF/nfBC+RE4F4cuD9GyCzg0f9yuxZskvRS97omDh1evu+NU3pNR6ufpAPbRo/zcaniFhR63VZVNZqKyaVkvZ+m4Fpl9qEOZ/JK+20+yvlqWKke3ptIfehs0JRrIeLZM9qcKEZIO15A9xoJBfJz+NgsZ/dl8nCc7XwAAcABdSRvSp+Ofbpffz+XPyLWLisZp2WS5lJkqQCXBKzrceFW97mwZr+uXtXy2TLabqUynauMN5Z7eq97/OD1O7xw2js81H6p4is99kDmfZF+lXUTrlzcbQ/kRQA1UdgEHlx23K+6lmHZP1DMsZrs7fialNG+8rrsfsu1QotF4qQo4Pbtdpye/HwP7EH+2x4E8x+srnd7vtCAQnClyd52nD1l/vMpTr+OdV0d+Bo8xRxfgXuPj7MjTX69wt/E4T3O+AADgmPbL75dxEaTTkd7rh3wkA6RnZ8ke/30SVZSxVFnr9WMtZWOp63JZXDmz1Xjre5V7NlnJ5CV5s6rO5zVzPv6+FqM/wX3VK282g/IjgLqo7AKOoJfWdqk80GaByXhdrsVW5+djWphw402Ujde1q86PdG7IdGwwf7bHqfST8Qf00k3fXB6AHnNhMrzPjHvQrbHD6PGnV8BRNs16mXG68wUAAMeybX7vvZxcjKTfteM5TQoDOoVnyd5oMPNaWNXdyNqv3LPJhvPZYV/h8mZzKD8CqIPKLuAYurfpm6PPb1mJ1z0xbrGV6e74pbJUla0muepAGqjrCvNbjx2RHti02+3LaLpP0/6Y331hgxOdLwAAOJRAhc0O+X3vdSljrx/iYjGVUb8rN7rSK64I8cONblUJ5BS2KPdssvF8GtxXAyg/AqiLyi7gGDo/JWldrSuy5mmGmbbY8rs76vEG/PG6jlSY8sZ3KC6v6gib4o2LoZvMz+Jm/WtZpgMobMEv5G7haOcLAAAOZv6uSk5OqMxUO7/vyNPrhx2nazyQKCm7TWXUtbMOZriXk8e3Y7knJPCyNWtDy6+jovwIoD4qu4Cj6EjaonsqLy/Z8bpifnfHz/f3pEKs0Oy6SZlCjjeA/iH5b8cGz2bchW0UmsRn3rZtKIid4nwBAMCBzGUYjxquDJ6fAi3mt8zv9ThdT6/y8aFbernPVEnDdHPzw40/O7C9yj0bhQf3T2xs+XVElB8BbIHKLuBI/IqsRdzuOj/DotfdcTGdJhVij9tNw7il7AD6o18T8Yen0OMiDO/v5T44A8+O/AKDHsjTBb2aT+RXnUEPpn25H87NuGZqI5n8GiVjm0Xj3xveqJ3gfAEAQON0uWF43/dadY3ld1II2DK/X03k/uZehmqlZLXVUr7S2hCnGG66vh1LqvEJ+VS556ZOuSdTIfOVDLKfHF+QP7h7Lp7y+zrky9c6KD8C2AKVXcCx9B4kySNj+RkW/e6OicM3Ge+9etNEu0FZkwE/u6oQuf+gCDl+gWGa7K/bTwsd5SLTrWChCixdfYx63IZkIz07zubIOv75AgCAvelKH5dfx+WGqcuyo8FYlh+uVZezfX6/ULvo2vKFXsw69i/R+K/ERYx8uP76eiypg6hV7gmXr35tqIDpPP1NZxP048nbV5QZYP9UKD8CqI/KLuBounKbqe2KAjMsduRHrrYrGj+E3zR5M93sIrp1Pxh6quzc+BROFA3MmAi7FnDufrgfcvQgsGZ/7ndN72u2VAUJ93vYnTzHx+o+0UwhNz9OQmkcHe58AQBAk7xJfvJUJq7z/9lyLR+v2Youa4v8vvMkf2djGeRWDJcLXLgDtX/3iaG2HYxnXuuyVLbc5alRnovGS1nO8uWeWbHco+QH2VdrqrKYO/bSfXXkSZ2P2UdZPL0GS6MblZ73BpQfAezrZq1H0mvI//t//0/+7//+z/0GAAAuBXl8c4hLAJuYWQdd0yNd2UUlCoBLc+jyEC27AAAAAAAAcDGo7AIAAAAAAMDFoBsjcEB6wEqctwaTSOCskcc3h7gE6qEchXNF+RHYjG6MAAAAAAAAQE207AIAABuRxzeHuAQAANfu0OWhxiq7aGYMAMBlo1vG/igvAQAAWIcsW978999/jYT+v//9z/0EAAAukSozuJ+wK8pLAAAA1iHLlo237OKtbzOIzxRxcVjE7/EQ19WIn/bi2jSHuGwG8Xg6xH27cD3OG9fvcIjbdjvG9WGAegAAAAAAAFwMKrsAAAAAAABwMajsAgAAAAAAwMWgsgtnaiWT+xvT1ze43N/LcLJy616G1Xwiw/uhzN3vh3V98QsAAHZFuQwA0C5UduEyLRYyHXXl/lIKVvOhdPsjmS7c76d2afELAAAOh3IZAODIqOzC2YvGSzOLQ7osZRzZvy3e/gnVMfshfgEAQF2UGwAAbUBlFy5QR34+xqWqL1nan5SVzCdDuU+a1Yeb1K/8dXTz9PnQrR83VZ/L0P196LddL6yn1djnSoWXafqfXWc+VJ/1p+63qfT1OpkdH9se8bvhXLNxO5fJ/X2y7r065/zVsl0IvPDU9ZrMy8JbyWTohXc/kcyqG49Nq3cPAQCAGOUyAMAJrBuig2owuKtHfKbCcbFcjyP7eTReus9i6d8kGqvfrNnAfZZb/O2X4yi4jl0G65lZa7YeuM8G9gNrNsitV2efaVj5JQ47GEZmx/uJw8w6RPxuPteqdczin3cS38WldnjJ8dc5Nr3L8DrFOAqL10cY8dNeXJvmEJfNIB5PJxz3lMtOJT4GnCeu3+EQt+12jOtDyy6cvcWo671900tXRmYMhUjGf5+ko39cTeTFvIRTny1ds/rlWP2mt/+TvBn8YzdU5aKZqGKPWmeWNL3fWp19zt/FvhuM11mKKkQZ05eJacnUe1Wfxx/KQFRxStavPff74TUWvzXONSMayyy3nlpR7MvVuQzjt6rxtfLD6/tvcZ1QePEb5jrHVuseAgDgulEuAwC0AZVduECRDMaqULT8kCdTolLlm39vYotLCxl1XeGrO3KfTeVdl3D8As7vni2MdXry9BwXaLZTa5/dW1PIsuvcy/3wn3w/LG2B7sMVCFtnx/jd8lwHz0/SsxdBFSxnqjipLeRL106FrlVmPbdPTya8h9w1rXFstc4RAADkUC4DABwflV04e1E8EKp7O6cLKNO3d1nuXCK5kx/HKs10nuTvbJAc92I6klG/K11VANNjVLVBY/G71blGctt1P+Z8fvttwMqvVXa9Dc7gOgAAcA4olwEA2oDKLlwOVUD5iAtWi6n0Q4WSaGzfzuWWbOvzT9mmnmSjDfvs9F7lQ3+2XMpsNpZB5IpYSZe9lmggfuufq2vBFXCXKfGWX6vsepvVPrZa9xAAAFeOchkA4ISo7MJl0W/k4sEcpv1kVp7Oz0dX2BrJH1dSWU3imfnc+E69h6Sr3OiPm/lPz8iTzLhTNH331rMDQSTq7NP/faK71/We5PX5zm7XRnvE77bnasbdspEr88lL0pXBtPgKXSu93rDv1hvIwxaVT3WOrdY9BAAAUpTLAACnsm6IDqoYXNXMLN5sJjVmZsksg1nN9QYVM7FF60iFUzyqdoiPE7vcW/5MOtvMwKNCrTXrjzerUHBpZtYf/7lQAWX/1uCsP3GYWYeI3zrnWrGOXrzzrrpW6WppeJkoK8zQVO861LmHqsTrl1mOB2tVoE7DjdTxBYJezsbrgf6b+30b+2x7aJviB6fDtWlOOC4pL20rPj4cXzjuKZedSnwMWRviJIrWg5plFxxWfE3KXHvZcB+b4handYzrc8Utu3Q//L507wOzwOHM9eRVlWastNl871XPqBN5b+f0gKlL+YhHS1U6Tx+iMpVknWgwlmUSVqwjTx96NiAvpOB6dfapjnW9lLFax2fC8wdC7f024fhOd9/uGr81z9UZzPx1bVj+bEfmWpnuBe4DLRrIWG23fZfCesdW5x7alX6b3B1NVcqUWuhuH91cq7H5ULr9kUz9FevaZ1sAV4ryEvZFuax1FguZjrpy71q4oZ0oGwJ7cpVee9NBFYPb/k1lRqH1RYnS9Upadai9zZI3RdG6jS827LFRE62dPC7q3odnql33WtkzexnK4zo976QFxdL7zE+k9rkfW34v22Mj3Wsjrk1zwnFJeWlb9pi4J0/h5HF/4eWybYWvR1Wa4rX6KktTcDTh66dRNtyXPS/yibY6xvW50pZdHek9PSfjAJQNhA0AR3fbtW+OOz15sImULN7+mTfG8+GN3CRjlUylr8cViQdAUWvMh/FYI3a5H6YtMcq3ncvQrZ8Epc2HLhzv7aEeA+XermuXexnyVhi4YJSXgMvTkZ+PrlXa4kvSx1qPkTqU+6o8fmM5wC9TzGVyn5ZL9GyW+RLDaj7Jhnc/lIkdsNXxw1vJxCvn3N9P3NiuTq0ySo1zbCPKhsBOrrSySyd0uQGvAeBkunIblzt1twJV2JuvVtJ7dbNEBbp55s2HXenn2qDrKdOb63qkCjPdfq6Zu+0GkSkIAbgglJeAy7OSf28uM49uVQnEMuWITJe5fFfH7coB035fRgsvNN0d2l8x1H1uMZVRvyy8roy8lReLkfR/xWWcese2+RzbhLIhsDfTvqsBOqhicBsGR4yXIzTLL11a2lcqPj4QF4dG/B5PZVwvx5kBSO0SrQf5UUhD6V2ybdrNaDaIux556wXTypLuS/l1k9/jfSzVR3a7prpB2PC5F9uIa9OccFxSXtpWfFw4PuK+XcLXo06a4nVNDpQj0s+2KQd4aYn6zBZhvPWSbb314i56mfXiNGpTeFscW51zPAF73CXPU3J8/nJdZcN92GMjrWqrY1yf6x2gPtIDUs5kuf1I1gDQvM6TfKzzA+cuzJvMtDl6CbPtWtbLv/JjOZHh8L7wJm9v3Vt3XAsZde/lfvhPvh+Wogoytd4uAjhTlJeAC+Oe6eWHxOPyr/69udZOOo933dG6I/fZVN51MWTLcsDg+Ul65sOO9F5n2e7Q8/ekxej4d89t66/n9unJhBf35YvVOLZa59g2lA2BvRytsivSM6npG99bZrl06pAGs+y+1x8f8voUJ64A0Aa6oPdhCifLpSrwxSWb6YtUt7B341h0u9LXXQKaLsxoqtD0VyXacaFGN4PXXQ26qrCox+EA0AzKSwCalKQpy3GSh0/f3mW57UO9VTmgvNvz57dfoLmTHyXHkV1vg4suo1A2BHZ1vS27AKAtAgN+djo9ef0bF0w3mP9x41jEb2uXshzX2nIrnd6re0u4lNlsrApcrnizscAFAABOSrf0iSu8FlPphyojorFtlZNb4oad9csB5RNa3GVqtz6lrE4ru95mtY9twzm2BmVDYG9UdgHAqSXNwKfyogqftmywknnS5L7a6vvT/XQnDz97qjAkwcFnN5m+u33rmXVe4tl5rNUkns1nKBP9lrH3JK/Pd/UKXAAA4PR0S5y4wmPaTwYR7/x8dJVgI/njaij8fF+vtm05YNrXA6rrnwITXfQekm6Noz9euWfYd+sN5GGLyqc6x1bnHFuFsiGwv3VDdFDF4NLBEaNkJMDUbNMAdsEB8wJK1ysZXO8M2PNp7PKcNeLisIjf46mK6+U4HjQ0sPgJWJLeeX/Lf5ZZQoOQusWEu2kQ23h7b5DY/NLQIKRxeGgfrk1zwnFJeWlb9jy4J0+BuG+X8PWoSlP8/DxNC5J0Jrek29cpB1Ssoxcvgakq96SrlaRNhbSszrHpzQJ/V0so3T2W+BhCKBvuJz4WtNMxrg8tu87KXIam9jy06EEB41r/7azmExnq6Wzd7/5+Qi2c2+FIxxhoQnwdiN9j6zx9yHI80GNBp9QvAz3Wht+2vvfbDFTqW/Ve7bbu92igm+gHBnkNbSsdefqYydjbsdlelQizevK6Xso4t71Z96CDkFake/f3Mpzslu4d3J73diFd5lkBaqCcdDqUG86Hys+TPD7tzth7zQ+EbssgH/Eo9luWAwYzf91iecaUe0y3N/eBFg1krLbbvkthvWPbfI7tQtnwEChXGteSlrpKr73poBoM7uqF43PD2xK9bFuLHnzLW/IW5UTic8s60jEG4+eyEL/HE45rxMLxc4B07xj2ubdD2574WYnjGvsjLpsRjsfrLCcdWxyXWZQbTiV8PU7lup+NXbTr+l2WcNxSrjRakJbG8X1ItOw6UyoD0XeGW5YyG7sa9cWb/GtldTQA7Ceb7q3NG0aT8i1G0m1b84reqzvOV9n6BXVI0+EBF45yEgCgCuXKBsNrKSq7LkJHek/PyUCP6ewneqDHeOBAu9wPJ0nTzPlQfdaPBxqcSl+vE3iwV5Oh3Ae2bw83ta45xnu5DzQ/tU037TmY5X4oEztqpkcPoKm2Lz3X8ib6Ji7139qWMDaC+EU76RmA0oF2371m2PpeS9Mtfd8O81MC6YFW/Xs2tI7ip396yd636tlwYejnIv7ZNAlX2yU/m3X9+1uvm6bNfteq0nS5pLn55mfP36//LKv93k/c4MHApbv2ctKxUW4AcH4oV+rTuLBy5bohOqgGg7t64fgsaxq8XM+SAQyjdTzG4qxkEMa4aWbw7ybgdD9RFBgYMbvzg4v3m7WhCap/jEkzzeKSXS28jl1sE89knUwcnHeT7fgcs4jfQ4jPF2Hh+Nlw/ZfjtSqWqL9vTvvqDLLr76N0YNikeXvZAK7qfi40D6/3TAWPXf+tsgl6cUnPY8N+azbVj9fH/ojLZoTjsSy9uOxy0rHF55lVL40zKDc0Ko4TnCeu3+GE43ZD+kC5Mrik57FhvzXLlVq8zSE1FvoxDvaahONzw82ll/hODD6o8QMWuqm9z/z9qBt2ZrZXBcXkYfHXPTy7z4q4CB5jfN7eeipubFQEziWJL2+95cxLcPLrBeJwi4e7Tez5Eb/HYM+VdLJMOH7SeyxO3rJyfw+kfYX7Kkn34nW8eza+z7x7NinMeJ/ZY/ELJen+lkv1QyFtrftMKaF0uSq8qmdv4369fVSw63LvNoG4bEY4Hr37vWyJE5JAWnGu5aRjs+dYEfeVaVzNtMtLb6+53FCHjQ/SlHPF9TuccNymaVCcHWTl/h7IKwrpTpJPxOt4aVqcDnlpGuVKy65/2Hu/sdCPcbDXJByf3s2VX6JoPRjHN6ZHPRyz2Xg9SApweqm60bXcQx4Lrnt48XFnlRxjPtFIjtl74I3c9mXnVvg8TYTihCp+uNPa/fNiz4/4PQZ7rqSTZcLxU3IvJrJ/r5ymWy0mDO8+1vduNBivxyq3zt7CJfdshlcoyR9cYfuy8wh8Htp3/rPk9w3PXtl+a51fyq7LvdsE4rIZ4XhM7/fCcsHlpGOL4ymrJE4oNxycjQ/SlHPF9TuccNyWpFWJ7N8pV+bDK9lvrfPLsusf9t5nzK4zpW4ufWeky8eHvD71vCleXR/ablf6/ZFMpwv3+aWJ5LbrftQ6P+TO/Zh1Jz9K5r/9/N6mc3FHfj6q5ExZvP3TPbjl3XSDjuTxZzsn2N0P8YuWW33Lp/khd69W6TzJX/VtyN1pspiOZNTvSlePN7Dj+C5R7Z2XH+d2z0qsqWcPuCyUk06FcgOAM0a58qLKlVR2Xar5HxmZglskg/FMlsulLMf2Ebws/kCzSpJA5X1K2fN5l3miy9eLdeJBbvWMTpN3sWWqR7nMMhXxi5Zbfqm7VMtlztFYlv4XXbe8uiln9CCkH/ozlTbOZmMZRK6IMn2RwHiiDco9U57ss1JX3WcPQMbVlJOOjXIDgDNGufKiypVUdl2o1XdctLiTh5896ah789+be2sZ3UrduuJzMO0P3cwPK1V2HbkEaiAPOvHpPSSzL43+xDNTqPWGfVsYitfr3ia18cl6q7lMXuxaWT15sKUqGY1cKM9P3tviy0L8oq30jDH38QwzgwczdXLn56O91xYj+eNKF6tJPFOMnXHG/32i7qxe70len+/cPeok9+xUXuJSip5px2ynZ8lxn+0g80xNXtyzssUbRK3uswcg6JrKScdGuQHAOaJcqV1YuXLdEB1Ug8HVttTjLER+39Cy/qsN26Ff6jbC8bnFuSXHF1pC/XXdYgJuri9uE+Jjy0qPMbh4B17V19o/v3iMh/CSO+dMvB03PpoWn0cW8XsI8Tkd3Yme3W2F42fDvaiX3CDEZfdaOn5LRZheWOX3dhyPxbFiEoU4r/9MZe9/97fANaz37KX79Xex7T0Rh4v9nSouL628FI7HLc4p/5xlFu9YQ89j2X4OdK5tE8dFVv00jnJDs+LzzjrX5zs+7vLwkvsicGLL8cAbO0nlzTrNy2XPMZsmZu9Fvb4eaynLG0cpcFzF49l8Dr5430d3BelVOG43pFV6oVxZWNLg0v1mHsEd7qc47EM675Zd86F09TgL7kUcPL1XUQl+UqMcDXTTy5mrsZ3Ke9x9uPdbZoNMvbOryT0fg9lMxq6pqK7FjsYzWcdtSpXO04eoDE0ypxkNRGVmSdNTrfe6lJlKYTJxplK3IBVvSW8HV/N/qYhftJa6L033o4/sG3xzr6kbMr0l9XpL+XiK1+rJ63op41zaZ+5JLyx7b6fpqKbXmS1f97onB+rZSPdtj81/puqmy3WfPYDyUsAVlZOOjXIDdrVyrVKi8e+tr6FuXdMdTV1LQmuxmEq/a1vf+OZDta5JE7OJol5fj7VUPs6S1yqnVE9+m5uxzrpoFcqVl1eudJVee9NBNRhcPcEaxJLaxqbtUHu5jZPEZ0u1Mi6WR7rPjoD4PZ6TxfWB06umnCx+juK87+nLvjbHdZK4vMDy0kniEUYr4/5Cyw11hK/HOT7f8THnZ4PLmgVbdqXnG6nPzebePeG3kvFbryTrGksVtve3ZBu/ZZdesscXPJ5kdr7N8RKHe3RnUjbcx8ni9ijOP807xvU5bMuu1UTuTT/Ue5nM5zK8t31Sb+6HdqA29Xf/M9vXNKb7nA7d9nq5l6FXOz4fqs/iPrUylb5eJ1ALv/LCuB9OCrWYum9ucgx60ceWPRBFH8t9ZTi4EvOhvU+6rv9yNJbfvD5szhXHr59WlaUzzaZX1WksgCOivATshnJZDSs786h5LtXzOYnH40k183yn4w/lkxiTDum/Vc1MN29ocoHbrm1J04nHchM3U6e2SsfmG8zk49WfobUjvdcPiRsPptvk2TGNKnV+ip0kdL/WXZQNgT25Sq+96aAKwSW12oEliop/8/q0JrXkuSWuZQ/+3VRrerX4uX7Y6TpOUqNdXLKrhdexy2Fqw+Pw0bK48O/pinEAzgnxezxlcV3aR94fM6Dh9GpTGnsK8TFcpvN+A3fZ1+a4gnFJeWlrcbg4vlbF/YWXG+oIX4/0+Q4uB3q+k3X8DWvmf+Fti8LrZVtf2bG6AjeDd7+U7iZZJ27B5Y2j5KWV8fZlx52U7TacTxxeHmXD/cXHf5nOu1ypHeP6NBZ68GD9DEhdBf2YZB7cwmfuYSskMv5n6QOZPuDeZ96F14mBzfR0s1T3WbKut547juB6gXPQzWLTBNXfd3Ns2Jf6cG6HuDgs4vd4gnHtpTFJYcL7zGZgDadXyXob0tgjs8fIvdhGXJvmBOMy8OxSXqpmw+SePAXivl3C12PT8x2nGYcqX3jPe5z++JU0BRUDc+ckx6aOI8M/xmSJVDnKCy9JC700syCNE7uL7LHl46b0eILpbpFdpzxPuPay4T7s+ZFWtdUxrk9joQcPtvBQKqFEJpcYlNZku6UYlv8A5hMoJ79u6DiM3PbBfShlnzfEhs3DqREXh0X8Hk8wruukJQ2nV7XT2COL94/24do0JxiXlJe2ZsPknjwF4r5dwtej5PnOpzWNP9/FSqu48qW6EqvkeANKK5cMXdkTaA0br1t6vr78seTPKf17pvIrfzw10z67Tu761dm29Fx2u3ZtLRvuIz52tNMxrs+RZmOMdPdpq3ubmYHg9O7kR0m/8M9v+igDaBPSK+CyUV4C0CQvTdE6P9STHNLU892Rn3awKjfm1Vze7UBc8rjXQFx12XG3PtT36OVyls4qN32x4x8m6epCvpbmh6LVt3yaH3Jxl4hnW1ShjH7Ji125wqccNokkbQbKHKmya0eRngbatD7LLM1OfVmeAN1lUo5DJ1QAsEnD6dVR0lgAB0d5CUBQrlInqcjJa+757jw9y0D/sHiTf5P9Bp2vNbC9Fk9UcDOUeM1Opyevf8fZlwbJwPEi0/dwmPM/IxVrWnklUufpr9j6roUs3Hj35crDaUbDaTNlQ1yQVlZ2dX4+2oRpMZI/bgaI1SSeRSRNxPbSe7AJsZtRw+1FpZVuNhf11wf9UHtvAJL1VnOZvNi1AGAvSRrjzdij0ph4RqN7/VnD6dVR0lgAB0d5CcAm0348g6t6bpOKHPfcHuT5jmdBVOuOXCjPT96shyFdubU7CLdGmr67c4hbiolEfrMrvyw19M7j35s731ja8kxFjNwn62r6vO8lnrw2Gv9WZ1KmI0/PNuY2im7V2W2JsiHQjHVDdFCF4CoHuvM+C/QlTgfXyy6Z/t7Jdm6xHZPDfb4D+6jqm+xvW3YsdqnoS72HOHwQF4dG/B5PWVyXp0WHS69qpbFHFh8D2odr05xgXFJe2locLo6PuG+X8PVIn+/g4j24B3m+M2lOvWc/Cd/fqTfGWHbJj1NVfR758bT0uF7B9dwSZdYvHzw/Eye5fSTHk/s8L94+r/x8Dpc2l613yrLhPuLjRzsd4/q0thtj73UpKiFyNdFaJIPxUj6evPcCvd9mHZ+r+66l8/Qhy9k47c+tRQMZz5aZpprmWFQqF68WDcZqu5q1+Tiw+C1H+RuHqibQq8lQ7t1bEvOm5D5++1W0mk9keB+/4UjXnxQ2WMnkPl6neFzF49l8DqdD/B6DTYsGXnpn05nZ8jV5q9h0elUrjQXQepSX0C6UG9pmMJvJOEqeSonGM1l7D+5Bnm+V5qhVrcFDRQupVM82B9NNu9L0qfMkH8visc2WH5IvrpjzGKuyVGZdmx7656vpcb3sOfsr69XteX/k1i/T+53rJplYyb8314bONK/aHmVDoAGu0mtvOqgGg7t6xGeqKi7iNxpVbxxUWm7DKHvjUliKb6BUwh9YL13K3gCZv5W9BfK2qXMehxIfZwjx26z4mBFG/LQX16Y5xGUziMfTqYp7yg3HF59XqyxLWo5Wircptto6P/G5FO/dvFZevwtB3LbbMa5PuweoByrN5c9IvzXZZYaXeFv9dmNmB2LUs7aYT7z+8Yrur96f5tY1i337oS10v39vG5+eqaXkT4m4n/xi9KdFbxGJXwAAUBflhqsXDxTfdeNGRWP5XbthUzzL4ULe/m24QC23mrzY86/Zqg3AYVDZhfM132+Gl8Rt1w6a2YkH1FTZrJkuWUubIYsqUOlmzemu7PTGs8I2eXZAyErJ7DDZAt1JEb8AAKAuyg1IBkNXdHfDv5sGps+KZ3Isv3bnIL5H1fnX7A4J4DCo7MLZmsfTsdz92CojtdJZXxajrhsTYqUKSe7t4IfLnFf/JClTlfS5T/rr6ymWczlzFI8FMO1LYGgKTzo7zCIzR/TpEL8AAKAuyg0wY2zFLe0+XqW39Y3Qk1f/ep+ljjx96DhIx9YCcBpUduFMreT70/6UmXq4NpUR/U0HlVwsptLvduXm5l4VfryS0fJLbJkq0i8awzo/5M78sJBCeejxb/KG0Uz9bH8M6vywoZjple1PJ0T8AgCAuig3AADahcounKmlfLk3e3c/dnz3Y94+5WcdWajCjypcVb/u20rvNTzmRLsRvwAAoC7KDQCAdqGyC1fOju+gm1wv9UCocelq+mIHL03GHgi8HYytvsW+zCx7yxgPuKlCGf2SF/fms9ynfF9M2Yv4BQAAdVFuAAA0g8ouXJT58MbOArPpDWA8W8xN2oS90+nJq9eE3kgGKFXlrPdwmPM/I1Xk0u6k7GVm5+mv2HLVQhbuzWe58nBOjfgFAAB1UW4AAJwKlV04U+lApp+h1216fAXz8Vzi8VIzY0gkbwan8qIKYDaElcz/vbkCUiwdoFT0NNbJuppaf6inv7a/RePfFQNRduTp2Q0SsUl0q87u1IhfAABQF+UGAEDLrBuig2owuKtHfKbK4mI2sJ/LYOY+UZbjtSoCJdukS7QeL906znIcBdZzix+mMhtUrKuWKLP+cj2O3Oe5nSbHrJfcPpLjyX1+aPHx5BG/zYuPDWHET3txbZpDXDaDeDydsrin3HAa8fHjPHH9Doe4bbdjXB9aduFs9R7cG7nP7/Stnh7cdDlOx3jQooHMlh/ylGuC3nn6kOV4IPEs1Ib6ZTBeyvo1+y5Qjx+xnOlw/ZX16gMZz5bykVu/TDIddsFK/rm5tMum0j424hcAANRFuQEA0CY3usbL/bwX3c9eayi4q0d8psrjYi7Dm75MVTFlHCg0nZf4XFQBcP1a0ey+ecTv8fBcVyN+2otr0xzishnE4+mUxz3lhlPgWThvXL/DIW7b7RjXh5ZdOGPxbDoLefuXjthwjlaTF1WgUgYPLSpQEb8AAKAuyg0AgPagsgtnrfP0LLrR/OLtX9pk/uzETeUHMqvZ7P5YiF8AAFAX5QYAQFs03o0RAABcJroC7I/yEgAAgHXIsuXNf//910jo//vf/9xPAADgEqkyg/sJu6K8BAAAYB2ybMkA9S1FfKaIi8Mifo+HuK5G/LQX16Y5xGUziMfTIe7bhetx3rh+h0Pcttsxrg9jdgEAAAAAAOBiUNkFAAAAAACAi0FlFwAAAAAAAC4GlV0AgubDG7m5n1ROHV5nHd9qci/3k2YmIzf7vrFLU2GijVYyuU+vdX7Z5drXvQ+3vb9PZjWRexUXw3nuZwDA1aIcB4RQrtzogsqVVHYB2FnvdS3rjyfpuN+rzeXPaOF+3pNKeF+mIoOZ2v96LR9P9Y4AZyway1Jda32942U5jmQx6m6ZAde/D7e7vwEAOC+U43C1KFdeBSq7AJyf5ZcsJJLbrvsdV6nz9FdUuUSmL2fwlgwAAFiU49BClCsvD5VdAHZWaI47H+aaAw/FvBwxTWD7MlU/6jcmyecldHNgPxy/abDZZ9+EJKOu+vkcmgPjqErvn5L70NxTw4nXrP1e9Cah5ualYZt7326XkWv+XXVvVzHH4m3HfQ8A2BflOGAzypXni8ouAM3Qia8qvMRN0tfrpYyjqfR14tl5ko/1TAZqtWi8VH97lZ7dqkAnvt2RyHjpwlmORZWGksTbNAGemZDsOjQHvmJL+cq1HNeZfun9U3UfTkfy9qg/09t9SKhHRWXYvQcVriq4/8kW/1f/3tSnA3lQO6rcvoJ+JvqffnN79WzJSLrnOoACAKB9KMfh6lGuvDRUdgFohmmSbhNfqyNPHyoB3aYQowpaegyHaPw3zRRURvLX9KH/VXy7gau2mryYt2mDZ3ePqfvn12hRcv/8qXwLrUKR56oxQzaG3ZPfpu37u7eflfx7U6WmwYP0dj0290wk52h05Odjfl8AAOyBchyuHOXKyytXUtkFoBndW4lUFtG/2WPGDjeGw+PPbObQ+fmoPl3I19J9gOuzGEnXb26tlq7K5PUb6Ne4YF55/0zlveq+jG6lcuiQGmEX9rP6J7ZMog5w12NTBZePdXyO6QxC+twBAGgM5ThcE8qVyuWXK6nsAtAMk3jqJu8i036acdDTCo3IzJpjm4zrz37HBRJl9f2p/nVjgLj7zyzdkfp0P7XC7vwU+2LM3vTzP+pv7hj3ObZ0XIWujBYDmak40DMGAQDQGMpxuCaUK9Vy+eVKKrsANMg1eTcZR1pg2rugZN5eALGevC7HEum3ct7N1flxp/51Y4AkBZh0Sd7U7aBe2H4z8Lm8664cjz9NM/Gdj20+FD2Orx0LQq9bPk4KAAD7oRyHa0S58lJR2QXgQFSB6a/KONxvtZgm9At5+5cd1MG+vWCKanjcuASqFJ4WwkvuH52xB2e02UbNsJPm48N39a/XvHyvY8s3U3djNgAAcDCU43BFKFe6ny/L8Sq7VnaazEwzu8AUl2mzupJFb2MuYuBvuWXvtxBtpuNghxM08XsRU4vGfYzDD3PpeZbEW3LfXfRNc2CBxNXOGLJF4UZlNM8Dkcwgpm4ARhk8pwMwXiA9o0omDQvdi/m0b9d1LkTn6dk0O5/23RTooftH/WWoX2Hte//UDdutN52a12+SlCV2PTZXmPFn41lNfglDdl0wykvNKMnvY20rD+1yPDrf8GfdOu05US47eya9oBzXJpQNj4ty5QVaN0QHVRbcchyZv0XjpftEW67Hkd4mWvsfzwb6s8F65n6vZTYw4Q+22qjdquJT0/F0SedbJRwX8f2jlkBEmPsoGqu1soLxthyvIxXOYKDvo+z9eA3K7jX7LIaX+FnOx3P8rKdLNj7Tv1c/4/lwsmmHYp7587tW8fnkFdJIl6Zl7u1COjdbqzxu+3VazJyzWrLcsx54no04rqruw9z55+/DqvQi//mmsA13TIX7Vqm1fV58jvGij8l85p6BOA3TQfk/NyjeN/ZXFZeFtMCgvBRSFY+ajp+q8yx77s+HTd9D6cyhheOectmplD0LNo0IL/F9k78uhTyKctzBxXGUV8gP4rKA/8AU0vTLKxvuw8SXWrIoVybnGC/6mMxnxytXavH+D6mx0EsPtuLiqNizN5sXezZhvt7CW6w0Pg2dSG0ZR2csHBfxvTNQcVHMLMOJTDjebCKhPncPc/hevVzV9xqaFI7rcKEjuS/tb4W00vAzplrrtBv3YntxbZpTGpeUl7ZSGo/G5nJS2ZeR82HzjlOUWcJxT7nsVKqfBbRd+PpRNmwCz0a7HeP6HLwb49yMpDaWv8G2dHbQtcFttzXNyM/C/F2mgwfpxU3G/aaorplqWbP2bDNyu71eN2kurpdAM/N8M1o//NN6kN9jkdGvGs32k3jzzeWPaVqtPo+bg7792xwW0JTVt+iRLMw0wgWf8q1vRjfVcJTvR+D316+zDoDWorzUoEB+ny/nfLvPfRvLOvmuQDeuq4snG0axS585juEkme49XidbPpvLUP1tOLf/j8NLjsd0de2LumNkMeqqv9njyIZhVZ9T/XJgfZTLgL1RNgQaceDKLjtrgNz9MLMGhHSePuRVFezK/o4iXSC2iZ8/Q4NlB4BUBYOvpfm/Lsjoj+KZG0J0Qen9IZ69YSaD3EwUuqDUHUk628NSl2K6ranwMv2r1TF7XY+D0njz6IKW+l/8ee9Bl6o2hwU0RhXmP9RzlZ81ZfmlSidyJz+8B/fO/0Xr/FBrZNVZB0DbUF5qUj6/1xU5/amdXl2XY5aPbzLS8e3ZWNbRFUx9Fe7M/d3MVDeVvlcxlA/DBlGsEJPpSN4e45mwPkrHVpn2+6IO2q7nH4/JN+xU+ZGZUSs8m5Y+7zrlt03lwG1RLgP2RNkQaMRhK7tcrXShNnkjVXjw3kL5C+Pp6QJxOlCknXbU1fArOhEcDFTB4PPbFr5MjX5+xoWcaCy/k8S0J7pckW5vB5WMxn8zA+Xp2SoWoz/FAtxJ9OR1NpDpS9VbxGy8xcybdFVcTMpavQc7MOE7pSqcjv7CpMeXjMa/7ReYDVN2m8rtOusAaCfKSw3K5feqHPOi0tPBLK0Q0hWHqtiQqlPWMWmsV16Qjjx9rGX98eQqIOMWSenAwHaw46m8FF4ODuS5rIbLN5ilX3a3LXu58w6fkz+gsVJVDtwJ5TKgaZQNge0dbzZGT6aptFnyzbzTt2/5JV/DfXV0gdificEUAuJmqK7g8HAr0eJLTPJlErnsG4CCijfJdvtiZVkyDWpbyh693zKWkfwqFCidfLxpSUHQZRqGK+R5reWAo5oPpWu+MM3ko86XIQAXi/LSDnL5fdlsct3byP2k1CnrmG4/tnIxWJHoKiyzLZV68qquRSEtj26lTrVmvtVT/gVnpcpzWkjmO25VOXBXlMuA5lA2BHZy2Mou10QyX2vce00LY8uxV9jARrrQpkouXqHEFgJMHJuC1p386Ol4t4Uz84asMB5CfbZb5EJG3VyBuztSn7ZJR56eB6VvPIvxZj/T52DHu0jPTb810W/Li29igcPSb+1u1A1ouqX431TNl6xypjVInXUAtBPlpcaE8vt8t5+8WmUd061Id11UJYR+us7xW9DlKqpai3IZ0ATKhsDuDtyyqyvmxdleTaGRWoktG2RLbObtpI5j/RbPvC208f75PTfjdRXGQ9iCfYsYpeM95JZWvTnuvcpsECoMheLNdTeIxrIsnJctzDIgKo7Jjq2iu9EsS9/afeZf57uWBP5YDHXWAdA2lJeaES4nqYitbA1Vv6zjui6az9OKr+NWeBVbqW3FtPg6EsplwF4oGwL7OXBll32rIwws2Qw9/pbkmnwrpkn64k1+vUzdQPR24PrF24sZr2uvQpF5IxCYrcPMSFScZejUenYKIHnRKXgsFG/xAKjP8VgbPjfwP/ctjiQeh0EPfBwszHR+irkl86/zXTcV84zXWQdAS1FeakQgvw9221PsQM/OTmUddc3+jtV2jmudlx1bKjBr9hbyX1BtC7QNQ1PESs7JhnG8PIFyGbAbyoZAA9YN0UGVBbccR+Zv0XjpPrFmA7uNRON1/Bf72WA9c7/XMhuYcFRicDFC8anjMR+H1mytisjZOHBx4setZuI3+Wy5Hkfq91zEZddxv0u0Tnft9nekCA/FRdmxa/n7KhRvm++z457jKYXjF4cQjOvleK3KISXPtqeQzgXu0TrrtFgwftAKXJvmVMUl5aX6QvFYVk4qlGMCZaTCOvn002zj/z2+Xuln+d9D25j9ePuNZT93+y6E5d8bdh3/fPNhF87J5TdpnlCvHJgXivuysDR7HGmYlMuaFb4eOBfB60fZsBHBuEVrHOP6NBb65oONM25/KWZqSYZYumQLDUbhIT5/8fmmdCEicO7O5gKNlS3A1C/kxAXwZDliZBfjQisvVKkzsPeaOYdAvNXMQApxeqHC8YtDCMV14dnKLLn7z6V1yRK6/+us01LxMe8jlH5hf01cG1ib45LyUh3xeabqlJPiZbAe67R3y7JOMb0u7i+7TvHvZWlU9nN7D0SDgS3LuSV/3dJ92fsjFHb+mLNln/rlQF8cVhblslMJX4+wTdf22HY5Hn1P+/dK285pW6HrV0xr/CX3DFx42XAf8fnWwbNxfNtcn13d6H/UTvamB5DUGgru6hGfKeLisIjf4yGuqxE/7cW1aQ5x2YzLjse5DG/68lkxTs8pcQ+3yzbXQ48B1f8cy/Ij1F30HLT72dgFz9Ph8Gy02zHu/QOP2QUAAAAAAAAcD5VdAIL0G46b4cQOrnujl3SQXjMNsvnMLvf50XvNoL7p329uhpIfU7Y6jPCgvuaY7ifJbEz1jzE8wHAT54FDCtwH7pr418q/L7L3iN1er2s+j6+jdw/FuBcAAJcmn/d9u899zZfpimWusvJaNs/WLVP07Kb2/3F4yfGsJnJ/0zcTGSxGXfU3exzZMKzqc6pZNiDfv2g8G7kwjAt8NtYN0UE1GNzVIz5TxMVhlcWv6eetPs+PoWHHEfDGC8iPteF+T4cDcON4eH3GbdgVYcTbbBhHpO4x2t+zY940cR7bKotrWKH4yV87+7taL7kw9rrE1y17j7hrptZPr6MbO8a7t05xL5yb0LXBbojLZhCPp0Pct0vZ9bBlpED+6eVdTeR/+TDs79kyV1l5LZtnp+MVpll87njcOn442TDifVWcU3wO/n7yZYMj5vvmmqgFzSuLW54N98GJnw0T52o5pMZCP8bBXhPiM0VcHFZZ/OYzAqOQKFqZxNsMgpnbzlcZRpwAu4QzTUmNcKKd31cuUTZyGUAT57ED7uVqwfgx1yHNmPU1HwzUZ/F9YK5l9u/pPRLOgDPrnOheODfcu80hLptBPJ4Ocd8uwevh8rZcMeoA+V+NMpcSLq/ljicYVu54ysKudU65MmZV2eCI+T7P0+HwbNQ9p9M8G8e49+nGCKBcdCtd96Ox/JKFRPL4MzvwYefno/p0Ku+6DWv31vzcv9HNbe3fMyrDWMjX0n1QV/4YV9/yqf43eOjZ342evKo0NRmwsYnzwHH0HmSgrtbbP92Aei7v00huH9S1WXyJuVXMtbyTH1Vjcd79KB9slHsBAHBhVv/eTN52mykg6exMfd2NNZH/1SlzxfLltRLZsNTx/LhT/37Kd6YfVYltyphVZQPy/YvFs3FdzwaVXQBqW33rZHsho67fT1st3ZH61Ok8ycd6KWOVZ0z76TptShAv5TyuQ08eBupq6VzYFBzu5Efvh/rXFjbm71Od+6u1dsO9AAC4TNUvgs4r/9vhZeg+yPcvHM/Gzs7s2aCyC0Bt9g1CJOOl6QJdWF6TGoeOPH3En6cJYmVCaN44HMdBzwONM2/bPr9lpe8R8/arK/ajuejySP5N1za4FwAAl6m6xcd55X/Fljhb2amMSb5/uXg2Ehf+bFDZBaA+03Q17lLmMbNyhGc8NAni37HazikJw75FqUqwV6ZiY6OObvWjEl3TxjiWm9WvifPA0Zgm1os3+fUylejxp7oSHfn5qK7g24u8LfbM5LkXAAAXJtg1SVl+eV9rm8j/6pS5tvSZq4Ww5cMNwxXEdi5jbkK+fyl4Nq7r2aCyC0B9nSd51l3KRr+8hH4uw77uSvYspgt6ICPI9I8PhbGayK+RymTiMFTCaV6qTN/TqWznf0SvsllPfptXDC9p+GbbSMa/3auYJs4Dx2MKDAtZqOt/53J089ZNfbCIHiU3/MB2uBcAAJfG5W3Tvpd3qbxMZ22JRvK/GmWuLWWOR+2/qwp/0fh3veEKapUxayDfv1w8G2kY1/BsrBuig2owuKtHfKaIi8Mqi9/sLCBZduYOu51ZgrODeH/3ZsuL5dfJzw6i1rAzgsTrqH2Ybbxjqn+Mxf1rTZzHNuJwEFYVP+Za+/HvZpXJX7PsPVFvVk/t2PfCuYnPG/sjLptBPJ4Ocd8uVdfD5p3xMliPdV52gPwvu07x72Xlteznbja5wcDm727JHY63LzsjXJ08PVvGrFc2qHPeTYjDR/Oq4pZnwy6nfDbi7Q/pRv+jdrI3PTCZ1lBwV4/4TBEXh0X8Hg9xXY34aS+uTXOIy2YQj6dD3LfL5VyPuQxv+vI5XhZnq7tgPE+Hw7PRbse4PnRjBAAAAAAAwMWgsgsAAAAAAAAXo/FujAAA4DLRzWJ/lJcAAACsQ5Ytb/77779GQv/f//7nfgIAAJdIlRncT9gV5SUAAADrkGVLBqhvKeIzRVwcFvF7PMR1NeKnvbg2zSEum0E8ng5x3y5cj/PG9Tsc4rbdjnF9GLMLAAAAAAAAF4PKLgAAAAAAAFwMKrsAAAAAAABwMajsAgAAAAAAF24lk/sbM15UaLmfrNx69a0m97W2mw/VPu4n6ghwLFR2AQAAAACA6xCNZblem8HR42U5jmQx6spw7tapZS5/Rgv3c7Xeq9rPx5N03O84PCq7AAAAAADA1eo8/ZVxJDJ9ofXVpaCyCwAAAAAAIEd3Uwx2dVxN5P6mL1P1o24RdnMzFN0ozHRXHE687pL3ojcJdWMsDXs+TLbLMPu8SVqflW6/gTkWb7tL7V5JZRcAAAAAALhiS/nK9UjUlUndkch46bo7Lscio66tVOo8ycd6JgO1XjReqr+/Ss9uJjIdyduj/kxv9yFPgb6LlWH3HlS4Cxn9yfapXP17U58O5EHtqHL7Crqiq//pd+NcylhG0t2u/+ZZoLILAAAAAABcrdXkxbTSGjy7cbVWE/k1Wkg0/ptWVnWe5K8Z2+uPacVVbiDPoRqu2Mawe/Lb9Kl89/azkn9vCxX0g/R2PTa13Ys6yeQcjY78fMzv6zJQ2QUAAAAAAK7DYiRdvxufWrqjhQxma3mNm2ctv2QhkTz+zFZadX4+qk+n8l5VMxTdStf9GFQj7MJ+Vv/E1nWpA9z12ExrtPgc05kp9blfIiq7AAAAAADAdcjMxmi7IurPfif9EEVW35/q34WMutlKsZvuSH26n1phd36KbXBla67mf9Tf3DHuc2zpeF1dGS0GMlNxoGeivERUdgEAAAAAgCvUk9flWCLd2ssbt6rz4079G6VjYuWWpAXYDuqF7XcvnMv7VG3x+NN0P9z52OZD6etwzBhjel1vnLELRGUXAAAAAAC4Tm68K5n2k5kOpXsrkSzk7V9uwPeymRK3UTPspFvi8F3963Vb3OvY8t0f3VhgF4jKLgBAi6XjCYSWulMs+/TsNXW2C00RDQDAuUm6LbVotrV8XnyQPHc1kXt13hc4yRwOoPP0bLozTvtDO1B750me1QeL0S+v8mguQ900avAcnGGxtrphu/WmU9OsS5I6ql2PzVWS+bM8ria/5EKH7KKyCwBwBjJjK9hFjy+wGHW3LMTO5U/NHL33qvbz4c9WAwDAmYlnXxvob8wvG1p8HEsxLybPxen15HWmnhOZSt9VvOr7cjkWb2ysvkwHM1kn/QTtrIm6PHpz4yrJatocttV70Mek67psF8ZY3e0zOk/yoc9x2nfb3Ej37VGW5rw/5bsV6UNzbtQXhrX7eS86orSGgrt6xGeKuDgs4vd4iOtq4fjRLbu6MpKxLAuF4Kq/lZnLUBUGPsdL+djrldx14d5tDnHZDOLxdIj7dtl0PXQLqu7oTmbLW3npjkRakf8dKS/WLbvUOd/5M+y1DM/T4RC37XaM60PLLgDARdEFe52BxkvSTcJ0Z+jLVP3ov4EzXSeGE6+7pB3rINSlojTssjEScl0oSrffIOmCEi90rwQAbORaUA0epBd3e3r7VyP/0JVROu+y/6/KszblT8U8Vi8leXFlnpvPY90wB7nm3aFwfNsf76bxjwC0FZVdAIAztZSvXI9E+wZbv7h23R1t+25bQNdNt9300nYWGm8GmulI3h7jmWk+gmMdVIbde1DhZsdA0Fb/3tSnA3lQO6rcvoIuePc//W6cSxlLdsYgAAAK5npQa13XZXM70x1qMZJcVlVq2u+LzMrzrNr5UyaP1UtJXuzJ55l299t1E8vb7XjDZQIA7UdlFwDgLK0mL7YQ/+y6MK4m8mu0UIXnv5mBPfXsOovRnw0F5IE8V5VmN4Ztx2yw00PH3Ow2+o36rsemtjNjrcTnaPhTUQMAEDZ/N7mkeeFimBczOvuomXsMZmn3v3yetVX+tCGPLYhbpKUDbdvBw6fysmszq4MeL4A2orILANB+i5F0/W4HaumqgvDAH4dj+SWLwnTKqigbT9tcVbaPbqXrfgyqEXZhP6t/Yuu61AHuemymNVp8junMlPrcAQAo5Sp3ovFvr+VUT8xY1zVflsQtwmKdH3fqXzeI9Tb506Y8Nm/1rfaS339PXtX+dh7j65DHC6CVqOwCALRfZjZG2/1Bf/bbKwevvnXReCHprDRu6Y7Up/upFXbnp9gXxPYrxPyP+ps7xn2OLR1fpCujxUBmKg70TJQAAJSx3ej1uyI9Llaa7/R1Y699WkipUL+W9qdzy5/IT4HrQmUXAODM9OR1OZZIt/byxtmwb5yjdEys3JK0ANtBvbD97hBz0b1H4mmidz62+dB8MbHjmuh1w2ObAACQct0AMy+K4mUpun6n3kD1IZHc6mZP55Y/kZ8CV4fKLgDA+XFjh8i0n8x0KN1bVQRfyNu/XPG9bKbEbdQMO+mWONSDAnvdFvc6tnz3RzcWGAAAIfHA9JnxqWLuxUyNgeo/TX/FlG2lfCc/kkAPlD91fqi9pC2lrfDsi1krMYdYivwUuCZUdgEAzpIdrFbXd7nZmTpuWvXRL6/yaC5D/SrXG+R2J3XDdutNp/r18aMkZepdj81VkvmzPK4mv4QhuwAAZQoD0+ck+WfpgJFWJs+aD834VskYYAfNn+JJX168/f9RYUcyTsYv6IhpNO2PP2bWcT/nkZ8CV4fKrnOlWwNUvtkIM33V7yeSfNdq2objOvj+cRDJGAc73HOHoqekzk9/3fi9tZrIvTrvFp02MnryOjPFdem7a997jacnd/fsTV+mg5msk36CtgBtxzDZbgrzzWFbZmp3Je7CGKu7fUbnST70OU77bpsb6b49ytKctxskGEDRmZVHdjmeo+SDOD/Bgenz4oHqvcqkgGhwJ29xntWfmklhkgHi98qfNufFnaePbJ7Z/5Tx8iPzcqj3qrtkqjKA2//N+0P5GFzkp2ihULptPnP3qE7jSdt3d7PWnZYboC+G1lBwV29TfOqb/v1hvzFoDuEQx8W9dVgb41dX+HRHcjcYyHRaLGicxlyGN335HC93n5Wnjvjc/Rn/9sC9XI34aS+uTXOIy2ZsisdN5RH99/7nWJYfoW5e5+BI+WAA93C7HOZ6nO7+ujY8T4dzlnHb8HePNjvG9aFl11nSAx+XN00+nbYeF/ZhZ/NR1/V3yZhDAAC0CuURAMAZWn6pb1tuEgjsjcquc6QHnRw8SE8CAzWawY5tk8eY3/TR/1nc9knzSLWdWQLNJHVT+eTvufATyXE57liyhxcOH23lZvPR1zUec6jW7D36jaC+9vb/VfdN5t7TS+7+MH8fTuy9nqzXNwOv+s3fQ/dW9r7NDwIeHuh00z26/fHuOTA6AGA7+fKIkkm7Vbr97T73bSzruHJNuhS7X1XnO+V5RDbv2ZCHmi72u+SD+XOqXw4EgItRmZbX/w5T5/txrTzBpbnmZz2Wqx5bTnff9T+vTNv5rlGGyq4zpAedHJjXlf4095adJUU9Il9L839dkNEf5ceO8emCkm7qr5sQrtczGeSm89cPU3ck6ZT5tgN94YFOj8vpvZr1L70J5kWLZ/Nx19WMRVRj9p7YtN8XmZXfNzrxNt1IzL2nl6WMJXv/GdORvD3GU0XrRd2n6mM7fXR46uj8fWt3Hx4Xoq7djrcN3T4B4HrkyyMm7Z4OVHbk8oPHNxnpzM2zsayjK5jcmEVJ+q/HCvK+gNTOd2rmEaV5qB57qEY+qM+7TvltUzkQ16gnr+p+oAsjLk6NtFzb9B2mzvfjbb+L6LFd12YMuchuU9LN/hDfcS6WiqBG6KAaDO7qlcfnbD2QaK1ubvfrQK2X/q6ej/VgoD6Lxmvz0XK8jnJ/T/6m/h1H/u9WZh2zvaxVYcr8LbYcR2q/A3U0sdxxlcjuvx7urcOqil9zvQrXWX2mcohq4fUy9427t/JB5e+t4jFoNnz/vszeW6H957dx93/uAEL3v1llr+O1uJerET/txbVpDnHZjPJ41Gm9Vx4pSbtDaX1lWceUt8Jpu1Un33H7DYSzOQ/L5zclYdc6pzh+apQDA7iH24Xrcd64focTjNud0vJc+lsnzwiGsyHd1nLf7bXN+UMx3HNwjHufll3nZvUtn/509r0HGSTjKOkxKiK5fbiVaPElpm2X6fd7Jz+qXszc/SgfnNX1G35Mdmh1fj6qT6eSzFicPy6cv1VoNp949h5vmucKmZZ+SsfMEe1mvDFvpuOWf65L4Y1+Cx2YAzq6la26ruv7Uf0vu/8931Ie8ngBAM3IlUfsuJPF8U+6t+qrSqxOWaerx620s74FGz1tk+/UzCMq89BNKs9pIUkHAK2qHAgAl2RTWu5Upr918oxDfBfRDhXuhaKy68zoQpt6srxCia18MN0Wzc1/Jz96P9S/9kHTTfnV06DW2o3tFun6DZs+wW7pjtSnqeJx4dzZLwi2e4N/7U1XcnV/veS6QdSXFrJNH3QTbldGC9vFZFk2ZXQLnNvxAsC1CZdHql/61SrrmBceuruL7t6SrnP83n65iioAQH17peU2/a37/RinR2XXWVmJLcNlS2zm7eTnt6x0LbN5W9gV+9HcjNeVr5nehq3Fdv2G1Rf7/BK3cgkdF86ZG5g+8senihebQdQbqD7EvWGfD03FWWTGG9HhhsccaY1zO14AuDpl5ZHq1lD1yjpaR54+4s/TL0vHrfDac5Yu0yIBAK7Zrmm5TX/r5xk4NSq7zsnqn7xJsaugaTK5eJNfL1M3EL0duH7x9iJviz0LRaapZ9xN0mNmsXAzP5QcF85YPDD9c2hgRDcxQo2B6j9z3y7smxD/DXu+CbD+otJAMbyjWzeqjCvpZ6uFZ1/MshM6lDvQ8QIA9hcojwS77SnLLy/trlPWKVBflv6O1XbOzvlOuc15aIWSc7Jh7Fk2BICLkUvLncr0t06ecYA8wThUuBfqeJVdZppkdRH8JTfrgZZ2EypZ9DbmRgr8Lbdc2vUu7SpobvqFLFS57c6VgEyNs/pgse84Wp0nedbdJEe/vMLeXIa6icvg2cwgdJoujPGYSeFCqLmPAveXSYQCN0Zy35FIGKb7qwykrFFg5+nZzAKVTWiLMveNins9vlUyBpjLKEZejdlq8ktCQ2Btrye/zWuaF2//f1TYkYx/xyfVEfNixh9/zKzjfs476PHqsLLTFwfvxXzat+s62FkobfHzLT0LT2n6c0Cn2CcOhPLSzoLlEVeOmfa98oKKF9sl36lR1tHb5Msctrt/XHFUJ9/ZTmUeuknonNS99UtnWvE5NYpy2TloW16xy/Ho8pI/413bzqlJlA0PYGNablWmv3XyjAPkCdahwr1Q64booMqCszMT5GcIcDPAhGYbqJwhIcDMWlCcaeecFeNTx1f5bIc23oqzD+VnksjO5lBjNjonvobJkmxTcVyB6xIKe5N4n1nx/eMfS6psP/rzwurxTE16Fsvc/XgNCvFbMsNInonj0vhys4KoODX3oVsKce/ukWTR1yw3C0nZtUzvSZtehNbL3rehY/XuI72oAzTbxOHE90Z83HscrxZvl1dII+P9+BHmPks/CszGUmedFjPnrJazkr9HLtRZXpuWqorLQlpgxOlUNg2zafD1lpeK8VhRHlFsfMXLYD3203onm2eoJRdRhb8H8pXsOsW/l+UR2c/r5aHpvurmgyX3Vi7gsmOMxWFlUS47lfD1CNt0bdvvPGedq1J2/eJn99rLhvsw8aWWvOq0vF76qxXCCayUXadGnmCuV3a90HO7KdxzEB//ITUWeunBugcsnCgVM1lzMansKo/PKxSOi/jeGagEqUbCYejEq3hv2cRCfV6zkufSHOZeu7zCSBPCcR0udCT3pf0t+IXEpn3x/V9nnXY7zL14YGcUv/s4y2vTUqVxSXlpK6XxeBHanYeG455y2als8yyEr8M5ubzyZfj6UTZswjbPRury7rG22u36bOfg3RhNd6hoLH+D7aXt2D+D2+5FNj3FMTzI77HI6FeN5st6HKrCzJRuIHb9edwkdeeB14EdBKcQjrlBlfU4NOo2jfKDrPhjBtRZ51zlm9/fDNOup7rZuPpsOLf/j9fxuzjE8t0BNq9T7I7jd5cwP5u+UG5GHv/zXJeKTeFmBcZecHFQ1nUju0+7fdKlMt5v7pi0OnGC46C8hMtAuaxN8nnAt/vctzEfqMyDrVp553Diurqm62Tzrg35ueni3TdjytqZwu1xZMOwqs+pfh55MpQNgUYcuLJrLmbon7sfpeM5dZ4+5FUV7BofOgBXw4wfVWOwdP1FopBpxAOxu897D7pUtTksoDGqMP+xLs7cYgdPzg5EHI/Jl3CDVPrqrHNWdOG2r57dWTzLjZ41Zyr9XKF02u+LxOss9TetbqZwqwu+3ZGkM+fUWMeuUizUx3qvar2ZSjNUkdFs8xGa0GH7cNVFs5NAeOPJ2YFRVfKUjLJtJ1Owk5KE6S8D7w92n+v1zKSTXa8CrU6c4FgoL+FyUC5rB12R058OVNbo8p7HNxnpyPVszAdq5MG187jpSN4e4xmtP0rHjSvNz015SeVlap3IzIwdnhVbn3edvG1THnlSlA2BRhy2ssvVShdqkzdSiahXG+8v1zyeHsr05FV94Zy+VL2R0V8kirMPFQZi7z3UGngdm6hrojLpj7KSDCrpgqNuMJQMhLlhqnhTAVJnnXNkzsufLMFNF52vWBrM0kKhKiT+HUeqIPvHFrbdoMzR+G9auM6vo/61rQnSgZvtRAxTedmr8me3cO201u7traILuIOBSp0+v206Z97W5mcHzYnGko5V2hP9nTHdvk6c4GgoLyHj3PNQymUnp9L4FxWVg1laIaQrzM37mVidfGBjHrxNHjeQ5zr3dFV+vok77/A5+YOJK1V5ZAtRNjwWvsNckuPNxujJNBk1S765a/oWIr/ka7gBo/dbxjKSX2VfHvUXifzMlEmG6M9s5DI7f4Y+4JjcjC+6sEdGq5im9vYLfdWX93zrgExlkSnsFSuGOj8fTdjmO1Swy0ADBZ5dwzVf8OIuBu5L4YOKi8WXmKKpOafs292CilZCteIEJ0d5CWeLctlJhWaX07q3kftJqZMPbMqDt8njolupU51fmZ9vUnlOC8nU7VTlkW1D2RDYyWEru1wTyXytsen64Qpjy7GX6AI768jTs/pqWPLmJzQduS0IqPtzpPv9p18mzBA8KmPfrzUHsD391k6PAWWa5/vfVE1hs5xpDVJnnXPU0U35dbcJ9VT20+e0XqsVW7C1XQDduFres37THZk0oJ3sFzyTf5ovE3fyo6fzVPsFxLR+KIx1U995xskFo7yEi0O57PSqX4jUygf2yoOblKuouiKUDYHdHbhlV1fMC4QWNwnFBem9ymwQKgytxJap/BzfNbuOxrJ0XyTSxWbqDIiKY7JjTCxMYabsrd1n/rWme6Pqj8VQZ53z47pNeM+nLnRvLmzbt9r2rbAbV6vwvLe3BYx5A6/zT/2m2rwRt3nq5/fcjNeVf/u9jXONk8tFeQkXiHLZiVW3hqqfD+yaBzep2EptK6bF1/mhbAjs58CVXfatjjCwJI6kZ6cAkhedgsf02DaSayofD4D6HBpQ2g0OzX2LI4nHYdADwAYLM52fYm7J/GtN11zfFADrrHMRVL7yd6zOKCtfkLNvrN1bbfNmMzDrkJlhynULcy1rsuPCBGZF3NYe4ZpuF4s3+fUydQPR27Rp8fZixuva65rWiRMcEeUlXCbKZacR7Lan2AHOnZ3ygVwefIC8szI/36TknGwY51UWomwINGDdEB1UWXDLcWT+Fo2X7hNrNrDbSDRex3+xnw3WM/d7LbOBCUclBhejKj6vTTgulutxpD4PXPT8faXvv/C9V3Wfzdbqa0cw/EvDvXY8wbhejteqHFK4RwsK6VzgHq2zTosF48ecU7T2o8fmKfFn7hz9dVw8+HFqn3k/nGLcZMNVAvs24Xh5Vp116oQbFp+bd03duWWOQcnuM5w+5o+rTpzEgtcGO6mKS8pL9VXFIw4rHPeUy06l7FkopPGB/KOwTj6eA/lVPk/bKe90sp/HeV4+LD9NtOsU8veqc3LlrPTeqZdHHkvw+lE2bEQwbtEax7g+jYW++WDjBMxfipmaTaCqlmziaRQe4vMXn28dp0qcjyUcF+WFquReM3Gi18vdMzUzkEJmeaG2udfKtOseLBaECgIFsSaECvC+UFzHX27DS+4YXVqXLKH7v846LRUfc14xjvx4cdd7MLCFWbeETrsQTmCl7DrFe6RwrwfupdDzsCncMoV0qFBot7L7rF+QrxMnWvx37G9zXFJeqiM+z1L6XCtONPQ85NVZ5xqF455y2alUPQvZdGKwHus0f8t8oPD3wDXYOu90sp/Xy8/Tfdl0MRR2/piz91b9PPIY4mP0FePcX3Lxe+Flw33E51vHqa5/mV2OR983/r3etnPK2+b67OpG/6N2sjc9WKHWUHBXb5v41P25+59jWean4r8Q3FuHdXnxO5fhTV8+K8Y3OIzN++VerrZb/Jzqel8X7t3mEJfN2BSPumz0/rDf+HOXXr7aFfdwu1zO9bjO/Jzn6XC2idvzT+/P7/k5xr1/4DG7AAAAgGOay/t0IHvM4QAAAM4clV1nSNc865pQs9xP5Nt9DjQjMLCoGaz0Ru690UrNfajuP/2J/3O8vV43f69mhwu1g28mf8+FX6Xedv9kWLZOYPDVOmFm1/G2X03k/qZvBte1U6YP1VctAMBJ6MHOBw+S1HW5PCybral0PJcvUb4CgOtQJ73f+N3A5S3pUiz/l353cMxxDCf2u5e3TjaP0q22dB5m/x+HlxxPyfeQUD5XfU71v8OdCyq7zoy+8frTgczWdgrg5eObjPSdDTTGzXo0fU8SbDuLjT+by0r0R3aGuDCd2OouJPo+Xa9nMliMpOt909CJbXck6ZTXSz1jUzdYyeTTz0Cd7RYjtdKsXth1jiW/jl3FZWqdJ/nQ56h+jMZL9ffX9EsWDqwnr+p60IURQGz+PpWB36yr92rS7aoujZSvgFMjP8dx1EnvN3430BVMfZXXxN811ksZR1PpexVDld8dfNORvD3q7w96vQ8pewSm/X74u03N7yH1v0NVf4c7K+okGqGDajC4qxeMTzeAZ35MwbYPPrcv7q3DCsZvbtBtfY8NBuqz+D4z92L27+k96Ab+zN2TmXVKBqO1A3JWzMZUuV18PG4g3NyDkgnbP79axxIK0w2kmmyX/72Ie7ka8dNeXJvmEJfNKI9HnRbnBnAOCOVJ11a+2hX3cLtwPc4b1+9wgnFbJ72v893AfJeo+M7ivhdUf3dw+w2Ek81/QmGFv6sUwq51TnGeWeM7XIOOce/TsuuMrP69yUIiue26D5zurbp1gSb1HmSg7ra3f7qmX499ou67h1uJFl9i2nYtv9Rf7+RH1cu3ux/lAzya7SN5/Jldo/PzUX06lfeylweV2y0kaXimZN7qK6Vh1zmW1bfotm3ZMHkDCQCto9Pr6FFySXolylcAcB1qpfd1vht01fci9XP/JttFPrHNd4foVnKHE1T4bvPjTv37Kd/ZhllhW3yHqvwOd2ao7Do7GyoYgEb05GHgui2axFrdd70f6l+bwOsuIirFDTaRrcN2i1zIqOv1B9dLd6Q+Pa42HQsAYD/6i4wqze9QUKd8BQDXoTq9r/XdwHQd1F0XdffCdJ3j9/bLVVQhg8qus1Oz9hbYk3nD8fktK/0mwLxx6Ir9aG7G68q/XdiGfRMRpX3Gc8vWU8WbtxUbuDca+Tc5jR8LAOBEVmLrunaptaJ8BQDXoTq9r//doCNPH/HnacXXcSu8it9ttlLnO9QZo7LrjASbGSrLL9qfoHnmflu8ya+XqRuI3g5cv3h7kbfFngmrafobd5P0BGZJzCjZzr6ByR7TZy4Xs+sE3uTUOZaObtWmx+z3c6/ArJUAgNNZ/ZM32a4Lo0b5CgCuQ630fqfvKR15+jtW2zkH+O5Q+7tNyBbfoS4JlV3npPMkzwNdY+w9ZOqh6zNbEA7BJNILWai0/86louZNh/pgseV4KAXuXl6MfnkZxlyG+mYePJfOQhLcbjWRXyN1kLntQutE49/Frpe1jqUnv83rmhfv2fsjo0Uk4980/TosO81y2Uya+9Iz0/hTKuuZc/bel5uK2i/LmP24Ju755VDnBlybnbswUr7CVaqRv1Z+ud9dI3ktsIs66X2d7waBZyM7Hljz3x0yx6P23y37bhOyxXeoS0Jl15npva5lNvD6EPdFxvpBAhpnx+3K1PabtwJKAwMX6nvZzngbf+nvy3Qwk/WGfoOF7ewcuoXtBrNn+cqtUzaYfJ1j6Tx9ZNfpf6og/emBbaamp+u9uQlMK4xW0td+/fHk7ue5/NGZ/sGk01wni5v2mRaCwL4qujCaLyXVXUsoXwEBvVeVV/llnSYcOq8FqtVJ7zd+N1DPRvbvN2K/bqTPy+bvDtuJBnfyloQ11ZMzet9tNn8PKZxTyXeoS3KjCtt6yse96QjTGgru6hGfKeLisK4yfvUXnz0znF1wL1cLx49+89yXz4rKyuY0tC9zf9lCSFx+0C27+lNd2fVafAMXWL9tuHebQ1w2g3g8HeK+XXa/HsfMX32n2m878TwdzuXE7WU+M8e4PrTsAnB1turjjpb4pzJ69yZKLX73B90dItzNQhcO1PoVzTmSboyridyrgoRuxZ55K+ZahKTLAVrt9X7bQU1f0u6UAADsy+aPaR4W7jpYnr/aPDDXVatGmNl1vO3L8loAOAAquwBcFV25sVUfd7TCYjQSmWW7/sUF7Hiw0eJAou+qQF1zbISOnkJ6JrrnbjReqv28Sk8Xyl2LK7NfM9POVPreGF/N6IiZ+GfxJcweDQBogi3v6F5K4bwzVpW/5ulKrE1h5texq7hKrVBeqz8HgAOgsgvAVTFjNKnCF03nz8xglnbxU4Xlv2Zcgj9J4dkMuvn2L1MJNX+fqtL0HpMpmOmYB/KQlMTdFNPJGF8AALTQaiIvOgsc/02Ha0jyTn/QbaUqf/W5wazDYcbru/G4vAGvO0/PKiedyktJBRqATXryyneXnVDZBQBovUFa42TY1lxTiWd07unZFBYj+ZOUzuei67oGz3tUTJkJGabSv6ke2BoAgFYxL2uiwoQNcUvoL68Z8ab8NVEZplt/9S16oIhsmHxRB3AaVHYBAM5fPO6VK52vJi+q6O23ytpBR3e30F0X9RTV6fgkVHwBAK6NHe/Um8EuXroj9SkAtA+VXQCA8+PeMN923e/SkZ+PprZL5rKSf29Njcvmui7qsUm8iq9mK7xsKzQZPDB2CQDgcEzeuUEhf7U6ZnDJKB2vK7e0dTZhANeLyi4AQOt9fmfH+gjNqJl0pZj8k7dFsavF/jry9Hes9tEwM5B+sSsJAAA7Md3wixO32LwzW5FVJ381SsLMzNjY+aG2TFtZWyuZ3N9UzowMAIdAZRcAoPUyA+omg+TmWm65geqno5Es9hmYPhaacv3fW/CN9870Pvp6cDFvgGAAAPbh8sNQ3ukPHq/Vyl+1UJgyl6HJw+Iwe/LbNIF+SdeZ/5HRoubMyADQICq7AACtN5g9y1c8Toid0zw42K0ZqF7ZbWB6W0hfjLpqP0OZ917dlOluv2qxu/7IfFGozw52n4xzohf1JWGgp3ynpgsA0CA9+3QmD3N5Zz6/qZu/aoUwb/oyHcwyYXaePrLr9D9z+WYur3WfAscxl6G6L+/9N5kNmg/VPX8/SWYHX03u99+XefmaHULD7Mc8g8XlUOd2jm7WupN1A3TEag0Fd/WIzxRxcVjE7/EQ19UaiR/TUkpktn4tvpXGzrh3m0NcNoN4PB3ivl0Oej1MnpqvrEKTeJ4OJxy3urKrL58VlbrNaWhfrheAfjka1yvryq7+dFAs764mcq8njchVQrfRMe59WnYBAC7ESiYv04YGpgcA4LqVjt8FoJ30TOIzPaZHn9nDFSq7AABnzjZJv7npyuhudoQ3dQAAXDbdcqRbNn4XcPb+ubJjseuf7nqYH7PVcuXNilqkpBujbmGlu/mqzzJddl2XxHQ5QFfe3m87e/hL2p3yWlHZBQA4cz15Xbvpzxn7CgCAvenxuXS+ygskXKLFaKTHvLBlRzvIXFLhZWf3Ds08qmfPrjnZgm5htZ6JHkk20mPl6e6GugIsHqvVlFuXMo6m0vfG+GpGR37oaVEXX7K0H1wtKrsAAAAAAMB18GfB7jzJXzNpwh/byiqeefTtX6YSav4+Fdlntu/llyxkIA9JXVlHnj7Wsv7YZVIl1EFlFwAAAAAAuAqDtMbJsK25pvLu+hSa2b0XI/mT9DGci67r2m22b6d7a/ahZ+ZmPK3joLILAAAAAABAi8e9crVfq8mLTDOtsnZgujbqrot6/Ph03C4qvg6Hyi4AAAAAAHCdTBfDSG677nfpyM9HU9slc1nJv7emJmtwXReTMbtsxVezFV62FZoMHq5+cgkquwAAAAAAwFX4/M4OCb/6/lT/3skPr49i0rVx8k/eFpE87jxYV5mOPP0dq300zAykX+yqeY2o7AIAAAAAAFdhMfolbvJF3UdRfo0CLbfcQPXT0UgW+wxMH5sP5ebmPt2vsvr3lmtRtie9j74eXMwbgP+KUdkFAAAAAACuwmD2LF9dN25WdyQyXsrHU7E2ywxUr+w2MH1PfptZHrtqP0OZ915lORYZxftVi931hwR2XYMd7D4Oyyz9qTq3tayp6TJu1rrDaAN05GoNBXf1iM8UcXFYxO/xENfViJ/24to0h7hsBvF4OsR9u3A9zhvX73AaiVvTUkpktn69+vGvmnaMe5+WXQAAAAAAAImVTF6mDQ1Mj1OgsgsAAAAAAEDmMrzR3QK7MrqbBbs34jw03o0RAABcJrpZ7I/yEgAAgHXIsuXNf//910jo//vf/9xPAADgEqkyg/sJu6K8BAAAYB2ybMkA9S1FfKaIi8Mifo+HuK5G/LQX16Y5xGUziMfTIe7bhetx3rh+h0Pcttsxrg9jdgEAAAAAAOBiUNkFAAAAAACAi0FlFwAAAAAAAC4GlV0AAAAAAODCrWRyf2PGiwot95OVW6++1eS+1nbzodrH/UQdAY6Fyi4AAAAAAHAdorEs12szOHq8LMeRLEZdGc7dOrXM5c9o4X6u1ntV+/l4ko77HYdHZRcAAAAAALhanae/Mo5Epi+0vroUVHYBAAAAAADk6G6Kwa6Oq4nc3/Rlqn7ULcJuboaiG4WZ7orDiddd8l70JqFujKVhz4fJdhlmnzdJ67PS7Tcwx+Jtd6ndK6nsAgAAAAAAV2wpX7keiboyqTsSGS9dd8flWGTUtZVKnSf5WM9koNaLxkv191fp2c1EpiN5e9Sf6e0+5CnQd7Ey7N6DCnchoz/ZPpWrf2/q04E8qB1Vbl9BV3T1P/1unEsZy0i62/XfPAtUdgEAAAAAgKu1mryYVlqDZzeu1moiv0YLicZ/08qqzpP8NWN7/TGtuMoN5DlUwxXbGHZPfps+le/eflby722hgn6Q3q7HprZ7USeZnKPRkZ+P+X1dBiq7AAAAAADAdViMpOt341NLd7SQwWwtr3HzrOWXLCSSx5/ZSqvOz0f16VTeq2qGolvpuh+DaoRd2M/qn9i6LnWAux6baY0Wn2M6M6U+90tEZRcAAAAAALgOmdkYbVdE/dnvpB+iyOr7U/27kFE3Wyl20x2pT/dTK+zOT7ENrmzN1fyP+ps7xn2OLR2vqyujxUBmKg70TJSXiMouAAAAAABwhXryuhxLpFt7eeNWdX7cqX+jdEys3JK0ANtBvbD97oVzeZ+qLR5/mu6HOx/bfCh9HY4ZY0yv640zdoGo7AIAAAAAANfJjXcl034y06F0byWShbz9yw34XjZT4jZqhp10Sxy+q3+9bot7HVu++6MbC+wCUdkFAAAAAACuVufp2XRnnPaHdqD2zpM8qw8Wo19e5dFchrpp1OA5OMNibXXDdutNp6ZZlyR1VLsem6sk82d5XE1+yYUO2UVlFwAAAAAAuGY9eZ2Z6i7p309E1yH1XvV4VuKNjdWX6WAm66SfoJ01cTHqqr+5SrKaNodt9R70MaVdGGN1t8/oPMmHPsdp321zI923R1ma8/6U78oWYefnZq07azZAR5TWUHBXj/hMEReHRfweD3FdjfhpL65Nc4jLZhCPp0PctwvX47xx/Q6HuG23Y1wfWnYBAAAAAADgYlDZBQAAAAAAgItBZRcAAAAAAAAuBpVdAAAAAAAAuBhUdgEAAAAAAOBiUNkFAAAAAACAi0FlFwAAAAAAAC4GlV0AgBZbyeT+Rm5uwsv9ZOXWq281ua+13Xyo9nE/UUcA4OzMh3IznLtfitr2fO9yPPm0jDQLZcy9ofPNimfi2I5y/64mcq/Ou0WnDeCIqOwCALRfNJblei1rb1mOI1mMulsWYufyZ7RwP1frvar9fDxJx/0O4HzM36cyeOi539pv+/SmmJaRZiFoNZGXqchgMBCZvsgO74gOgPsX0EKVvEnltHupy4uM3VHZBQA4S52nvzKOdNmdAgAA31zepwM5o7ou4GBW/95kIep5+H0rkfrp7R85JtAWhUreuHJ6pj5fr+XjqUNF8B6o7AIAXBTdNSJ+Ixa/FXN/kPubvqgyhGkRdnMzVF+J3Ru04cTrLnlv3nyH3qSVhq27TLntMnJdKEq338B/y2cW3vAB5ebvMh08iF/XlXmG1PPz7T73bXw+zXPuhePSEF82jGKaUC+9mctQ/W04t/+Pw6uVltVNswzbTVx/lo8ffy2cM9eCSj8PnSd5Hqh75u1fjeu74R70ZO4dveTun+I9r5dd7t/88+SGOcg17w6F49v+eAN5O3Aoyy9ZSCS3Xfc79kJlFwDgTC3lK9cjUReMuyOR8dK+EVsvxyKqMG0K6Kqg/7GeiSrrSzReqr+/pl+GpyN5e9Sf6e0+5Cnw+qwy7N6DCnchoz/ZQnfyRl3tqHL7Crrg3f/0u3EuZSwj6TIICRCU78JonqHpQGbuGVo+vslIf9P2bHw+dQVTX4Xr3rab5zCaSt/7opwPwwZRrBCrk95o035f1EHb9eqmZR593nXSHF3h8P7g1tHhLkhfLoau+FX/i5+H3oOu7RpJLqsqVXoPOrXzp8w9r5fN92/t52kLux1v+TOKM1X54qJ+Ra++R/1wNq9T8gLE5SPmZ5XPqIdU3eu5z3OVspvChaMe4kbooBoM7uoRnyni4rCI3+MhrquF42e5Hkfq82isfspajiOzvvryGX+wjtTvqvDsPrDseoO1XW22VgXszDqzgd5v/PeU+Tzeb42ws/vR3LHrA6x1bAFuu+QcnY3bNYx7tznEZTPK41E/49E6edRKnqFtn2+1QfpzkE1bzPOe2DG9CYaVf+5Lwq51TnH8hNPX7LEUcQ+3S9X1KN5v4XurqMY9WDN/Ct/zG+7f4P7z23h5rCf0HJhV9jrew+F5Opxg3Bbug3w66O49f51AeppNS80HG9fJ32ta9r5XTF7jhavk16kT7jk4xr1Pyy4AQPvplgbJGyy7dEcLXcaV1/iVsGv6/fgz+wq28/NRfTqV96rXwdGtVLYYrxF2YT+rf/Jmeo+oA9z12EwLjvgc05kp9bkDCFh9y2f0KPGjZltXFruEdG/V15JYneezq8c7mkpfPX/BRk96v+p/2UHxe/Kqnl895krGpvTGyQ+w3/lxp/79lO86b/Arz2khX0v3gXb3g7FgLpEb+yca//ZaTvVEN+6S6XutFlKV9+A2+VPNez6xzfNU1yGPF+fDpI3+mI4defpYF8fEGszS8qW6d/6O9aRIf+xzo56tX+q+icZ/01Z/+XXUv7YL8XOyTufpWe15Ki97NcM6VLiXicouAED7ZWZjtN0f9Ge/vXLw6lsXjV3Tb1WATZbuSH26n1phd37Ko/r+PHU1V/M/6m/uGPc5NtN83azfldHCdsVaqgIVgCJduSWPP3OVN3fyI/tBRr3nW39R1l0XddeudJ3j9/bLVVQBJWxFr7pjRnpcrPSeNb2k9vpinN6D55Y/kZ9i44sLp7Kit84LkkNU2GqHCvdCUdkFADgzKlNfjiXKjStjCyJROj5Nbkne0O2gXtgd+Wlru2Su/nvXb9Tdl+6dj20+NF9MIjOuiV43PLYJAG0ltq4rX+Cvbg1V//l0LQDM52nF13ErvPYcuNh8ScPlc60/Mi+KsvduvYHqQ9w9eG75E/kptL1eXNiK3kO+XEWzqOwCAJwf11xclVTSAop5WxeYVt0MRLrn4J01w07e6g31oMDeW7+9ji3/9lB/oac4BRTorsOSdmHUgt32lKU/u8VOz2dHnv6O1XZO54foKrO4ZacVni2urs9cDZ39glXdSi1Rck42DGb6unjxwPTPua5ZhnsxU2Og+s334IHyp52fp5WYQyxFfgpt1xcXNu085MtVNIvKLgDAWbJjFOgCiptFp+OmVR/98r6czmWoX+V6YxvspG7Ybr3pVL8+9r5073ps7gurP8vjavJLQkOMANcu2IUxfib7XqWVa+GRqPN8Biq+suOB9eS3+cb04u3nj3pW1Rciv7/1FjLHo/avxxbKjr9UIXRObpyZvdNDtJ6ekVRdaG9coqwk/8xUJhVV3oMHzZ/qPE8dMXUO/vhjZh33cx75KYJyLy6cyoreOi9IDvACxDhUuJdq3RAdVIPBXb2N8alnashPJ1JDYcaHpm04rl32z711WHXi185Mo5Yd7rlD0TOP+DOeHOTeLpm5Z1fcy9XC8VM+G6NhZq3J/t3OSmPDMkvuAqZ/tzPXlN07oc83hW24Y/Lvz1it7fPic4wXfUzms+xsPYcU7xv7Iy6bUYxHnVaUPxNJPmaWwXqsn8Utn+/C3wPPYHad4t/rpTdu1rnBwORBcXj55CLdV3lalj/mbLpUYza7gDgstEPhegRmhQuxz0TZM1PvHlSBJH8zi75vcvlT2f20/f0bOlZ3D8frqAM028Th5MtxexzvocTHguYF4zZQfrL3WfxZPBujt467bwrfOzLhuO28hyQbrhLYd+F+q7FOnXDPwTHu/cZCP8bBXpNN8alv+kKG0wKHOC7urcPaGL9xQUEVeNqTkLpC2KEPhsquoyJ+2otr0xzishmXHY9HyuN2xD3cLoe5Hu2+By8Jz9PhlMVtthJVL/73G3fvb6roVQrhBFbKrlP8HrVLZZe2KdxzEB//IdGN8SzpgY/LmyafTluPC/uw3TTUdf1d0mQXAAAAAM5A5+lD17B4y0exa/ftb/nw1gmNw1UIJ7BSdp3ifnqv6vMPb2y93mthvcI6yqZwYVHZdY70oJODB+mF+ueavsI3cp90cNcfqXXuJ2rt7M9x/169bjoVr//31Gpyn/49F34iOS7HHUv28MLho63cbD76usbjf9SavWcuQ3Pt7f+r7pvMvaeX3P1h/j6c2Hs9Wa9vBl6102nb8ZpC91b2vs0PMhzu377pHt3+eMsGNwYAAAAAHAKVXWdIDzo5MM2n/GnuLTt4nsgimXbIzkoST38foisM3h/imuGZDHLT+esKg+5I0hknlmMRtU2+4iI9LsfUTDMjxVmLZ/Nx17X3oGu7Ns/eE5v2+yKz8vtGVwz1P/1psZcyluz9Z0xH8vYYTxWtF3Wfqo8jM310eOro/H1rd+8GMt/RbsfL2xYAwDZ68qryjw8yD5wM9yCA80dl19nRXQXTKaPt1KefEk8YoafSHgwGegoJ29pET8O9yE+zmxONJZ0oqCe6PiPd3s7cE43/pl/YO3bK/8Xoj1dxkD0uXIbCbD69h1qz9yQGs7SyM3/fqHvrxUx05TfLLVbgWgN53qrAFbdIS2ecsjMPTeVl12ZWBz1eAAAAAKdFRe8lobLr3Ky+5dOfzt5UPsTjKLkKp4dbiRZfYtp2Lb/UX900qWXufpS2+rLbFyvLOj8f1adTSeo88seF8+cqd7LTnLvK0ELlTlimpZ+SqZztPJm+8LYyzHUpvLkx01oXRLeyVT2qvh/V/7L73zPzOuTxAgAAAAAaQ2XXmdGDhUumS6KtfDDdFs0X/Dv50fuh/rUVUaZljj+O1pZst8iFjLrx+ENu6Y7Up6niceHc2YHpbTdX/9r3dWOvfVpIqVDjXrbp+FddGS0GMlvr7oaR/WMLndvxAgAAAMA1orLrrKzE1illq5S6t+rLtu52qFthmRYlXbEfzc14XfnWNduwLXGidLyu3BK3cgkdF86Z6wYY+eNTxctSdP1OvYHqQ1x31/nQVJzZcbd0uOGxt1rj3I4XAAAAAK4UlV3nRI+/JcWugqZL4eJNfr1M3UD0dhyhxduLGa9rr3G0ureiQnLdJD1mpkU3y1zJceGMxQPTZ8anirlxqmoMVP8ZDybn2JaCfrfafBdZXXEa6Ba4rY5u3ZgfWyw8+2KWndCh3IGOFwAAAADQmONVdq0mcu91hTJLYHr/tJtQyaK3MRUtgb/llsrvtGeotKug+WK/kIX6zn3nahFMiyz1wWLfcbQ6T/Ksu0mOftmKLWMuQ93ExQ3+fZoujPGYSa7CLcfcR4H7y1TSBW6M5L67tJtmR4WB6XPsYO/5yqSizH2j4l6Pb5WMAeYqUkdejdlq8ktCQ2Btrye/dfOz6Yu3/z8q7EjGyWwMHTENF/3xx8w67ue8gx6vDus+k34F78V82rfrOthZKG3x8y0922hp+nNAp9gnDoTyUjNK8vtYnWemfB1VDmppvOm8JD/r8XHSBspl5+B490M9uxzP6e7x46NsCOxp3RAdVFlwy3Fk/haNl+4TbblW30XV59Ha/3g20J8N1jP3ey2zgQl/sNVG7VaMTx1f2bjy2Xjz/r4cr9VX/bXkIsWsF41VaJq7BpXrWPE1TJZkm4rjClyXUNibxPvMiu8f/1hSZfvRnxdWd3E1GOjjLY/jS1WIXxcf2ee1yMRxaXzN1gMdhopTcx+6pRD37h5JFn3NzGdpuGXXMr0nbXoRWi9734aO1buP9KIO0GwThxPfG/Fx73G8WrxdXiGNjPfjR5j7LP3IxvHW67SYOWe1nJX8PXKhzvLatFRVXBbSAiNOp7JpmE2Dr7e8VBWPmo6ffc8znJ7b67EpjzwNl/ce+NjCcU+57FQ2PQu+sutwPo5zjx9T2fWjbLg/E19qqaNtz8Yux6PvGf/ZaPvzvs312VVjoZcerHvAwomSyxi9h81cFCq7yuPzCoXjIr53BirBLhaEwg+3TtyL95bNTNTnNSt5Ls1h7rXLK4w0IRzX4UJHcl/a3wpppWHSvvj+r7NOux3mXjywM4rffZzltWmp0rikvLSV0ng0wvn9toJlCR2Hrf3ycJy8Nxz3lMtOpfpZyApfh3NyeeXL8PWjbNgEno122+b67Org3RhNd6hoLH+D0/3bsX8Gt92LbHqKY3iQ32OR0a8azZf1OFSFmSndQOz687jL5s4DrwM7MLOo6lsw1Gf0U8ywZ3pcPHWbRvkB+Pwx9eqsc64KXbGGadfTpDuR/X+8jt/FIZbvDrB5nWJ3HL+7hPnZTE/qZqz1P891qdgUblZgfDkXB2VdN7L7tNvrdc3n8X5zx6TViRMcB+WlBuXze/f8ZB+p4jORf16+3ecpO4yDHR81a9OzZMIeTlxXP724dKDs2ELrxn9z+zBLfA6m+2vfjLdpZ1G26WT2POunDbujXNYm+etcvKdr5AOVebBVK+8M3NPZ+3NDfl7rHreqz+kYz8GeKBsCjThwZddczNA/dz9Kx3PqPH3IqyrYHXe8J1wSM35UjcHS9ReJQqYRD8TuPu896FLV5rCAxqjC/Mc6ntk0tfxSpZPMYP7pmHwJNxC/r846Z0UXbtWXy8HMnw10Kv1coXTa74vE6yz1N61upnCrC77dkaQzy9ZYx65SLNTHeq9qvZlKM1SR0WzzEZrQYftw1UWzk0B448nZyR1U8vS1NP9Xn5jJFEJfumP6y8D7g93nej0z6WTX+0ZdJ05wLJSXmlTI73uv5h7Pp7M+/aW3Px2oZMQ9p49vMtLXxGfKDPmJSuy2tZ6l6UjeHuMZfT/MuKelxxZY1xzjpz9LskoPxT3XJi9Rz7naNDKzBpfPGLwpbdgX5bJ2qHNPb8wHauTBtfO40P0fUJqf17zH6z6Ph34O9kLZ8OD0feJXdFIRrJ1BRfC21APeCB1UIbgdmh+bJoQurNCSb4VpXFCz/Fh8viiLi1yz3Fy3gmJTVN20s6RZfaYJfbjZ8CXjXjueunFtm6l7aWdpGufdr3XWablg/JjzquqOFD6/TFP/krwo2x0gFI79zN+ukLaY48umLdl16oVbkAtXh2nGr4nDNeeU/Xu6T5c+ZtLA3Dq14iQVvDbYSTAuKS9tLT7PIv18be6eE3oe8vGSfa6KvxuVz1LuGa1My1LBdUuOMZSOladZNdKGGsJxT7nsVILXo849XXnvumuwUx5cch8GwsneF+FrvdU9Xut5bOY5aEr4eSqy5+CdW2l67sVjnXUuWFnc5u/HOG7965+9Z8wH2Xur8IwV76t8GPb37HNgj6V4zwafDX9/hXt9w7MR/151TvE5+Ps54L1i4lwth3S82Rg9mZpCs+RrOdO3EPml6q0crljvt3m7+St7I6V0c+D8zJSribxM1SMfzw5o9ES/RMzM0Acc09zOWqkyFfkoe+15TUxT+6n0VV5R9cI13zrAzEgbN/Vffski0Bqj8/PRhG0mFQ12GejJq8p39roOu4bbe1A5YdzFQLf6ieT2QcXF4ktM2y5zTtm3uwUVrYRqxQlOjvLSDkL5/QZ6Vmn9PBR7+qivAQnbmrKg8llaSNIYU4tuJbeLcvl1My09XFdndU+Y/GJbVWlDUyiXnVSte7pOPrApD94mj6t5/1fm55ts8zwe4zloCmXD5rh0ZjBLWwbqltMznc7E1Dq/VHxH479pC0SVBv8dq7to9MemReZe82eu78jTh8p/k1b+cZfs5yQMO5v9VF4K6eJAnutcV3X9k7w9fzybJOlr6Jy82fO1aCzJ5PVxGvz5fZatuw5b2eWaSKbdLizT9cMVxpYqgoH9qQTmWX01LHngdaavcr5MpmYLAnFzz/TLhBmCJ5gQAYdlmhbr8WB083z/m6opbJYzYzHUWeccmS94utuE7tqQPqf1ehrYgq3tAujG1fKe9ZvuyKQB7WQLFyb/NF8m7uRHT+ep9guIGd+pMNZNfecZJxeM8lJjQvl9PRsqj2Mn/IKcVn52ZbSwFZ3tvS8ol51e9T1dKx/YKw9uUq6i6opQNmyWTWeoCI6dfUXwBgdu2dUVc9+caU0gzkzvVWaDUGFoJbZM5T+2rrY98se+iBebqTMgKo5Jf4nRb+10Yabsrd1nPjdzGak/FkOddc6Pe1vmPZ+60L25sG0LM7Yw4MbVKjzv7W0BYwpeOv/UBRRTELJ56uf33LQwyRd6tnGucXK5KC81I5Tf11XzC0Pda2S+WDRoPjSVPuYLr3lOy8fkag3KZSdWfU/Xzwd2zYObVKyc2ErTz+ORUDY8FCqCr8WBK7vsWx1hYEkcSc9OASQvOo2K6ZlIJNdUPh4A9Tk0oLQbHJr7Fkei39rpLzGDWUnXts5PMbdkPjdzb2lMAbDOOhdB5St/x+qMsvIFOVtQcYUZ8/YtMOuQGVjUdQtzLWummf57rqvQPiWXPcI1b9sWb/LrJZ79zaZNi7cXeVvseU3rxAmOiPJSI0L5fQ3BN9uKHQw61hFTNxB3JY6VPEs2DWo67c2/ldeVRu3+Ck+57DRq3dM75QO5PPgAeWdlfr7JUZ/Hw6JseEhUBCfOtCK4rsOP2dV7NU2s9YXPz2AQ11arUvzWBRMgqKOnqV7IwntqQ03lTRegTD/rLNunOp95AweQjAuwrGhN474IT/teBmqnwE/HAqizzhkKFLpDTdAz4w2obeybUDfui0kXcusU4qYnv00p5cUL54+MFqqwkw5csIM9wjVfImx6Fr99NQUw9cFi33yzVpzgqCgv7S2U39finodp30trVDqiHwefmRkw/yUp9Cy5dL3RZ8l9iR95tT2ryS+Vlrhf2opy2WnUuafr5AMb8+Dm887K/HyTYz2Ph0bZ8GCoCA6FccEVn+uG6KCqg0tnEUiXklk5Cuv5S3HmFrWR+dsBJgk4mfh868jPtHBpwnGRm/Unw91rJk70erl7pmSmlrzCjBUXapt7rUy77sHibCQFJs1o/tqqL6qV+w3Ftd4m/ry45I7RpXXJErr/66zTUvEx5xXjyI8Xd70HA/Ncx+uETrsQTmCl7DrFe6RwrwfupdDzsCncMoV0yKVf+WPP7jOcPm4+ruI2sfjv2N/muKS8VEd8nqlAfh8LnHfoecjG6WA91s9HZp3y/CX/LOXXCe3PqHlsRj591+vk0qD0OOw9kw2rftpQJd5/FuWyUwlfD8vGWbyE7univZu/hoW/B65Bdp3i38vusezn9fLz6nvcyh9z9t5q5jloSnyMvmKc+0sufvPpQugZrLPOBYrPN88+F148xvHjXf/COnE6FsddLu3V7HVLP8v/Htqm7L7Lfh6XC/Jh+fd2MX/Kh104p0KZ8rjPRtn1aVJjoR/jYK/JNvF5qBuwLbi3Duvy4reY2B/H5v1yL1fbLX5Odb2vC/duc4jLZpwsHs0XjGLl4zXhHm6Xy7ke15mf8zwdTlXc2oqfeKEi2Lq8yq4b/Y/ayd70gGxaQ8FdvW3iU3dv6H+OZZlMdXpZuLcO6/Lidy7Dm758VgzmeRib98u9XG23+DnV9b4u3LvNIS6bcbp41N1QuvL2eL1pDvdwu1zO9bjO/Jzn6XB4NtrtGNfn8GN2oXG6ckvfHGa5n8i3+xxoRqA/uemjnh1HxtyH6v7Tn/g/x9vrdfP3araXuFpTT6cc/z0XfpV62/1TGUPJOqExKGqEmV3H2341kXuVCemhMOyU6UOVLQEALk9Hnj5mcqfS+h2HXQEAAEdAZdeZMa24pgOZre3MD8vHNxn5g00Ce3OzHk3fkwobO3iheLO5rER/ZGeIC9OVPu8P8QwlMxksRtL1vhnoiqPuSNKZTpZ6xqbuxgov/QzU2W4xUivN6oVd51jy69hVXKVWR08/rM5R/RiN9bTwZzAl/MXoyau6HrTqAnA8Nt0pHzgawPbIzwE0i8quc7KayIuePGOWfpHuPH3ITH/DBhpkp9xNZ5zSM5QMBupG+/y2rbP0tOGL/BToOdFY0ol4emInsYq3j2eZ+ZvOBNN5kr/jSBajP+WtotwzEN7On01IGczSLyJVYdc6lrn8yc3kY2eGmsrLhso5AAAAANgNFcG7orLrjISm29e6t5H7CWhI70EGyfS0c3mfqvvu4VaixZeYtl3LL/XXDVPd3v0oH0PObF+sLLPTAU+ldGbxyu2y0wgPcvOXl4Zd51hW36LbtmXDJOMBAAAAgDaisuvsbKhgABphW2KZboumokfdd70f6l9b+TN/100MH5IWhtuy3SIXMuqmY2SZpTtSnx5Xm44FAAAAALA/KrvOTtq1DDgk02JQdzvULZ+iW+mq/+xHczNeV77l1DZsN8koHSMrt2w9DoppnbWBa8GVbxnZ+LEAAAAAAE6Kyq4zEuqqpenxlICmmftt8Sa/XqZuIHo7cP3i7cWM15WvNNpK99bcy7abpCcwS2JGyXa2dVb2mD5ztcJ2nUDLyDrH0tGt2vSY/X4fyMCslQAAAACAk6Oy65x0nuR5oL5w973KAPWFvM9sjDgEU8GzkMVCD79la4hMKyj1wSJ6lKqx6Tdy93J2UPm5DPXN7A0CXxDazg0wn98utE40/l3selnrWHrye6xnqHzxnr0/MlpEMk5H4cdBqGtxc7Nxls5d6dk9b+4nduIERc+6eah9AcBeVF52r9LDw7xjsS9wSP+uSY38ddNLyB2R1wI4Biq7zkzvdS2zgTe+UF9krL+EA41zMyj6LaZMKyilavD5mvS9vByLN1ZWX6aDmaw39BssbNcdqYdgWdhuMHuWr9w6ZYPJ1zkWPfNpZp3+pwryw6tgsxVii1FX/X2oipA4B/rarz+e3P3sZt0EgKvTkaePmdypPIwGy0j0XmW99ss6TSCvxSnxEvWodIX5CTOVm7UelKYB+suf1lBwV4/4TBEXh3WV8asT3kJl1eFxL1cLx48ulPTls6KysjnH3Nd54d5tDnHZjKuMR92yqzuSu9nhxpPUX8y6b4+yTF4CFHEPt8vu1+NUeR55rY/n6XDCcUu58ph05d/7QzjPOsa9T8suAFendPwutNg/VWCIW95l38jpL2fhbha6kKHWr3ijlLyBM92D+qJ7hWda55kuHOl+N7faS7sCmbDj7by3fLHM3/PrJN2V3Dm4xZxK5piK523jI92GriK4Nvlnb66ficAzmLfp2THhDid2vEazjnv+3DOZJDV7PL+V6UJAvH4xTUzDqH0eSufpWQaLkfzKHxjOUr38oDx/tfdr9j6tE2Z2HW/7srwWwAWay/t0IHvMaba/dUN0UA0Gd/WIzxRxcVjXFr+zgT3faLx0nxwP93K1cPzM1gP3+WDmPlqO15H6PbmG+d9js4HaLlpXXWpzP0TjtV3F7isfbrJftdY48tcPcetktnPnkH6Q26/mtovXcfsWGaitrfjeTbcrHs9yHGXPuSxuthS+NtgFcdmMsni0z0n63NhnIvuchNjtqp+d+Bnc+Dzt+PyadTLHGU4XkqTEpHF+WqNX2ZwGbDqP4nFkmfNQC9qh7HrY61x1L9TIX3P5aJ37K7+O/T19FuL9lt1/14bn6XDCcRvff+Pk/tdL1T2cKpbn8pL00z0bcfjJM+DS7cLnpWw+oI8vTrvNEkijM3/Pr+OOZzBLn3u9mFPJHFPxvG18pNvUfnZ1uBVxFYd3SI2FfoyDvSbEZ4q4OCzi93iI62rh+AkXLPKF59CXs9Bnedl1cgVwk/lvKoTkFb/Aapn9JAUO86dE5pwCXyDs8YS+2FZso+Tjahfcu80hLpsRjMfgsxV+JjMqn5204G+/SNR4lvZ4fuukC2ad0PqV55Ee96bzyJ93Hvdwu1Q9C9X3dI381dy3bv1a91cozFzeWvj9uvE8HU44bt09qpbkNs3f2yX3euZ5KFFZrnThpo9HjfwpXiezXfE5y+5Xc9vF67h9F/MCf7vi8RTyg7K4CdDhe4dYEL4+zaIbIwCg9Qa5NtCdn48SyVTeXf+Hnp5NYTGSP0l/CN10Wm33XD7uzEZmQoap9G+87kl1VU3i0HmSD5XH2/ELbLdH3dWjGxiwN54JNeVNGJG3/JKF+vtjbqrUfFwBl2r17808A9lnpCN6IuFKlc/OQr6W7gMtupWyRzBvq+d3i3RBp2/D7kgWg1l2HJRt0oCK8zAzL+fPG+dli3t6U/6aqHN/rb5FDxSRDbMnr+reZnwutIqffqr09+9YTzL1x3arjWdqf/uX6UY+1wXLfWakN8+Q361PTwziT5RUIRpLOgG8m0Ts89se32oiL4Uyb0d+PkYi0/dMV2F/ZnpTdlbS7dw2iy8xSYQK185m/zcd4zgfV6V0ObwizzsSKrsAAOev91tU3qvydJv1riYvqui95zgB5svn0obbj8ce2aHiKyAdl6cro8VAZuqLwFLvaA92LDpvtt540V+K7SrAFSiOx9i93e/ZOpa66cK0/y63JmF6yY6l1FQaEM+8DHjIY3BJeIkaO9BLVF3xvU/FYEOo7AIAnB+XAacZtP8GayX/3vSbqPTt1e7cWzdViFh7FV97VXjNh9LXLwfHSxfuawPHqY7UtMaIZLyMjze7ZFqAABfrU75z42Uvv3b8Km7SmSPZIl3QaduTHkheVzz8SgewbywNOOZ547jqXNtC/mqRx+Cq8BJ1rwpu3dJaHn/uXjHYECq7AACt95n79hqaUTN50zT5J2+L4puo/XXk6e9Y7aMJ+eOzFXR7MW8MF/L2L/dNPzCbFnCJbBqQ7363EpNcVCl5dmw6c8xuGPXSBftmvievs1zLg4bSgOOfNxq3xT1dJ3816txfnR9qy7SCwHItTZr4Rg8cCi9RC3av4Nbxpeu6mi6Hb4/KLgBA6y1GvzJTl9sxBHKFDjfGwnQ0kkUTTacDXxDDYwJtyX1hGKVt49Up/ZLg0DzbcOefiStVRBvqEtDgOR1vAbhUcRrQH6o736r1bIWeHZfOHO3Z2SVdiFsexOfbUBpgWsK1oPsJ9rDFPV0rf9Vq3V89+W1uSq+L7fyPuo/VF+Z0wCHg5HiJWsOuL1BWKr6kHXkIlV0AgNYbzJ7lK25G3R2JjJfBwW6Lg21uwxbSF6Ou2o/68th7leVYMs237a4/9vvyq74wfOgWGdN+Gu7boyz1Z4EuWNvovepm6/4x92U6mMma/iW4EvoZmA3smCjxszW2yUKlwrPj0plaz44p+O/5Zn6ndCH+oqTO1+18/zSggXFp0Ap17+m6+atW5/7qPH1k1+l/5vLNXF7rPgWOqVYlr6vg5SXqdi9Q2tKF0Vg3RAfVYHBXj/hMEReHRfweD3FdrZH4MdNCl0+pj91w7zaHuGzGNvE409OrV81/joSZZr5yGnzu4bY56PUweWq0HlfdENgLz9PhhON2th6ozwYz+/94najsJjfPgF7f/b6ByW+8NNSkqWYftmya/h4vm56v5XocqfVyB5DfT3ycyaL/5j+/y/E6Up9nggk83/b4suXowjFXRoY+3nppRhzeId3of9RO9qZr7rWGgrt6xGeKuDgs4vd4iOtq+8ePHhekK2+P5W+lsRvu3eYQl80IxqN+a96f6nJ4OpZI6DOUmMvwpi+yIa64h9vlkNdjNbmX7uhO3RLNjAGEIp6nw2kkbk0eopNFnoGmHePep7KrpYjPFHFxWMTv8RDX1XaPH/sFbap/pMveQXDvNoe4bEZZPNov537fDT247p5dj69C/ZcF3MPtcqjroWd3072V9KDXvEA6HJ6nw9k/bnmJekjHuPep7Gop4jNFXBwW8Xs8xHU14qe9uDbNIS6bQTyeDnHfLlyP88b1O5zd45aXqMdwjHufyq6WIj5TxMVhEb/HQ1xXI37ai2vTHOKyGcTj6RD37cL1OG9cv8MhbtvtGNeH2RgBAAAAAABwMajsAgAAAAAAwMWgsgsAAAAAAAAXg8ouAAAAAAAAXAwquwAAAAAAAHAxqOwCAAAAAACosJrcy/1k5X4TmQ9v5OZ+IuknzdH70jMWJstw7v6CuqjsAgAAAAAAKDWXP6OF+9nqva5l/fEkHfd7U3RFV3ckMl6q8NdqWY4lmvap8NoSlV0AAAAAAAAnZyvVovFfeYpr0TpP8ncciUxfxGtYhg2o7AIAAAAAABfPdD0cTmRyH3cRvE8qkMzf/K6DcRfF1UTub/oyVT8uRl31t6HoNlbZbowrE6bu5pgJJ9DNMf/3ue6yGK83fzf7ufuRbS/W+XGn/l3I19L+js2o7AIAAAAAANdhOpK3x6XtIrj+MC2odAVU/3MsS/OZXpYylpF0ddfBzpN8rGcyUJtGY73dq/RsSAW6Muz9IQ5DbbNwYThmP9OBzNx+lo9v0ve7R/ZezeevuR2svj/Vv5Hcdu3v2IzKLgAAAAAAcCUG8pz0EVRWE3mZqk+f/fG3OvLzUXcdfDetuGqLxvI7qajqyYOuIfv8TlqImf3M0sqyztNf0T0UK6ntfukKscFz2rURG1HZBQAAAAAArkN0K5kGUqblVtyaynZH1F0Mu7kB6Wu5+1E6YP3q35ssCq2zOmJ6KJbRXSi7I1lEY1nmm3uhEpVdAAAAAADgaqXjaHVltLDdDJcbm1zt4k5yw3FJ97ZsP3MZxhVdB5j18dJR2QUAAAAAAK7TfCj9aTwelx5Lq3xMrv19ynduxPrlV0kLMjdYfbZ7JeqisgsAAAAAAFyxSB5/+lVKK/n3tkM3xgqdn49qL/kZFVdixp4vxaD0u6KyCwAAAAAAXKfuramEGv1Jh6JfTX7JLkN2Veo8yfNAZNofJoPeV+7HzMxoZ4vE9qjsAgAAAAAA10kPUD8ztVBu3K4b6b49ylJ/lnQ77MnvcSSLUVf9Pa2s2lbvdS2zwVT63n7GejcBdhyxe5nkuj2inpu17pTaAH2htIaCu3rEZ4q4OCzi93iI62rET3txbZpDXDaDeDwd4r5duB7njet3OOcUt7pSqy8zWV/RbIvHuD607AIAAAAAADik+dBU8gz9ZmFucPzBw/VUdB1L4y27AADAZeLN8/4oLwEAAFiHLFve/Pfff42E/r///c/9BAAALpEqM7ifsCvKSwAAANYhy5aM2dVSxGeKuDgs4vd4iOtqxE97cW2aQ1w2g3g8HeK+Xbge543rdzjEbbsd4/owZhcAAAAAAAAuBpVdAAAAAAAAuBhUdgEAAAAAAOBiUNkFAAAAABdqPrwx4+PcDOfukxZaTeReHWObDxHAeaGyCwAAAAAu0WoiL1ORwWAgMn2Rycp9DgAXjsouAAAAALhAq39vspCBPPy+lUj99PaP2i4A14HKLgAAAAC4OHP5M1qIDB6k13mS54HI4u2fbK7uWsnk/kbuJ6u0C6Re7ieFbVeT+/TvatHbuL+YMDJdJ+fD3Dqui2UuXBvmfaAV2lyGej/0dQRQA5VdAAAAAHBp5u8yVf8bPPTMr70HXds1kj8164oWo668P6xlvdbLTAZq265X0aQrpbojkfHSrbMci6htbGVWR34+RiLTd4m3WH1/mv8vvpbm/7pCTH8UPf5Ua6c6Px/DrdDM+UQy/m3PBwCqUNkFAAAAABdm/m6qusTVdenaLvWbrn+qWdsVjSWtV+qJriuTz2/bCms1kV+jhVrlrzzFNVWdJ/k7jmQx+mMquDo/7tS/n/Lt6qyWXws7dlgSxj95W0Ty+NOv6lJKWqGZ84keJb86AIRQ2QUAAAAAl8QNTB+Nf0vaDspVWHmtrSrd/ci0uMpYfslCihVVtlXWVEx9mqlci1tozeV9Gsntw61Eiy8xbbtMGHfyI7CTYis0vb3I4Pmp/JgAwENlFwAAAABcEDswve2K6I+p1deNvWQqL8UBsbZiuyQuZNRNwzZLd2T2a9nKNdNtcfUtn7piq/dD/Wsrw0xLLT2emFs7o/dbxqYXpK3tWk1e1FZeKzUA2IDKLgAAAAC4GG5g+mgsSzPelr8sTSVSvYHqy9kuilE6XldueXWVUt1btTPdbVG34opupav+sx/NzXhd8XhiRf6YXyv596a7TPqt1ACgGpVdAAAAAHAp4oHpg13+XCXSFgPVB3VvSwaR1zMupjMpmm6Nizf59TJ1A9Hb/S/eXsx4Xbddu15I0iVyUjK2FwBUoLILwEbJtNNtnup5NZF7dYzMRg0AwLGtZHKvywppJYfPlCPuJ3u1JEJ9hYHpczpPz9sNVB8SDyI/+uVd87kMdT/JwbM3aL3utriQxUIPAWY/NK3C1AeLTYPNu31MR6PN6wJADpVdAKq5AU7N7DnTl2AhFgAAQPQYTns1F8LeggPT58UD1e9Xruu9rmU5Fm/crr5MBzNZx30YDbcv8VpxmVZhStUA+I4ZqF5hYHoA27pZ607VDdAJnNZQcFeP+EwRF4e1KX5Xk3vpju5ktryVl+5IZLyUj+R1XYvoll3q+O5m6TgRbcO9XI34aS+uTXOIy2YQj6cTjnvdsqsro7uBDKafcrv8SFv2KLplV/9zLMsPKiyadvHPgu4W2ReZrV8vcrwu0rLDIW7b7RjXh5ZdACq4AU71TDlxc/VaA5ra7gz3k1XaBVIvgS4MujIt+bta9DbuL7ZLhN8v0YwD4a9jC9D5cG2Yoa4Ucxnq/dDXEQCAA3iQ37qlz6/NXRYPkf/j0qh7QY/1xcD0AHZAZReAcvEAp27QB9OUfIsBTfV01+8P8cw8Mxmobbte4dW2GtONxdw6ti28K8z6s/BYdpprFa6ewtpYmZl87ICnKTugaWjQVH0+kYx/U2QCAOAQzHhQG8oKh8r/cSncy8kb3Vpw1s4eBQBaj8ouAKUKA5z2HrYb0DQaS1qv5MZs0NNP619XE/k10tNI//UGMX2Sv+NIFqM/poBrp7X+lG9XZ7X8Wtixw5IwSmbnKWmFZs6HAU4BADignrzOBjJ9KWl1dcj8HxdC3UPmRala2jo2BYDWo7ILQFhwgNN4QNP0bWulqoFHl1+iirqFgmoyzbTegalci1tozeV9Gsntw61Eiy8x73ZNGHfiJvfJKLZC09szwCkAAAfX+y1jGcmv4ngCB8//AQDQqOwCELT696YKkrYroj+mhp5RWlRh9CVUgN2C7ZKw8GbwcUt3ZPZr2co1021h9S2fumDb01NY28KwaamlxxNza2fogrbpBWFru1aTF7VV+TTcAACgKR15eh4kLbV8B8//AQBQqOwCEOAGpo/GsoybkSfL0lQi1RuovpztohCl43XklrjVevdW7Ux3W9BvcaNb6ar/7EdzM15HPJ5YkT/mx0r+vekuEwxwCgDAUfReZTYovhw7fP4PAACVXQBC4oHpg13+XCXSFgPVB3VvVVE3NIi8nnEpnUnRdGtYvMkvPRuPGYjW7n/x9mLG67jt2vVCki4RE8b2AADg2Hp2akZ50Y25YkfI/wEAoLILQEFhYPocM9OS+n/tgepD4kHkVSE4fek7l6HuJzl49gat1d0WFrJY6CHA7IfmrbD6YLFpsHm3j+lotHldAADQLJMP2zw8cYz8HwBw9ajswplayeRej/GQvgH0zYfqb/clswC1QKuPLzgwfV48UP1LMP7r6r2uxc427sbruOnLdDDLzbzj9iXeW1zzVlipGgDfMQPVKwxMfwniqci95QTPkZ4y306PDwDYpPc6My/IfMfI/3F6TeWXbS/X41xRrrx0N2vdOb4B+ubQGgru6hGfqXBc6MquruhhpaRQOLKZYv9zLMsPKjg2ufh7TXeL6IvM1q8nH6+L57paVfzogkDXTFW/lI/ktX+cDuixXz7S1gAHpQtGffnMHMfl495tDnHZDOLxdIj7dmnv9Wguv7zkcj3P0+FUxS3lytM7xr1Pyy6ct8FABnu2LsIlU5mWHuuDgenP22oivwoFEq0jTx+6xcBCRr944wsAAIANKFdeDSq7cOYexI59ujlB0jX4ugY5XtLmoq5L5NAbf8oMkuqvY98qhZu2br99Niy7vV7XfB4fY2Bf5eeArLhZcldGd7Ore1NyaeZ/9HT0A3kOXsee/J7NMm97zXM0nNjn0twHaXfnOs9Q5jnUS/wsqsLRve5qo35cjLrqb0N1p1m7Ppul+wIAYE/ZvKk49Edb88tMuCrMb/c50ATKlb4mvofu+136gNYN0UE1GNzVIz5T4bhYrseR+nwwUz/P1gP1d/OjMxuov0VjtZa1HEcqjGg9Tj9YR2qbyH1g/z5QIVn29zh884nZX7x+3rbbZ4/PnUvmHOw5pdvHYZafw67C8YtDIK6rhePHPQve87yJeb7UNvlno84zlE87kuczeRbt8fjb7Ppsbt5Xe3DvNoe4bAbxeDrEfbuUXY983mR/T8uqWhvzS3tMgTL1FuWAc1J2/bC/cNxSrsxy66jw09VcHHnbbTom+/ftvkuHr0+zGgv9GAd7TYjPVDgucg/vbJB5uDMPe0kCkXko9fbeA6y3Hwy8ME0Y3gOet+X22cTInYt3/NrW57Aj7rXjIa6rheOnmOFuYp6d/HNR5xly6+R3lX3OcoWSXZ/NWvtqD+7d5hCXzSAeT4e4b5fw9QjlncUv1a3LL0vCzZabLwvP0+HUfzaqXXa5sqHvoTt8lz7GvU83RlyG3m8Zy0h+hZp4Lr9kIZE85uao7vx8VJ9O5V23uOw9mP7Zb//09nN5n0Zy+3Ar0eJLlnplE8aduJmvi/bdXquaWajOOQBIRbcST95l1HmGOk/yofJeO9+Fa5J9c2MGMC2167O5y74AAKhj9S2f6n+DB3/E0p68qnynMLRDi/LL1b83s04y+6bTvVVftYFTuvRy5b7fQ5v4LnwAVHbhQnTk6Vk9YqM/SV/n2OpbZ/cLb3prt3R1f+2Ynd568aUeR1NAUA9j74f61z7A8/epLjFUDHK+7/bV6p0DcIm6Ysq4n98q695d3WcoHa9Az8YzkJkqOCzH5YXsfZ7NbfcFAMChnT6/PP4XYlwTypXbqndMh/0uvCsqu3A5eq8yG0zlJde6q/PjTv2rp5A13XYLi60Bd2+NdMKna55N7b1NDD+/56Kf8ezbsaJ9t69S9xyAy9MRc/vHb4YC4gEz/XEx82o9Q/Oh9FVeHI2X7vPXjZnyzs/mDvsCAODQTp9ffsr3PrUQQCXKlduqe0yH/C68Kyq7cFF6dmpGedEV0LHurXo842aVHpUo+LNpmKaYizf59TKV6PGnSgo78vNRbfn2Im+LYpPqvH23r1TzHIBLpJ9r3Uw6X5FtreTf20Ln7vK7Kg+t/Qzlm2m78Mvs9WxuuS8AAOro6BYVItNMnyfXtanqG7x2wvzSdotaiG4c4lt+kTeiOZQrt1TzmA76XXhX64booELB2QHdSpaygQbNAGfZdcvHkHODzGUWbxC2QFihZYsx6o4iPq5S+rx2OOhzHOAxHBe5Aeo9yT3nnaf9zB8ULzQ4YXovJR/H90+tOKu/ffY6hM8lf63qncP2zPGppY2W46gwGOIu8nF5KlVxrc81/rtZQtc1n55VXXszEGTVgJTtE59XSBw/2fvBPTu5AS/LrvfGZ8gNwOnHa3pd4ri02/jHsdOzWWtf7VF1bbCdsri091HJUpZ+Bco45bddmkely/mWl+LjKaXPp+Jg25IvxHY5nnweeaxz2hj3HuL58Mquh81TvLzJPOPtzy8L68RpU4vivEll109L49QtoTQtn3ZXpHv2up1X2XAfcZyExHFLubLJ76HuM7UkH1c8v/bY6uUlu2os9LKDtRETimAXGbkTt+vnClNxJOUuQvx59iaNw8jepAm3TT6otjHnq5Yy+hzbfg5NCcdFeWWXip3gvVUnwyjcO4GEo0rd7c16yfHVS2S0WpneluKw2sdex/zzvYtQXJ5CWVwXMtxQmldIu0KZTCzObM6rQFMWP4n4efKXwHWtut4bn6E47uNFh2M+S5/rUOFhp2ezxr7aIj5G7K8sLm3+QXmpLnOeaimjz63q2KvSifPQXB65rU1x7yOeD6/qemTzpuKzXnV9Tplf2rQpXgbrsd7mrO+jcvF55sXxdO1lw32UxW2CcqXS7PdQ++x6+6v4Lh2Hc0iNhV52sPaEww+VjTAvMgoPrCfwt/Ibr+JBr9pHi5TFp6XPj4QKzWhv/DZXwKzKpI4pHNfh9Mqmj/FzXlK5G8rAXBpnl/NKJ8Lxgzbg2jSnLC4pL22nLB6tzeWktuQLu2suj9xWddxnEc+Ht831QPuErx9lwyaE4xZtcYzrc9Ixu+xgZ3G/7JVMXsyoauH+sb3foh5omb5M1Jraygx0Fman1l2XjuB25ubvMjWzGQT63pu+szdy73XoNTMz3Nt48382ca621+umszf4f0/FA/XFix8+Llf2uhf7iZv7ZjhJprf116lzz2TuO73E995qIvc3fVEpgixGXfW3YTLL5tbhqjC/3eetFJwePOYGaV39EzN8QHEu7mwfeh1v/alKRpfM6gdcEMpLW0rKSak6+cLG/MWVsdIlzZtiu+ab5vOk/DWXofrbcG7/H4eXHE9JHpkNw6o+p/rlwLqI51wYRvPxjAtH2RBoxEkru+w0lvFgZUsxYw/e/RB/WLVUfuaEjjw9D3TuI90ryyz01J028bODvsn0PSkE2DjV0RSP7GgLuXaQuDCdgb8/2NkU1uuZDHScehVoOgPvjiSdgWGpB4HvFgsnuCj5624ve7HAKdORvD3GM398yJO60ercM7rA1/8cy9Jsp5eljMXde50n+dD3olpPZ87xjCK1w53a6XbNcT++yUiXVNvKnGtxdhU7GGt2+u27/FzcbgDahAvrQ18EABeD8tJ20nKSVSdf2Ji/uC+Mg5n7u86zoqn0vTjdJ98Mmfb7og7arucfT0kemafPe1OeqW0qB9ZFPAfC8DQVz7gClA2BZqgEtxE6qFBwpc3y8/033e8qM7G/BxSa8WuZZpl6yf09r+XN8mPx+RTpZq35rgzp7zq+BwP1Wdxk3MRr9u/J3+Lmr7nm5Zl1Sq5LthntYZXHBZoQjt9Q8+liU/7g813nnnHr5J/D7H2V298e4Wbv+9Opey/bc/LOtTTdCjdz1475jDalbvzg+Lg2zSmLy2B6qrl0jfJSVnweRblyUp18oU7+YuKjKk3dI99UsvlUOG3PpuslYdc6pzh+apQDA4JxTzybv8WaiOe6yp8FnIO618/eU969diVlw33UjVucxjGuz5Fadk2l7zXtNUt3JIvBbP+m871XHUNu0W9fFjLq6n0UmzRfBN2sNXqUZFbR3oM5Z9tUdS7v00huH24lit/oLr/UX7NvAApK3w4rZvv8NKbipgaeSmZGY1yOYPNp292l8GYoupVMA+o690zmjZXrjqvShe5Iv7EqUSPc1b83s06xRbcqip6L+dDGg0ofeQsHXBvKS3vLlZNq5Qt18i3TNchen2BjnH3yzRL5Lky2O6vrwrRJ5TnFXWKdqnJgTcTzceIZV4qyIbCTI1V2pU2aM4tfcHNNLtPud0WhpptZbuwJ0+RZF+ICTZrPnC5MqBzVyyx78jBw8WYKACp+ejoubaFBN+VXubhaaze260RcIM4Vvu0qQEbde0Y3+7d/68poYdOIZcVYAvXvxQ2Vuy2mu2bcuHEVMumjKfyXK4zXAOBMUV7aV7GcpFXnC7XyF/OSRseX7vaWrnP8Xmi5CpRWIZ6BplE2BHZ30jG7srpiXv58fpeMJ+EGWI3f0phBI8syPzc+Rd23MmdjJbYMly1JmLdmOt702yUTPzYuP7/nJs7yb6y2Yd9uRek4BLll3xfNuDy17pn5UFS+bTNu83l4HAxf/XvxPJ97O+bHwsRJ2Vu7z/yJuTfchfEaAFwwykvlwuWkTedXP39R8fURf55WyBy3IqbYemorpiXSoRDPiYPGM64FZUNgPy2q7EoHUP0Tyszmf8S03nx+Umsq7s3m1LR5LrJvj863hUeQnnVDvC6MjmkqvXiTXy9TNxC9Hbh+8fYib4s9M+v8jB4xM1POhXYVRcnz5bobbipt1r5n8s3+9ZeUiqJhjXCD3QYU28qhvfRbO135N5iVDCDa+Sl6LopCSw7XfYKXd8A1obxUKlBOqpUv7FTWUdfh71ht5+yTb5bIf4nd6lqVnJMNo/l8g3g+TjzjelA2BBqwbogOKhRc2QCRZeLB9zJj6sWDquYH2os/zw/u6D6PxoEhH0sH82sXc15q8em4CZ5TPBChf14lcZMdDNMNmJmLjPyAmfYa+gPZlg98eAihuEBzyuLXPovedTf3lH8fFO+V2MZ7xg3o6t9D8bOfphclg8JuuBcL65SlEycQjOuSwW0LCmlX9XNo4/O8BiENxg9agWvTnLK4tGkX5aW6zPmoxVdWTqqTL2zMX8w2/t/ja5B+lv89tI3ZT1m+mXzu9l0Iy79WJXlk1TkV8t565cC8UNxrhf0Rz/EHO8VzXWXXA+cheP0oGzaCZ6PdjnF9Ggu97GBtBrDlQxVnEsmSzcCy4oyq5vqFRKGd4nNJ6Yyy/Lw2Z7RWNmOtn/naxFHvwy1HjMBiXNRVLKAUBApITdDxtTGDaomq+M1e92I8VRXUNt4z7llMFh1O7nqkYaRpSJ170T4P8TJYj/U2DRQo9xUfk69wPpklF+f5OKt4Dm24VHadStWzcY4u6dqcWllc2nSL8lJd8Tmk6pST4iWcL2zKX4rpdXF/2XWKfy9LG7Kfu/LLYJC5vvlrke7L3jehsPPHnC2bNFvZpRHPdmkinuuK91lHU/tsyi7Ho+Paj9+2ndO2Qtev+Az4S+5+v/Cy4T7iOKmDZ+P4trk+u7rR/6id7E0PHqk1FNzVIz5Tu8fFXIY3ffms6Od+GKfa7264146HuK5G/LQX16Y5xGUzLjse212OuJy4P6/yWpltroceA6r/OZblh+vmfHYu45r5yBMOh2ej3Y5x77dozC4AAAAAAABgP1R24ayZ6Xhv0qmp74Ojm/6TYdk6gUFR64SZXcfb3sx61Zep+nEx6qq/Xc507sBp2IGH9XOo37olz939RP0lq/zZDQxebJ797PNtwg+Eu8v22bCaOAcAALaTz3O+3ee+jfmOy+/SpVi2LS0XO+Y4hhObl3rrZPNK3TJFz7pp/x+HlxxPSRk7G4ZVfU7182RcLp6NXBjG5T0bVHbhbOmHsDuSdArr5VhEPeD5hGgxUivNqteJ6QRgU5j5dewqLnHrPMnHeiYD9WM0Xqq/v0oykzaAnenM+/3BPZf6GVuMpOtVPlU/u3aGWpm+J4UQO1OWCjeZxWgl+iM7o23evttb+50DgOvRk1eVBlxKN632uux41uXk/nSgisA2T1k+vslIfxv2bMx39Jfo/lQPA+XyrqWMo6n0vS+/leVi33Qkb4+6bKzX+5CyaJ/2++Fye80ydv3vB9V5Mi4Xz0YgDM9FPRvqJBqhg2owuKtHfKaCcVEyS4kdeDEeuNENxpsbqDEzOKM/IHplmPFgjqEw3QCnyXb539uNe+14iOtq4fhxA/vmBtjMDLpZ59nNTX6gtx8M1GeZMIqDHCe23D47KGhD53BC3LvNIS6bQTyeDnHfLsHr4fKU/Fjlu+WdVXlQnXKx228gnGxeGQornw+WhF3rnOI8ukaefEQ8T4fDs1H3nE7zbBzj3qdlF87T8ksWEsnjz2zVd+fno/p0IUljC2XwkK3btutM5T1fQV0Zplt/9S26PUc2TN7AAgd396N8wNA6z27vQQZqrbd/+u3VXN6nkdw+3Eq0+BKTXJgw7uRH2U723V7b9xwAAKhh9e/N5Cm3XfeB071VX3djdfKdrsrn1M/9G92Fyv49Y5tycXQrucMJKpTbf9ypfz/lO9v4JKzynLLfDyrzZFwsno3rejao7AIc2y1pIaOu10dZL92R+hRAW9V7dnvyMFBr6dzcFEDu5Efvh/rXFlrm71Ndigg2+7b23b4a6Q8AoFnVL2Bq5Tume5TunqW7UKXrHL9HU+7LOLAXno1rQWUXLouptd7A1Wzna/Rt7XiU9mPOLa+7fosFcFB1n13z1u7zW1Y6DTBv0bpiP5qb8bbyb8zy9t2+CukPAKBZ1S0+6uc7HXn6iD9Pv9wf90t9sdy+lTrfD3BFeDYSF/5sUNmF82SajsZdilK2Jj770H/mUjO7TqBGvyRM8Wds7OiWHCohy/QpCszUBuB46jy7immqvXiTXy9TN5C8HXh+8fYib4vNhYV9t69U8xwAANgk2DVJWX55X2t3ynfUl/u/Y7Wdc4Byce1ye8gW3w9wnXg2ruvZoLIL56nzJM+6S9HoV5rgrCbya6QSqsFzZhaL0DrR+Hexu1EoTJnLsK+7J8Vh9uS3qbZ/SdeZ/5GR+qI7/n29TS/07B7tmZbWTsubn1kk40AVCHrWlcr94jBqPbuKKXgsZKGSiTtXMjBv79QHi+hRcsMYFO27fZW65wAAZ4v8+WhcnjLte3Gp4lZnKYk6+U7gemTHPGq+XJw5HrX/blm5PSR0TiXfD3CleDbSMK7g2aCyC2er9xpP4Wr7SOt+1KKnW8319xnMnuUrt07ZYPKFMG/6Mh3MMmF2nj6y6/Q/VZD+NLE2cdPTtt7cBKaXvUA63tYfT3I26WTvVaqm9t3NXP7oDAMnUefZ1c+mHncr8wbLvOlSag3Gue/21eqdAwBcMPLnxug8ZTbwxh3qqyKw/vLt2ZjvqOuR/fuN+oKti9LpNdpcLt5ONLiTtySsqZ6Aziu3by5jF86p5PsBrhfPhgvjCp6Nm7XuZNoAHWFaQ8FdPeIzddC40LXyeyY85+7y7jX95rgvnxWVmoexeb8819WIn/bi2jSHuGwG8Xg6u8d9e/Pnc3Y5z8JlX6cypGWHw7PRbse4PrTswlXbqq/z1Qj0JzdNdbNdD/yui9lujHZ7va75XG1nlkA3R92tIPl7Lvwq9bb7pzKGknVCTY9rhJldx9t+NZF7lQnpFtDX1KIPAAAf+TMAoC2o7MLV0hUxW/V1vhp20G2ZvicFQlspqAqKyWiOKzP7nB2kO0wXKt8f4hlKZjJYjKTrVaDpgqltPevWse1qSwrGKXvdNm+3GKmVZvXCrnMs+XXsKq7Q3NHTD6tzVD9G46X6+yv3FADgqpA/AwBaRWUKjdBBNRjc1SM+U8TFYQXjdzZQn0VrVXB0v8p6MFCfReO1+Wg5Xke5vyd/U/+OI/93K7OO2V7WquBp/hZbjiO138F65n4vqNwuPp7ZWhVq17ojuy8Ttn9+tY4lFKb9LN0u/3sR93I14qe9uDbNIS6bQTyeTjDuzzx/Pmc8C+eN63c4xG27HeP60LILQFHvQQbJ9LRzeZ9GcvtwK9HiS0zbruWX+uuG7p9VA3ab7SN5zE1fZ6cDnkpmll5f5XbZaYQHD9l3t6Vh1zmW1bfotm3ZMHvyqtLpaxpXAgCAIPJnAEDLUNkFIMDOOme6LZqC5J386P1Q/9rC5fxdT737sHNXANst0psFJV66I/XpcbXpWAAAgEX+DADYB5VdAIK6t5HI57es9JvV6Fa66j/70dyM15V/M7uNzo879W+UjsGRW7aeAde8/d3AvSG+7brfncaPBQAAWOTPAIATobILQJDpJrB4k18vUzcQvR24fvH2Im+LYqF0K91bVXyNu0l6ArMwZZRsZ9/+Zo/p8zu0TqDrZZ1j6ehWbXrMfr+PRWDWSgAArhH5MwCgZajsAhBmCpALWSz08Fu2BGresqoPFtGj5IbQ2E7nSZ51N8nRL69iay7Dvu4e+Sylw2yEtltN5NdIHWRuu9A6wZk3ax1LT36PI1WafknXmf+R0SKS8W9eLQMArhz5MwCgZajsAlDCjtuVeSNr3rIqVYPP19R7jacHj8fh6Mt0MJP1hn4Jhe3sfOOF7QazZ/nKrVM2WG2dY+k8fWTX6X+qID+8ArwtcC9GXfV3N+U5AABXgvz53MxlqOLrPq1JLNrU4n5Hq8l99X4BoAE3a93pvQE6c9EaCu7qEZ8p4uKwrjJ+deGtUBg+PO7lasRPe3FtmkNcNoN4PJ2Dxv2J8udztvv10JVdffmsqGw8jFPtt51Iyw6HuG23Y1wfWnYBuDql44MAAICTIX8GADSFyi4AV2U+vJFu2fggAADgJMifm6e7C+rWE/ES7jr4z3RnDK4T6MZYJ8zsOt72q4nc666o6ke6lQI4NCq7AFwVPf6Hbi5L03kAANqD/LlZtvJQD4lm43VtBzYrVE4tRmqlWfU6MV2JtSnM/Dp2FVep1XmSj/VM9JCwkR7Pbf1KxSaAg6GyCwAAAAAuxWoiL1NdofQ3Hfus8yR/zUD9/uyWymAmyXj/yTp/ii2ukpkzQ2HG68/lT24Gzs7TswxkKi8lFWgAcChUdgEAAADApVh+yUIiefyZbSXX+fmoPl3I19J9oAwesm2r7DpTec/XdlWG6dZffYsedS0bZk9eabEH4ASo7AIAAAAAlLKTByxk1E3H6zJLd6Q+BYD2obILAAAAAC6daZ21gWvBddt1vzudH3fq3ygdryu3JF0hAaAlqOwCAAAAgEvRvRXdXfHtX3acLNs6K1uR9fkdWudOfuR7HZaEmZmxsfNDbSkyzfSBXMnk/kZuhoVRwADgoKjsAgAAAIBL0XmS54GeadEbjN4NMO8PHq+F1onGv4uzJIbClLkM+1MvzJ78Hkci05d0nfkfGS0iGf+m6ReA46KyCwAAAAAuSO91LcuxpGNsdUci46Wsc/0NB7Nn+cqtUzaYfCHMm75MB7NMmJ2nj+w6/U8V5IdXwWYrxBajrvr7sDjrIwA05GatO1k3QCdmWkPBXT3iM0VcHBbxezzEdTXip724Ns0hLptBPJ4Ocd8uB70euotiobIKTeJ5Ohzitt2OcX1o2QUAAAAAyCgdvwsAzgCVXQAAAACAxHx4I92y8bsA4Aw03o0RAABcJroC7I/yEgAAgHXIsuXNf//910jo//vf/9xPAADgEqkyg/sJu6K8BAAAYB2ybMkA9S1FfKaIi8Mifo+HuK5G/LQX16Y5xGUziMfTIe7bhetx3rh+h0Pcttsxrg9jdgEAAAAAAOBiUNkFAAAAAACAi0FlFwAAAAAAAC4GlV0AAAAAAODCrWRyfyM39xP1U17V37YzH24fzmpyL/eTffecD8ed03Dufr8uVHYBAAAAAACcxFz+jBbu5300Fc5loLILAAAAAAAAF4PKLgAAAAAAgMRchjc3Mpzb/9+4JdTV0HRbjNe5n8i3+9yXWcetZ0JaTeT+pi9T9eNi1FV/G6o9W7pLor9NZTfHinBEHZHpzpjft2erfZ0JKrsAAAAAAABypv2+yGwt67ValmORUTdTEaQrsfrTgVrFrrN8fJORrnHymHU+x7J066zXSxnLSLp6LK3Ok3ysZzJQ60Xjpfrbq/TUz7ryqTsSGS/L951REo4xHcnXc7xvtc7C7dvZel9ngsouAAAAAACAvMFMXuNao86T/B1Hshj9sa2mVhN5mepV0oqlztOHzHSNUyxe5/lJOu4jtZb8fIxEpu9e6yuP2ubXaCHR+K88xRvl972NaCy/k5qvnjzo4/v8TlqWNbqvFqGyCwAAAAAAIGfwkNQSGZ0fd+rfT/leiaz+vclCIrnt2r/FureR+0kxLa7WrsLMzY54cyPdqoHkl18m3MefafWY1vn5qD6dyvu2NVB3P7yKtpym99UiVHYBAAAAAADUspCvpftR7uRHaU2SlY7X1ZXRwnZ5XI69CrGc1fen+ncho246hpZZuiP1abOOua9jo7ILAAAAAACgFr81l23lVWo+lP40HkdLj4nljaVVwrYei9IxtHJL0q2yAcfc17FR2QUAAAAAAC6cGytr8SVJw6zEUr4WItHjz0yXv89cTZZtCWVbc9mufn4rL2upA8rIdxNcyb+3inZT3VsT7tu/XC3afCg3N/fS6Ljxx9zXkVHZBQBoMTe2QWCK5Oq/bcc0L98yHD1zTROz1GTDcefkzZADAOegMK1+ftmQxubT4fzvTaW5u6T35y65Ni3JW7jWOKXO07MMZCr93L0xH/bVpwN5TkZptxajX2mFz3xoxtqKxr9t66zOkzwP9IyNXqWQa8mVcJVJoz/p87ea/JKqIbvicDP7lrkMdcCD53Qg+SYcc19HRmUXAABbm8ufylJKXU2FAwBtkE6/X1g+/JnINuu9+tuQVu4sngluoL+Rv7SylQbXGsfVk9f1UsYykq5XId//HMsy0MUwGtzJWzyeVX8qg9laPrwaIH3/zgbemFd9kbE/HpceoF5PzzjtJ/vqvj3K0kzZGHeB7MlvM/thV/19qJ4CG+5yLN5YWn2ZDmayruxXWAynjt321X5UdgEAAADABbKzxQ3k4XdJVyXgKnXk6cOrjK+qkL/9bWZTjNcL1f+YCttknVd5evrIhtd79f6uFv0389lH0nKqo7dx28e7SD9zS43Kp2w47jxz22UrmK1d9tV2VHYBAC7EXIY3NzKc2//Hb89CXSGSLh16uZ/It/vcl1nHrWdCWk3kXr/xUj/m35zprhf+NpXdMCrCEXVE8dTUmX17ttoXALTMpnQ46YK2Z5pbJ72/XK6V1OBBenFXpbd/ufzEdp/XcZePqzq5ShPXgGsN4BCo7AIAXJRpvy8yc2+lbJvsTKFYF4b707SrzfLxTUa6ZO0x65jm7C6cuLm7Hu9EN0dfz0Q3Prcz69g3cLog3h1JOptNYN8ZJeEY05F8Pcf7Vuss3L6drfcFAC1SJx1O7JHmbrWfSzR/NxVHgwebu/QedG3XSLyhgxK6cun9wcVlIN8JafwacK0BNIjKLgDAZRnM0ibmquD814xd8Me+HY7HLpmlFUu62bYZNiEWr/PsN+92s/dM373WVx61za+RHrD0bzqQZ37f24jG8js+QHWk+vuJfH4nLcsa3RcANGYqfa/1jb8k9SZ10uFN6qSDTeznzM3fdW3PQFxdl67tMhVJ0/dATlGV74Qc6xpwrXEyemyv7PhcOC9UdgEALkr8BjvW+XGn/rUDgNqxSyK57dq/xbq3uYFEVeHGVpi52RHVFzU9+06p5ZcJNzuttArKTEk9ldD3ikp3PzLjKGQ0vS8AaEzasia/xC8haqXDm9RIBxvZzzlzFUDJrHGGq8QKvbipyndCjnUNuNYAdkRlFwDgCizka+l+lDv5saFEr7tD2NYIXRkt7Je35bi80Lz6/lT/ejPxxEt3pD5t1jH3BQCHsTkdrlI/HdxvP+fMVgDZ7ol+HPV1Yy+Zysue3d6PdQ241gB2RWUXAOAK+G9842meS8yH5suAHS9Et0hIu0WUsa3HonQ8kdzS5IQ2x9wXABzGhnR4g/rp4H77OV9uYPrIH3syXpai390UB6rfzrGuAdcawK6o7AIAtJgbK2vxJUnDrMRSvnRZ/vFnpuvFZ660a98K2ze+ttuD38rLWuqAMvJdJlby7y2/jqdbMqX7fCg3N/fS6Ljxx9wXADSsfjpcoUY62Mh+zlU8MH1m7MlYnK+GB6qv7VjXgGsNYEdUdgEAWq3z9CwDVWzv56ZBnw/19OQDec4NHLoY/UorfFRhWI+1lYxZ0rFTr0/7XqWQWsd263BcwXrkfQtYTX5J1ZBdcbiZfctchjrgwXM6qG4TjrkvAGhanXR4kzrpYBP7OVOFgelzbL6qh+7ao7brWNeAaw1gV+uG6KAaDO7qbYzP2WAtg5n7pb7ZQIUbjddL93vjNhzXLvsviwsTlvtbcNmwn/yx5H9fjqN1NN4/pg4e53uK46tKEtc73HOHcK7Xrk5cX7Pq+Fmux5H9e7IUrs1srcq662gwWEfeeqHbNrmnzTJYj9U9kwlPp2VeGOZv5rNoHd9a+j6Lt493kX7mlhrPTDYcd5657UL34i772lW8D+yPuGzGxng8QHnkkHY5nnxed6xzKov7bLoaWtL0U8uuX0yH8+eza5q7aT/nLj63xHJs8sBN5SAbL/qa1M93Qpq4Btd8rePjRfO2idu697tP35Pbft/I7Mc9qxVZVWP8Z6OJ70hN2Ob67Kqx0I9xsNdkU3zqG/YYD8a2DnFcZXFhH9o0E9xWJrEpcF+aG0gMqvdzepvutSQhHmS/6J/SuV67jXF95faPn+auPbK4d5tDXDZjUzzq9LuqPNL2vHmz06V33MPtwvU4b1y/w9kmbrfPExpIg49V2XXESrVtHOPepxvjWZrL+7S8afLptPW4sA87m4+6rr9LxkwAAKBVKI8AAGAsv9Q3OH+iputBZdc50oNODh6kJyuZ3N/IzdDrbz/XgzXeyH3aqV19pNZxY934P+sBl/X2et10mn3/76nV5D79ey78RHJcjjuW7OGFwz+G/Dl+u89jybGtJnJ/o8cC0uMD6Omah6rYbNWJh037OS9uNh99XeMxEwqz99S/j0KaiFOuHQAgkS+PKHXS9435hCvXpEuax8SyYXjjBznmOIYTW37z1knyMbuWDNXfhnP7/zi85HhK8rpsGFb1Oe2XfwPAudorT6j4vpEJVy+59DSUTidq5DEhVem82Z8ZvG4ho676eUP6vun4z45r4bU3HVSDwV29qvj0m+bb/uuB/uxJO0XbDz9uYpltopmOgZM2a7RNMv1+8DZMr/tayVgAm7oMaLt0GyiLCxNWzW6M+XWTePKOJXtsxaapdeKhzn7apix+DTduUXJd878b9e6jkKbi9FyunQlPLQgjftqLa9Mc4rIZVfGo03M/+6mTvm/MJ9zvabgu76sIw/6e7lezx5LNf7RQPqbXS/ZXyLeKeV02jHhfVXnfbvm3iTu1oB24HueN63c4ZXHbSJ5QIw1O0lgvPc2s4+crNfKYkM3pvJIbc7ZMneNv0jHu/cZCP8bBXpPy+NQPlnez5m5efZOasZUyD1H27+lNHH6IQg9h5oFRigW43HGVKD5Em5XFhQnL/S20JM9lIfGw8seS/T2XgNWJh5r7aZs4vkJsHOevs/osc5I17qOQBuP0XK5dVVyD+Gkzrk1ziMtmlMdjrjxSJ32vk0+Y8pafH+aF8sdcfqSY/QbCCeVj+S8Y2bJXSdi1zimOn93yb+7hduF6nDeu3+EE47apPCGfBpeEm90mvB+zzcY8JqBWOq/UqeyqefxNOsa9TzfGc7P6ls/oUX7GU8v3HmSQjKOkx6iI5PbhVqLFlyz1300f3Tv5UTUV/d0PKf2z6+P7mOzQ6vx8VJ9OJZmxOH9cRzMQ9fDpp6SwvLr+C3bMqWI/5e6teqTrqhEPjeynTVYTeZmqpHH82+sK0pMHlbLL9L3YrLbqPgo5Vpxe47UDgGuVK4/USt/rlHW6etzKqfRvssMzJPR+1f8GmYHCevKqyiMfT7ncMbqV3OEEZcNSx/PjTv37Kd91+pRUntNCvkwh0dk2/waAM9VYnpDXeZKP5PunG2pI5RddPRxMHZvymJBt0vlN9j3+lqKy68zoB1Td0V6hxFY+LPTdbApad/Kj90P9ax/E+ftUl5Yy41ZsY/Wti26uj6/utxsv3ZH6NFU8rrbZUOG3Qd142Hc/bWIzg7gvenrOptu3ur9eMuN+bO9YcXqN1w4ArlW4PFKdvtfKJ8wXgaWM1fehaT9dp/aXksZs+QUGAJDTQJ4QkI531ZXRwjbIWOpMo44W5DF7HX9LUdl1VlZiy3DZp9PURH9+y0rX7pq3hV2xH81FP6v5N4PbsG8RIxkvq1pPhY+rXWq+CS1RLx60/fbTHm5g+mgsy8L52oS4OFD9do4Vp9d37QDgWpWVR6rT9/r5REeePuLP0y8lx63wKrZI2IppCQAA16ypPMEzH5oGAdF46dZ73aGxSUN5zC7pfCPH3z5Udp2T1T95k2JXQdNUcfEmv16mEpm3mR35+RjJ4u1F3hZ7FopMk8q4m6THzBbhZhkqOa62KGvKufzaIhmoEQ+N7Kct9ExW6n+D56fc23HN3l+yGMmffQr4x4rTa7t2AHCtAuWRWul7nbJOgfpS8nestnM6ulW9+mKS6d/iuoLsWBv2mfs2Zlsb1GyFXHJONow9y4YAcKYOlydo+S6F+gXMrt8lcnlMSOPpfJPH3w4Hr+wqTF/pLxVTWSbb5QsI5ibzwihZsptlp242S2HfrkASPKaqvx1PaVdBU8BayELdi3euBGRqpNUHi33H0eo8ybPuJjn65T3YKj511e/gWfQwFK3vwujOYdr3Eid1H9nueDXViIdG9tMSpvurDKSsUWDn6Vn9NV+o39Kx4vRMrl1+2uDgl6N8+rfrOhfA5BFbpsk6jrPT7m+W2Y+Zavo4rTj8vHPbY8Z5ory0v2B5pE76XiefMPHphaHY7v7xF4qe/Dav4V+8/fyR0SKS8e/d3o9njkftX4+dkh1Hs0LonFQa9ku32o7P6Qh2SasPaZfjyecdbTunbXA9zgtlwwNoKk/IcxVPI68lwGryS+UB7pdNNuYxAU2m8/sef1utG6KDCgVnZhwIjuDvZpoJzfYSzwagZxXcNHOAmV2gOHNAzM4gkJ+lwM0+kwk7PCONVfW3wyjGpz6G8riw8ez93cVhfiaf7Aw77rwq17HieEyWZJuK4wpcm1DYm8T7zLPnXLVkjyu7/mA91ufkHUv+2NJzTu/f8nhIbdpP28THmiiZ2SPPnqeO4/r3UUgTcXou1y4OOy8+tiTO3bOTOcbC8xSYravOOi1mzlktddS9v1LFmcu2VjJTTeOOtZ8tbHNtUK0sLm36Q3mprmI8VpRHlDrp+6Z8ovD3QJxn1yn+vSztyn7u0it1XU1Zzi35a5fuy943obDzxxy8vrmAy44xFodVx6aw2q+BvOPAuB7nrez6xc9ucq5XWjbch4kvtYSYZ8H9ff88weXd8TWKFx2e+SzNCzLPYK68V9jfpnzdqU7nldwxlKpx/E2K93NIjYVedrD2RgoV3uILU4w8+7naps6XbndRgs9r5fbuQU9u6nYU3mLHuPjngrg4LOL3eMJxHS50JOmg/S34hSSbedVZp922uRe3L7A3UEA+ViVUC6/ZNtcG1crikvLSdi77nmwgvTqgbeJ++7S6bdp9LTSux3kLXz+X7lI23Ms2zwaO7xjX56RjdtnB3/J9Zt3A2HoGwbhp3o4DYc//6BkTBvIcbMPXk9+zmSw/QmMSAcCRBKerj7kBNPU4NCpZjPLtmP2++nXWOWOmm0Lc/P5+It/uc1++uX/SzcF0P+ybcejs7KJDldNYmXD1kusKUdk9It8twAu3SulxKmZ/pi29mwVoQ9eMTcePy0B5Cedir7Q6ViNtzYaR7fqjmeMYTmy3Wm+dbJpuu+0O59nuu5vyjmwYVvU52e69+rN8/PhrHQLXIxeGcbrrURtlQ6ARJ63sCg6eFg+M7R7u3oMuve0yEPZczLBDZnbCsE6vR8ENwGmpL6kf6+LMLnagzOxAxPGYfAk3ILKvzjrnRhdG+1M7BfJaLcvHNxnp9N2jC7bdkaQz5yzHIqowbAq4Jo5nZpy5yMwyY2eYMeF++jOOLmUsI+nWGctCF7r7U/2yNN02mkp/Q2FZ77P0OJXeq/psZo7UrlNRwbDX8eOsUF7COdg7rbYrbExb82HYIAIvG6YjeXuMZxb7KB2/Ztrvizpou16NvCNvU7oe0xU07w9uHR2uel4PmV5zPQJheI59PbZC2RBohnrAG6GDCgVX2izfNZnPN6ssrh9uxpkobZa/YbsC18xTb1O2HLHZb7xPEBeHRvweT924ts3UvWb6ddK5xtLC0wnGT0nXwUxXjJIuWNnm/jYeknVKws1uE96P2cbEdyBvq1J5nF53gjrdC2oef1OC1wY7KYtLykvbifeF4wvGfUmatHVavTFtDd2vufRdKXueMscTDCt3PGVh1zqnXFey3HORPZbdcT3qntNxrse2gtcvwJ6Dd2510vTG0v3zVDducRrHuD5Hatk1lb7XlNQs3ZEsBjNZ+1XWq4m8THVtvT/TTE/0y0qZvhffEBxC5L8ljxf9FsP9HQAOaW5n3FIFEPnYahqVy1Q2E0331kuUl19mnex0yeKml55KcNLQzFtTN4OcyptM3NdhugDYvK32i+DK4yxOg11p3+NHS1FewnlqLK3elLYGu3f15FXdf4U8s6K1oi/fVcx2G3ZdxTbZJl2/+3G0FpJcj3Zdj71RNgR2cqTKrrQJbWbJtc20CXPcDzst6JnhS1RC+5JrflqtKyY9//yu7FICAG2huwLo8Zoi3TzfTx9NYbOcGYuhzjpnK9tkP8928XJjXHl5h6kksKsE6a4Odt2ujBY2n1rW/aZuKpvsF/tpP93nMXtA7HX8aCnKSzhnDaTVLUhbrS1fQLQS1+MSUDYEdnfSMbuy3ECrFW8Ktxt4tSN2PNcvKUsbTeJxkgQbALLsGBMLU5gpe2v3mX+t6d6o+mMx1Fnn/FS/0bVvfd0YV4X8ozjmhTEfmooBU3g064XH/qjWkaePeD/pl4Gt8xTzJnpLjRw/zhPlJbRVU2l1Q2nrXoqtorayS7reOK5HohXXY3uUDYH9tKeyKx5o9Tk0GG9Hfj7q0tt2A6/2fo9V0lj2hnMl/8z0FGP5zTcEACekv0jqiovBLNDsX+v8FJME5l9ruub6pgBYZ50zVNbFzw7S6pg3l4FZhcwMUsVZoVL5rg4uX9iJ+jLwV+c5FUqOMzj4eC1NHj/OBuUltNDh0upc2uoG1p5m+qe7rtw71r7kKwJsmlzdKirReLreDK5Hu67HLigbAg1YN0QHFQqubEDCvM3rlQykVzrwnlUYzM+IB1f1BwAOD1ZoVf3tMMri8xoRF4dF/B5PMK5LBlMtKKR1gTSxzjotFowfxeYP+QHc1WdemlxYp3Du9vcknl28+3ET5xd+XpQZsNYf8Nccg7+/ePvsZ3mF4wwcRyjsgprH35Sya4PtlcXl5nKQtXm96ygvlcUjDq8s7gvp2y5pdY20tZDWBrYx+wnch9nP3b4LYfnPQS7vUPJhF86pkD675yL38JUd47a4HtmwC+d05OuxreD1c8f8/7d39+iJ82oDx29W8p4CUuTKCsgKYJpUaadzytBMlzLdNKQM3bSp0gRWEFaQK0WgOGclvPoy/pKNAAM2/H/PRZ6MY2QjG0mWrVvZ8tjD5U/yUXLHTwtZ50x58xaNcYzjU1vqZTtrC5wNjbfAL3Sh8NIKX2CPuJBLvwqFWTMab7F4P0OcqnA+lm3yokyz8qhYURd4Ggp10A2S/HbJ3/r48jfNl9e2kWiXF1/+8m798hV8Ies0VLzPPrb8j1/RaqzzLXfOFfIy99mTv7s6KZ9XOr3cuZE5t11dEidbPHZh51T+fYVzJvT8DNj/usTbwP7K8tKe47SXQsX7V0p/3ooPG1Jvhaxziary3p578Wvfsjp+Fcu07DrFv5cdu+xy116Iosx5nz9tkm3Z76cv7epy/bCdK/E2fTge9nXM47GteB/TinmefvnL9vUrn2FayDpnKP68TeY778wyt+/63D3VuXloxzg+Hf1DbWRvOpaDVlNyF2+b/NTjuYdfY1l8+oY0tN/5nVszeegM5ati/P1h+LdL/tZl83YpJ6uRP83FsakPeVmPTfmo20bvdyUx+wKde/tqV+dzDp+qvVAvjke7USccTivzdvkit72R3Ez3q7/a4BjHp0EB6gEAAIB9zeR9EskdMcYAAG1CPLVa0dnVQvpOo+4JNa/bF/lxyy+HJ/ClCabZkdtUNE2TTyp/9JL07/H79br5vMyGs7TBIdd/z6VfJex9H/JQto4nOGhImtl1Uu/Xdwk6QxPU2E5V/6AuBcqQv2Vp1pO/AICD0kH8o7tkhlJXh2WrNVWO5+qlfJ11ee0rALgArk5IXul2u37CUNcX9v/xOpuvC7a8dnAK11N6VgKZy6iXW56rrzalC4vOrpbRJ/twEsl0ZacAXty/yUh/Jy6Km21q8r4umOwsK+nZRpaiF/Xvf5UOPdCdEnqIg87H1Woq0XwkvVRLWBcivZEkUzIvxqJKnpKOlYQ+RiHvm4/UStOwtEP2Jb+OXcUV3t1H+dSfUf3aHy/U31+Ti4AC8vew+QsAOKTZ+0Si9GNdg1dTblcNCaF9dYkG8qqO9SUNmWs2jgeOQN+gHqo6Ir5GWC1k3J/IMNeZNBkOK68j9r528Bi8qvWm5mrCvqdkCP226V40lUG10EnVmNzF8+ZnLjhy7FyD1sW8eZELwqzzIIrUsjgfTF5l/57kkT+AbmadkiDANmBkRQDhyvfF++OfBSWTdvrzBe2LL818oPb8vy3y97D5m+bNa6yRP83FsakPeVmP8nzUZXFSP5Xx1UmX1r7aFedws3A82o3jdzjevDXXABXXGt42f+66oLZrB089k7sG07LrhKXbBsc493myq0WWH2/eMby9a/V1uzSDO4lUbrx96N5zHZtD5cvdtfTn32KePTLjnW/kqurm0M1V6VNJ8Xjp+1/ZNbq/7tXSibyXdZ1Xvm8u6wejlMxdZ6U07ZB9Wf6IfvYqm+Yed8jI38PmLwDgMHR53b+XXJFeifYVAFyInrqeUe37YSc7tD2vcB1xdaN+fsmPvjQ65bUD1yRbobOrdTZ0MFyMgdxFblid+dKrfBlcqZ+2gNFDGFQpoNbajR2258ZLr8dDq1dvpJYe12n2hfw9xb4AAPajO67UFUj5zZZStK8A4OyZ0CN66KIeqpi0+6s6vhL2xjrXDu1BZ1fruB5l2DuuXz+y1L3r/Wvpqf/sopmJJ5Xvkd+G7b1346VXxdfWU8GaOwAbuLsE+TvLte9LIPJ3x30BAJzIUmxf1y69VrSvAOAydOXxM27rJx1fmzu87HUE1w7tQWdXi/iGammL78vsQzb5MX+T388TFyjdBlafvz3L27zYqbEV84hrPIwvxTOLX0bJ++wdgOw+feVa1XYdz53lkH3p6qeudEz5dCntmVVxC+TvYfMXAFCz5Ye8yXZDGDXaVwBwqbry+G+s6oCsyuuIU147cE2ynVVNdFI1JnfxyvLTBKhLB60zQezUsjMOoFp+brkAfeq1jtFXkh/ZwH4ugHou8GA+QGAhr70BAYsK73NBDJP3xftdXGcdWDAXnDBkX7JB2pVCgEN/8ELyN2xfds3ftPK8htaG/Mmfx5o9f+xLH3/fOod26G224di0BXlZD18+6nK6qgxOy39n7Pc4X8Zn14G1+zm8uZ60+Z6uW+uxzbnRNhyPdtv9+GETb956zulsG99zHeHqg/Q5W6gzdrp2cOmk65mAdULSbYNjnPu1pX6Mnb0kVflpv1zxK1qN9Ql/xo2xzXmR+nIXOj6sbCER1hmj2cJEb8O9cu8pk39ftkK3hWE0jQtTzzqlBXGyvm9fsusUC73k78ksJPH6PuRv1i75mxa/F36tzB/3nQg8dVuLc7c+5GU9ivmo655iuWyYMj/7PfXVSbbOi1/n377aVTHvQ9l6OVtnH8OptnscHI922/34YZOyvC20+TNtend+RpG95nEvXzuvjmuHQl0U0NmlbUq3DeL9P6SO/qE2sjcdlE2rKbmLR34mLjIv9GOwwy8ZLz7l0BNrkL9u2RHwva7Wyvw50bl0bJy79SEv60E+ns7ueT+Th85QvsaLI88adqrtHgfHo90oyw5nt7zl/DyWY5z7xOwCGqg0vhRqQf62jImB0Em9HlRTJKYbJTqoqP1/vM6tJ/Db8uU2lUbIOsX4cbMHtfz2RfRi8/twon5zM/Kkl7vfY5vSzfLEXnB5kN7nwr6st2nfr9c1y+Pt5vZJC8kTAAgVVqZ8lJfXpqzLlpF7ld3LF7lVF66mpB711N/S9cf543gAuGR0dgENoy9Oe6O59Md/hMk86kf+toxuGA8n+slwc+dnZWbNmcgw13EzGQ5F4nUWYxHViE43wHXDuzeSZOacgHXsKuUN8cGrWm8aqd/cjDyfj+LrP902XR0sVU8GIZP39Tq2g1ZdHKwjaC/NrKh28gg/fSHxfme3uVpNJZqPpJfqQAvJEwAIZevXzWXKfKRWqiiv0/Yuu7uP8qnLP/Vrf7xQf3+9mLqf4wHg4qlCqBY6qRqTu3jkZ4K8OCzy93jI62re/DGxC/wx0CwbWyEfJ8HGMnDvy09Q4GTW8aZTjCuyfWyFsHQLcunqNKNILYvTNZ8p+/dkmy5uXi6+Q2adoDxJcO7Wh7ysB/l4Ot68ryxT4rIqoLxOl321ld0BZW6LcTzazXv8UAvyttmOcXx4sgsA0FxmeueJDDt6qKJb5hHdZe8Nd6/0xMxfYmaOXnzLXKVy/yv7DFT3171J28zevPxRa+fTGcirqov3itmwa7qDO4nW01rP5H3Sl+s7lRfzbzHPdpnPtGEo7s1V6VNfQXkCAKEqy5S5rB9KVQrldVm5c8qyu+04HgDAMEYAQIOZIQ966KIeqpjECKnq+ErYBr0dAujiaq1jiKhXb6SWNtVA7iK11/YDqIuHG7kaXKmf9oJi9j7RVxNqrd20M08AXBLKqWbheABoGzq7AAAN15XHTxcfJNXxtbnDqy/XPfVu85SXi6tl0si+XnftMTqw3rX6oF8/stR30/vX0lP/2UUzE68rfzd+G23NEwAtY54G2sA9MaTL6zTKqQPgeAC4IHR2AQBapCuP/8aquZ31ZcYrJuwdaDfMzwyFjIcEpqRnmerqp6Z0TPh0D5pnVsRt7ZGuGRoyf5PfzxMXiN4Grp+/PcvbvHghspWQPAGAUCVlii2Ls+VVZXmddsqyu+04HgBQX0QwnVSNyV088jNBXhwW+Xs85HU1b/54AsB7A+ym1zHvyQa/NcHZM+kUg+hm01U8284GglcC1glJ1y/+bLJa76b7bJXB59VPE6A+F3Q4v18heRLzHhvshLysB/l4OmV5XyhTXEDzpEzxlNf5oOe58jGknNpcxtr3nGtAdI5Hu5UdP+yPvG22Yxyf2lLnZKoX+ZkgLw6L/D0e8rpaWf7YhrP9m315Gs1RZBvx7uXprymm41kpu056O5Zp6G/Z2aVtSrfM5osVK7vNsM4uLSRPtPjv2B95WQ/y8XSq8j5fpmQ7NGx5HU3jThbPOp4ytY6yO/l7cbbZtos/tw/Ho/nifEL9tslbXxvplHbZH/29Sn9/m/aZ8o5x7nf0D7WRvekAhVpNyV088jNBXhwW+Xs85HW13fJnJg+doXyNF8z0dECcu/UhL+tBPp7OQfNeD4kbfsl48SkU6WE4Hu1GWXY42+Tt7KEjw6+xLD4fy2eybrT2tYePce4TswsAAADAyZXGi8JJcDwAtBmdXQAAAABOSj9Z0RvNpT/+I0zsd3ocD5wzfX7rJ4vM6/ZFftzytOXLbbKOet3mZ+8xkzOk0uk8SH4ahmwaxQmAzH48vNhJHFLrmOVqv+zq+qktPQu5/X+c3np/li9y2xnKRP06H/XU3+x+ZNOwqj+TnUxCL8vnT3qtNqGzCwDQYgN5Xa0YwggALTd4NbGEKc8bguOBc6U7coaTSKbq/Nbn+OL+TUa6pyhFdwr1RiLjhV1ntRiLjHrZDqbhRIess39fLWTcn8gw1TGUT8MmUewQk8lI3u4XLp3yIcOT4VDUTtv10vvTfZTP1VQitU5/rNN59XZQ689d+Zkc3WH2fufW0enOR9Jr6WyqdHYBAAAAAIDztnyR54lINE06hLqPnzLVPUUxtc5v81Tjv6Tjqfso/8Z9mY/+2s6qxbfMJZK7da9SVx4/V7Jax/yayV+VhkRP6zS6j0/qHRN5znUuqZXkKaRTOZrKa7LT2f3ZxH1u/2f6nX3irD+WP+vPNZA7nTdfP618uovOLgAAAAAAcNaWH28yl75c99wCp3fdd78ppiOrL/e/sh1Q3V/3aulE3nXvUu/a/D7s6OGF9u8Zyx/REe+ipDdMKRmN0L+W3O54ZdNS+3N1o35+yU9IL1TlZ5rL98It0G6uWhqkv4jOLgAAAAAAcAGqJ12wEzPMZdRLxa3Sr95ILXXM0EE9dFEPL0zWOf5ov1xHFTLo7AIAAAAAABeg+mko+8RUP4ltlXuthxLGQxfN8qTj67gdXsWn1LZinvg6X3R2AQAAAACAs+YdtqcsvlNdPmaI4lzePnI9Ymb2xeKMilZXHv+N1fuc7pXoLrOJGfMYs7MddnbsDfvK9dDZJ9Cqn1JbK/lMNo09O8wajM4uAAAAAABw3rqP8hTpJ7BSnVazBxmmZ2N062QDt8/kQa8UB5z3dHxl44EN5I951Os5tZ2/Mpr3ZZxEf99KZn/U9nsmiP4f78yLBb7P5ALxp4Ponxs6uwAAAAAAwNkbvK5kGqVicg1FxrpjKkWvsxhLKm7XUCbRVFbxGMbBa+7vHemNVDqLz9Tsi5/ZdYZfmb9vqx/dyNs6rYlE03Swe9u5Nh/11N8fvDM0Fj6T3eHkM52hzkoPMq2BzjCtpuQuHvmZIC8Oi/w9HvK6GvnTXByb+pCX9SAfT4e8bxaOR7tx/A7nfPJ2Jg+doXyNF8WZHFvsGMeHJ7sAAAAAAABwNujsAgAAAAAAwNmofRgjAAA4Twyz2B/tJQAAAOuQbcvOf//731pS/89//uN+AwAA50i1Gdxv2BXtJQAAAOuQbUsC1DcU+ZkgLw6L/D0e8roa+dNcHJv6kJf1IB9Ph7xvFo5Hu3H8Doe8bbZjHB9idgEAAAAAAOBs0NkFAAAAAACAs0FnFwAAAAAAAM4GnV0AAAAAAODMLeXltmPiRflety9Ltx7OAZ1dAAAAAADgMvTHslitTHD0+LUY92U+6snDzK2D1qOzCwAAAAAAXKzu4z8Z90Umzy/C813ngc4uAAAAAACAnOXLbflQx+WL3KplD7OZPKTWMU+HzR5S77uV/AjJ0nTN+4rrJ9uK/1mxXxVmD8l7zOv2fDv36OwCAAAAAAAXbCHfc/erozuUeiOR8cINd1yMRUa9QsfSZPgud2445DTS/+5I5/naDZVcyLg/l9HvpFNJdziVpju4k0jU+n+z4ymXH29qaSR3g/D9ytPbHX6lh3CqfZOR9M507CadXQAAAAAA4GItX55lov4fPT1K1y6Q36O59Mf/5NEsULqP8s/E9vor6e6h/viPDNzvg7vI/H+djvr5674vMv+Whf6nSvdZbcif7m95WQ7kjxlP+Z7axlI+3uYq0TsZbLFfGW67yX5pbt8y2zofdHYBAAAAAIDLMB9JLz2UT716o7lE05W8xr1Wi2+ZS1/ufyVdQ1r3171aOpH3VO/QzVV2HVFrXPfcr3mV6c7le+HZxvJDbF+X2rkt9iuj+yifq/jzJbNS6s99rujsAgAAAAAAlyEzG+NUzLNYatmfuKNLWf58qZ9zGfWynWKd3kgtPbDuL7EPXNmeq9lftU23f/vsVxKvqyejeSRT9fn1LJTnis4uAAAAAABwgQbyuhhLXz/tlYpd1b26UT/7SVys3Gv9BFhdzBNbsfTwwpm862GP97/M8MOd92v2IEMzfHLh1n1dD708V3R2AQAAAACAy+RiXslkuJ7tUHrXoocVvn3kgr6XzZYYqiRd+8RWMvxxPSzx4V39TA1b3Gu/8sMfXSywM0VnFwCgwZKYAr5X6DTLAABcqvXQpT1nXDPp3CYzym20fJFbtd1tNqtnmaujbt96X3Hxuo9PZjjjZPhgg7V3H+VJLbBB4/UCbSYP+vGo6CkJDr8tX7ou6HwmXbfeZGIe65J1H9Wu++U6ydKzPC5ffssZh+yiswsA0AKZ2Ar2pWMMzEe9rRrRAABclHgGtkhfNT/v/jTKUczk7zlfeaPhBvI6Vd8TmcjQdZQOXnV7U1LxsYYyiaay2nMMYyHd3khEDy/MpRvP7BgPYYzttF/dR/nUn28ydO/pSO/tXhbmM3/JT6PLht101AXDyv2+F51ZWk3JXTzyM0FeHBb5ezzkdTV//ugnu3oykrEsPtNTJWtVf0OdOHfrQ17Wg3w8HfK+WTYdD/2kVG90I9PFtTy7C+rPHR9J0U9LDb+2qHP1k11qmzfpGe4qzeRBXbR/7bGPsa339UT4Ph0Oedtsxzg+PNkFADgrumGvK9D4lRkOsR5SoRvUyTrm6TAT6yBeVox5UJpuWYyE3PCNyv2qsB5+Er8YlgEACOKelIruZBAPfXr7CK5DMvWPqnt+3PK0beu20vVNnTmUifpVP7Xd6bihZErINkL2FcBlobMLANBSC/nOjXbQDWJ749oNd7TPeBcaxpPhu9zpv6uXfaJbNY6fr91QyYWM+3MZ/U46lXQjujTdwZ1EuRgI2vLjTS2N5G4Qvl956zvTbl/Nvkl2tiAAALxmOrC17uuyj1WZIVHzkeSqKy9T/0wimbr6Z3H/JiOdWMq2dVvl+nqI1WpqYibZ2eLsTHEh2wjZVwAXSBUItdBJ1ZjcxSM/E+TFYZG/x0NeV/Pnz2I17qvl/bH6LWsx7pv1I9W6dQtWffVv1Uh2Cyy7XrQyq/nWmUbZdJSN71HsOv2VXpxZ33D7rRMN2S8f9770fmkb33cA/mODXZCX9SAfT4e8b5aq4zGN9N/S9cV0Fen18xVLXkn9Y9KL6+OQui2dTlBdaPdvvc6220jJ7GuD8X06HPK22Y5xfHiyCwDQfPOR9FJDGPSrN5rr9noSB2TxLfPClMqSTN2cupN9c5WP4JFM9VxQme5cvheebSw/RM/kbO6mb7FfGeYud/z5klkp9ecGAKCSC0zfH/8xT0hZAzHxrifv6yGCPvbJ5GK92Lvuu9+Ubeu2XerCgPcE7SuAi0RnFwCg+TKzMdphDnrZn6QFL8ufL/VzLsnMNO7VG6mlB9b9JfeqXT1xrfXZX7VNt3/77FcSg6Qno7kdorEY04AHAFSznUBx/Kuk7hma4X0Ted4wjF7kRgr3hVK2rdt2qQvD31O9rwAuE51dAICWGcjrYix9/bRXKnZV9+pG/ewncT1yr7CZoLZg7jjHuvLL9nbJTP33ru+mu2mid96v2YO5KOmb2CV6XRu/BACAai4wfeZGUfzScSklIFD9l/xUrLBt3bZLXRj+nup9BXCZ6OwCALRP91H+6db6ZLie7VB616pJPJe3j1yLt2y2xFAl6do7zsnQifWwigcdEDg17GKv/coP31jKhx4fCQBAmTgw/dOjuemS5W7OVASqt/WZHaaftkjPCrNt3bZLXRjwnqB9BXCR6OwCALRS9/HJDGecDN305PG06qPfqUbzTB7041HRkzzuOsTBl+7yRX6b6dxT6br1JhPzWJes+6h23S/XyE/P8rh8+S2E7AIAVJnpx4vdbMA+6/qzLGhkXJ8NU51QM/u08dq2ddsudWHIe0L2FcBForOrrfQdjR2mnjfxX26T6fRrt2G/Dr59HMQ6btAO51za1sd/+SK3arvbbFZPUV025fU2OFfbYCCvU9XClYkM3bEavOqYVnpWcnfOdoYyiaay2nMMYyHdnpkHvZCumdZdiYcwxnbaL9WA/9SfbzJ07+lI7+1eFuYzM2QDqNSy9sgu+5Ov76i3YHgD0+fFgeqfU51IWbremkapeFlDVe3lYkZuW7dtXn8gf9Q2bJwxeyMrZBsh+wo0ka/cNsvMud4xZTxl++46Kz3guQb6YGg1JXfxNuWnPunf7w4Qg2ZPh9gvzq3D2pi/usNJXdjfRJFMJl/q+v6z/EmUDfT5Mfway+LT91i9R7zt9Ix7lWbyoFo4X+OFfO66k87W+xqAc7ka+dNcHJv6kJf12JSPm9ojhyjjj6u++m5bnMPNwvFoN47f4bQyb7e+9mmvYxwfnuxqJR38uPzR5NNp6n5hH3Y2H3Vc/5TETQAAoFFojwAAWshMfpTEg8V+6OxqIx10MrqTgSzl5baTfUxfP7bfsY88xvTdy/jRx/Tv4t6/fjxSvc+8PI9J6kfl13/Ppb+23i/H7Ut29/zpo6ncbD76uMZxEzbO3pPIn1c/bnla0LmVUrq+GfI4NAFZ04+/ayHbCNlXAEAL5NsjSi31kWvXJK+knoll0ygG3Tb78fBi22+pdbLtI/3Ulm4/2f/H6W2q77JpWNWfKbwdCABno7Is31D+poRcXwTVCa7MNb+bYHNuSG56eWXZXkwXFp1dLaSDTkbmdmV6qnvLzg6mviLrKUmWohfl48ek6YaSftRfP0K4Wk0lyk3nr79MNjyNW8cOnC98oZP9cgavZv1zfwTzrMWz+bjjauIRVczek6YL5uEkkqk5r1ayuH+TkU4sJfTcilWur+Mb6fNXrdfXsZRWr+ZCJ2QbIfsKAGiHfHuklvpIdzCpi5Bo6v6+Wsi4n8QLtKtk07BJFDvEZDKSt3tdT+n1ykMDTIZDUTtt1wuo7/L05w6pYze1AwHgbASU5Vpp+euEXF8E1wmOjj23MnFZ+/Y9JcPst033oqkMqoVOqsbkLl55fk5XkfRX6uR2/4zUesm/1fdjFUVqWX+8MosW41U/9/f139TPcT/9byuzjnm/rFRjyvwtthj31XYjtTex3H6VyG4/DOfWYVXlrzleheOslqkaopI7b/KrbX1updMJOhft/q3X2XYbKbucq5twLlcjf5qLY1Mf8rIe5fmYa4+ElPEhdYVpb6Xrwzxf/Zirk5RivWpl6xx/XVtZ3ynhnynOn4B2oAfncLNwPNqN43c43rzdqSzPlb8hdYY3nQ3ltpa7ttc21w/FdNvgGOc+T3a1zfJHvtJT2g/uJFrHUdIxKvpyfXct/fm3mGe7zLjfG7mqil16c1UenNWNG75fb9Dq/rpXSyeynrE4v19ov6VvNp949p7kaUIfG+erON68d62qhljouRXbdn0t4D1B+woAaIdce6S2+qin41ZOZNgpmSFYb1f9L/OEu6ozX1V7vhBAvn8tIeFYsmmp/bm6UT8DZ2Kt/ExzWQ8A0KragQBwTjaV5U5l+RtSZ2xTJ2zjUOmeKTq7WkY32tQ3K9UosZ0PZtiiOflv5GpwpX7aL5p+lF99G9Rau7HDIlNT+cav3kgtTRT3C21nLxDs8Ib0sTdDydX59ZwbBlFU3ckaem7Ftl1fC3/Phg5hAEAr+NsjNdRHZuigHu6ih7ck6xx/tF+uowoAEG6vstyWv7tck+A06OxqlaXYNly2xWbuTn79yFL3Mpu7hT2xi2YmXle+Z3obthfbjRteFV82Hpd/v9BmLjB9fyyLwnG3FcTmQPXVd5/Dzq3Etutr4e8JvFMOAGiwsvZIXfVRVx4/4+XJxdJxO7z2nKXLPJEAAJds17Lclr+7XJPgNOjsapPlh7xJcaigeWRy/ia/nycuEL0NXD9/e5a3+Z6NIvOoZzxMMsXMYuFmfijZL7RYHJj+yRcY0U2MUBGo3jtMQll8p5rYIedW2rbrawHvCdpXAEDzedojB6mPDHWx9G+s3ud09VP16oIpM6beM2v2Fr5yPXT2aYLAJ5FLPpNNY8+2IQCcjVxZ7lSWvyF1xgHqBONQ6Z6rVU10Ur7kTEA197f8yxdErWp980oFcNsUQFMLSs8EgvP8LffSceC22b99xOml6aB3/sBzLlCdeq1j1cWfKbc/2TxzgUlzAfjy+Wo/czpQXjYwXvl+FeXTDuHLi/W+lwTFL92Ozpfc59XsZ1Qvz9/OnS9/bX5sH7wxrXDeeM7Jwjr5dHOBhTeu7/5dCPxY+R7POiXfn3358jpmg1rav5uXL2/zZdWu6zRUvM9NZs6V3Hlhzx/70ueeb51DO/Q223Bs2qIsL9PnUf5Fe6koTietrD1i92XP+si8J/33uNxOluX/7XtP2bHILnfbLqSVPhdK6ruqz+Tq1KReCGsH5vnyfp1W7vPGStPUn8tTT9l9Vy/P35DlPx5+m47tse2yP/nvedM+07aqjh9tw/3EnzfDUy5ny+6Q8lcvyq3jub7YqU4IWCck3TbwHp+a1ZZ62c7aE8Fz0VyocK3S9T0KJ4fHNumtuRPaX1bskN4OivmpGxHlJ7Hdr9Tfq/J3nWfhjZzywrZivzz56Et7k3ibWXGjKr0vibLt6OWF1eMOFT2LZQsLin0V8tflh++CIc3k8Yb8suvEr2g11udR8LmlxMcms6hifSX5e/I93fQeLWRf9xWnnxfv3zrP3Xcns5+F71OxUg1ap8HMZ1avVvGco+eolcemocry0pZBtJdCFfMxpJ0Uv3aoj5TC3z11YHad4t/LjkV2uevIUu0Sc+zdK5/PybZsPvvSzu9ztm4PbwemxWll0S47Ff/x8Nt0bJvPfTfO6KQoO37xd/fS24b7MPmlXnnVZXlY+asV0vGslF0noE4wxyu7nu97uyndNoj3/5BqS71sZ83BKWvseBpJlevnhBTY26S35tmv2E7p7aAsPy+RPy/iBlqkCqSAgsPQhVfx2NnCQi0P7OQ5N5xrx+PPa3+jY31e2n95L0hsWRWf/yHrNFsrz8UW5e8+WnlsGqosLyvbF7SXCsry8Ty4i62GFiz+vKdddirbfBdCyoJma/Z3Yxf+40fbsA7bfDcS53eONdVux2c7p43ZNfhjA8I9v2wIdA2UuZM/Y5HR74BzSMehKsxM6QKx6+XdR3lSpdvmwOtAjbxTCMdcUGUdh0adpv3i3PlJzICQddrKxEBwM92Y14P65sZm8qCWPczs/+N1bj1BdpYvt6k0QtYpxuqZPajlt7a8Mb+b6UndjDzp5e732KZ0szyxF1wepPe5sC/rbdr363XN8ni7uX3SQvIEDUB7Ca1Bu6xJ8nXAj1uetrEeqKyDraC68+HF1m2pdbJ114b6fPkit52hiSlrZwq3+5FNw6r+TOF15MnQNgRqceIA9V0xkxnMv4VZlLGr7uOTRBXB0mOz90mx0ogDsbvlgzvdqtqcFlAbMwVyceYWGzw5G4j4Jh+V2AWpTAtZp1V043aovrvTeJYbPWvORIa5RulkOBSJ11noK61epnGrG769kSQz5wSsY1cpNupjg1e13lSVGarJaN7z6ZvQYft0dd1oJoGYvK/XsYFRdXUZ15ZLM9uunZTET18MvN/Zba5WU1NO9lIdaCF5gqagvYT2oF3WDLojZziJVNXo6p77NxnpzE3ZWA8E1MHBddxkJG/3C5fOpzyWVF6l9blpL6m6TK3TH+t0XnMdpZb+3CF126Y68qRoGwK1aOhsjKoQTfXGp1+7lUFNTw/7GciruuCsvuM9k/dJcfYh3dBSTSpZt7UGd6YSzc5wARyXbjjqB4b64z+2IbdhqnjTARKyThuZz5X6jqqLfjNddL5jKZomjULVSPw37quG7F/b2FaN9d+jucrPf0njOr+O+mmfJnhar2Mu2FR5/7xX589u6dpprd3dW0U3cKNIlU5fP7acM3dr+3JfNQ1ufyx/1vk2EH3NmLw/JE/QfLSXzpNq16gL3c+y3oDGo112cqqMf1ZZGU2TDqHu46eY+zOxkHpgYx28TR0XyVPIOV1Vn2/iPrf/M/3OPnFWVUc2EG3DY2l7+Yu0hnZ2JXch8q98D3eYpqeHvekhHjKS32UXj/px4H52OvKkQnSVhuEqu9QTFcBRzR6kZxqOUypazTxqby+Yqy6O808HZDqLTGOv2DHU/XVv0jbXUN4hAzU0eHZN11zgxUMM3EXhncqL+Mke85myd3cLbq6yHYJpIXmCFqC9hIaiXXZSy483U8YXR6/13W9KSD2wqQ7epo7rX0tud7wq6/NNKj/TXDJ9O1V1ZNPQNgR20tDOLmBbXXl8UpeGJXd+dKWvar5MpWYbAvYx5vTdZhOCR1Xs+z3NAWxP37XTMaDM4/npK0HT2CxnYjGErNNGXf0ovx42ob6Vw22fCrENWzsE0MXVSn3XO72RKQOayV7gmbuu5mLiRq4GetiBvQAxTz8UYt2Ea2eeAGgP2mWnV31DJKge2KsOrlOuo+qC0DYEdnfizi59t1r9b48GO7A2eJVp5GsMLcW2qdI1vnvsuj+WRe5us41HoKpVAqLiiGyMiblpzJTdtfvK39Z0d1TTsRhC1mkfN2wi9f3Uje7NjW17V9veFXZxtQrf9+Y+YWLuwOshFfpOtbkj3hO7aGbideXvfm+jrXlyuWgvoYVol51Y9dNQ4fXArnVwnYpPqW3FPPHVPrQNgf2ctrMrF4QS2NfATgEkz7oEj+nYNpJ7VD4+9558AaVdcGgCouJI4jgMOgCstzHT/SXmlMzf1nSP65sGYMg6Z0E1uv+N1SfKyjfk7B1rd1fb3Nn0zDpkZphys0a5YK3ZuDCeWRG3tUe6ZtjF/E1+P09cIHpbNs3fnk28rr2OaUieoDloL6GlaJedhnfYnmIDnDs71QO5OvgAdWdlfb5JyWeyabSrLUTbENjf6Tq7dEFqv8HcQUZ9unqa6rnMU3W571H5QgDUHBtcM195AwewDhC7qCgL7XAQmQxTd1Jn8mDK0DgobMg6LeRpdNuhLtlGWibwrHqPvRPq4r6YciG3TiFvBvLH3K5+TqXzV0bzvoyTCLY72CNdcxFhy7P47qu5E68WzPOxbrYVlCdoBNpLaDPaZafhyvjJMFV/qrJEFyVrIfXAxjq4/rqzsj7fxPeZXDurVXUbbUOgHqua6KR8yU0ju9z3iqZupZSq9e2rvxovNq+rCoeN69hXkt7aNDJ/23f/9hGnF8LsU3+8qmGzjeTPi8VK1a0rfbujaLpSxbrLE71e7pgsxitVLa/PkTL2WNdzPJtsm3OtTLPOQXv8K4+v+Y7Xf2wX437ldn15rd8TLy++cvvoyqb1y19IbV6noeJ9zivmUTpf3PGOIvO9jtfxfexCOp6VsusUz5HCue45l3zfh03plimUQ678yu97dpv+8nHzfhXfE4v/jv2V5aU91v6X77BUrW9fyXlTtW5b20txOqX0vpWcz5rZvw31Vsg6l8if97TLTqXqu5D9HkarsS7zt6wHCn/3HIOt604nuzysPk+2Fal3+NPO73P23AqvI48h3se0Yp6nX7n8PfO24T7izxviVMe/zC77o8+b9LnetM+Ut83x2VVH/1Ab2ZsOVqjVlNzF2yY/9Xju4ddYFvmp+M8E59ZhnV/+zuShM5SvivgGh7F5u5zL1XbLn1Md78vCuVsf8rIem/JRt43e7/aLP3fu7atdcQ43y/kcj8usz/k+Hc42edv+8r59359jnPvMxggAAIAzogP6lw+JAwAA54/OrhbSPc+6J9S8bl/kxy0H6uEJLGpiNnTkNhW0wZyH6vzTS9K/x+/X6+bP1eTdlplOOf57Lv0qYe/7kIeydXwxKALSzK6Tev/yRW47QxNc106Z/qAutQAAJ6GDnadnrnR1WLZaU+V4rl6ifQUAlyGkvN94beDqluRVbP+XXjs4Zj8eXuy1V2qdbB2ln9rSdZj9f5zeen9KrkN89Vz1Zwq/hmsLOrtaRp94w0kk05WdAnhx/yYjfWYDtXGzHk3e1wW2ncVGFaDr2VyWohfZGeL8dGGrh5Do83S1mko0H0kvdaWhC9veSJIprxd6xqaet5MpTX8HQt43H6mVpmFph+xLfh27iqvUuo/yqT+j+rU/Xqi/v4YFUkUNBvKqjgdDGAHEdLDzzMyVg1dTblcNaaR9BZwa9TmOI6S833htoDuYhqquia81VgsZ9ycyTHUMVV47pE1G8navrx/0ep+lEwdMhkP/tU3gdUj4NVT1NVyrqA9RC51UjcldPG9+ugCe+ZiCTQ8+ty/OrcPy5m8u6LY+x6JILYvPM3MuZv+enIMu8GfunMysUxKM1gbktAFHvSrfF++PC4Sb+6Jk0k5/vqB98aXpAqmu35f/dxHncjXyp7k4NvUhL+tRno+6LM4FcPbw1UmX1r7aFedws3A82o3jdzjevA0p70OuDcy1RMU1i7suqL52cNv1pJOtf3xp+a9VCmkHfaa4zgy4hqvRMc59nuxqEd90+1rvWp26QJ0GdxKps+3tQ/f069gn6ry7u5b+/FvMs12Lb/XXG7mquvl2c1Ue4NG8vy/3v7JrdH/dq6UTKZ1ZvPJ9c1k/eKZk7uorpWmH7MvyR/Szbdk0uQMJAI2jy+v+veSK9Eq0rwDgMgSV9yHXBj11XaR+H3ayQ+TXtrl26F9Lbne8Ctc2Vzfq55f8ZB/M8tviGqryGq5l6OxqnQ0dDEAtBnIXuWGLprBW593gSv20BbweIqJKXO8jsiHssMi5jHqp8eD61RuppcfVpH0BAOxHX8io1vwODXXaVwBwGarL+6BrAzN0UA9d1MMLk3WOP9ov11GFDDq7Wiew9xbYk7nD8fUjS30nwNxx6IldNDPxuvJ3F7Zh70T0kzHjudfWU8WbuxUbuDsa+Ts5te8LAOBElmL7unbptaJ9BQCXobq8D7826MrjZ7w86fg6bodX8dpmKyHXUC1GZ1eLeB8zVBbfPH+C+pnzbf4mv58nLhC9DVw/f3uWt/meBat59DceJpnimSUxo+R99g5Mdp++crWYXcdzJydkX7r6qTYdsz9de3lmrQQAnM7yQ95kuyGMGu0rALgMQeX9TtcpXXn8N1bvcw5w7RB8beOzxTXUOaGzq026j/IU6R7j1JdMfemGzBaEQzCF9Fzmquy/caWoudOhFsy3jIdS4M7l+eh3qsKYyYM+maOn0llIvO9bvsjvkdrJ3Pt86/THf4pDL4P2ZSB/zO2a59R376+M5n0Z/+HRr8Oy0yyXzaS5Lz0zTXpKZT1zzt7bclNRp9syZjvuEff861CfDbg0Ow9hpH2FixRQv1Ze3O+ulroW2EVIeR9ybeD5bmTjgdV/7ZDZH7X9Xtm1jc8W11DnhM6ulhm8rmQapcYQD0XG+osE1M7G7cr09pu7AkoNgQv1uWxnvI0v+ocyiaay2jBusPA+O4du4X3R9Em+c+uUBZMP2Zfu42d2neGXSjI9PbCt1PR0vZ2OZ1phNJI+9qvPR3c+z+SvrvQPJpnmev1y0z7zhCCwr4ohjOaipHpoCe0rwGPwquqqdFunDoeua4FqIeX9xmsD9d3I/r0j9nIj+b5svnbYTj+6kbd1WhM9OWPq2mbzdUjhM5VcQ52Tjmps6ykf96YzTKspuYtHfibIi8O6yPzVFz57Vji74Fyu5s8ffed5KF8VnZX1qWlb5vyyjZC4/aCf7BpOdGfXa/EOnGf9puHcrQ95WQ/y8XTI+2bZ/Xgcs35NO9V2m4nv0+GcT96e53fmGMeHJ7sAXJytxrijIT5URe/uRKlXeviDHg7hH2ahGwdq/YrHOdbDGJcvcqsaEvop9sxdMfdESPI6wFN7gz82qOlzMpwSAIB92foxqcP8QwfL61dbB+aGagWkmV0n9f6yuhYADoDOLgAXRXdubDXGHY0wH41Eptmhf3EDOw42Wgwk+q4a1IGxEbp6Cump6JG7/fFCbedVBrpR7p64Mts1M+1MZJiK8VWPrpiJf+bfwuzRAIA62PaOHqXkrztjVfVrnu7E2pRmfh27iuvU8tW1ejkAHACdXQAuionRpBpfPDrfMtE0GeKnGsv/TFyCv+vGswm6+faR6YSavU9Ua3qPyRTMdMyR3K1b4m6K6XWMLwAAGmj5Is+6Chz/S8I1rOvOdNBtpap+TXPBrP1pxuu7eFypgNfdxydVk07kuaQDDcAmA3nl2mUndHYBABovSnqcDPs010TiGZ0HejaF+Uj+rlvnM9F9XdHTHh1TZkKGiQw71YGtAQBoFHOzpl+YsCF+Evo79Rjxpvp1rTJNt/7yR3SgiGyaXKgDOA06uwAA7RfHvXKt8+XLs2p6p5/K2kFXD7fQQxf1FNVJfBI6vgAAl8bGO03NYBe/eiO1FACah84uAED7uDvM1z33b+nKr3vT2yUzWcrHW11x2dzQRR2bJNXxVW+Hl30KTaI7YpcAAA7H1J0bFOpXq2uCS/aTeF25V1NnEwZwuejsAgA03tdPNtaHb0bN9VCKlw95mxeHWuyvK4//xmobNTOB9ItDSQAA2IkZhl+cuMXWndmOrJD61ShJMzNjY/dKvTN5ytpaysttp3JmZAA4BDq7AACNlwmouw6Sm3tyywWqn4xGMt8nMH3MN+X6x5v3jvfO9DaGOrhYKkAwAAD7cPWhr+5MB4/XgupXzZemzOTB1GFxmgP5Yx6Bfk7Wmf2V0TxwZmQAqBGdXQCAxoumT/Idxwmxc5p7g92aQPXKboHpbSN9Puqp7TzIbPDqpkx321Uvu+nPzIVCOBvsfh3nRL/URUKkp3ynpwsAUCM9+3SmDnN1Z76+Ca1ftUKanaFMomkmze7jZ3ad4Veu3szVtW4pcBwzeVDn5W36TmaNZg/qnL99Wc8Ovny53X9b5uZrNoSG2Y75DhZfh/psbdRZ6UHWNdAZq9WU3MUjPxPkxWGRv8dDXlerJX/Mk1Ii09Vr8a40dsa5Wx/ysh7k4+mQ981y0ONh6tR8ZxXqxPfpcPx5qzu7hvJV0albn5q25UYB6Jujcb+y7uwaTqJie3f5Ird60ohcJ3QTHePc58kuAMCZWMrL86SmwPQAAFy20vhdAJpJzyQ+1TE9hswertDZBQBoOftIeqfTk9HN9Ah36gAAOG/6yZFeWfwuoPU+XNuxOPRPDz3Mx2y1XHuzohdpPYxRP2Glh/mqZZkhu25IYvI6wFDewR87e/hzMpzyUtHZBQBouYG8rtz058S+AgBgbzo+l65XuYGEczQfjXTMC9t2tEHm1h1ednZv38yjevbswMkW9BNWq6noSLJ9HStPDzfUHWBxrFbTbl3IuD+RYSrGVz26cqWnRZ1/y8IuuFh0dgEAAAAAgMuQngW7+yj/zKQJf+1TVvHMo28fmU6o2ftEZJ/ZvhffMpdI7tZ9ZV15/FzJ6nOXSZUQgs4uAAAAAABwEaKkx8mwT3NN5N2NKTSze89H8nc9xnAmuq9rt9m+nd612YaemZt4WsdBZxcAAAAAAIAWx71yvV/Ll2eZZJ7K2oEZ2qiHLur48UncLjq+DofOLgAAAAAAcJnMEMO+XPfcv6Urv+5Nb5fMZCkfb3VN1uCGLq5jdtmOr3o7vOxTaBLdXfzkEnR2AQAAAACAi/D1kw0Jv/z5Uj9v5Co1RnE9tPHlQ97mfbnfOVhXma48/hurbdTMBNIvDtW8RHR2AQAAAACAizAf/RY3+aIeoyi/R54nt1yg+sloJPN9AtPHZg/S6dwm21WWH2+5J8r2pLcx1MHFUgH4LxidXQAAAAAA4CJE0yf57rm4Wb2RyHghn4/F3iwTqF7ZLTD9QP6YWR57ajsPMhu8ymIsMoq3q15205/i2XQAG+w+Tsu8hhP12VayoqfL6Kz0gNEa6MzVakru4pGfCfLisMjf4yGvq5E/zcWxqQ95WQ/y8XTI+2bheLQbx+9waslb86SUyHT1evHxr+p2jHOfJ7sAAAAAAADWlvLyPKkpMD1Ogc4uAAAAAAAAmclDRw8L7MnoZuod3oh2qH0YIwAAOE8Ms9gf7SUAAADrkG3Lzn//+99aUv/Pf/7jfgMAAOdItRncb9gV7SUAAADrkG3L2p7s0v73v//J//3f/7l/YV/kZ4K8OCzy93jI62rkT3NxbOpDXtaDfDwd8r5ZOB7txvE7HPK22Q59fIjZBQAAAAAAgLNBZxcAAAAAAADOBp1dAAAAAAAAOBt0dgEAAAAAAOBs0NkFAAAAAACAs0FnFwAAAAAAAM4GnV0AAAAAAAA4G3R2AQAAAAAA4GzQ2QUAAAAAAICzQWcXAAAAAAAAzgadXQAAAAAAADgTIv8PLB2wztbckXcAAAAASUVORK5CYII=;" parent="7" vertex="1">
                    <mxGeometry y="149.86842105263156" width="1067.592105263158" height="520.1315789473684" as="geometry"/>
                </mxCell>
                <mxCell id="6" value="&lt;font style=&quot;font-size: 24px;&quot;&gt;CRUD functionality&lt;/font&gt;" style="rounded=0;whiteSpace=wrap;html=1;" parent="7" vertex="1">
                    <mxGeometry x="287.6020644095789" y="50" width="494.7976878612717" height="88.1578947368421" as="geometry"/>
                </mxCell>
                <mxCell id="8" value="&lt;font style=&quot;font-size: 36px;&quot;&gt;Database Initilisation Script:&lt;br&gt;1) Drop Tables (Films, Directors)&lt;br&gt;2) Create Tables (Films, Directors)&lt;br&gt;3) Seed Data (Columns)&lt;/font&gt;" style="rounded=0;whiteSpace=wrap;html=1;" parent="1" vertex="1">
                    <mxGeometry x="-740" y="640" width="590" height="310" as="geometry"/>
                </mxCell>
                <mxCell id="9" value="&lt;font style=&quot;font-size: 24px;&quot;&gt;&lt;font color=&quot;#000000&quot;&gt;Dependencies to install:&lt;br&gt;1) Express&lt;br&gt;2) PG&lt;br&gt;&lt;br&gt;DevDependencies to install:&lt;br&gt;1) dotenv&lt;br&gt;2) Morgan&lt;br&gt;3) nodemon&lt;br&gt;&lt;br&gt;&lt;span style=&quot;white-space: pre;&quot;&gt;&#9;&lt;/span&gt;&lt;br&gt;&lt;/font&gt;&lt;br&gt;&lt;/font&gt;" style="rounded=0;whiteSpace=wrap;html=1;fillColor=#33FF99;" parent="1" vertex="1">
                    <mxGeometry x="20" y="300" width="290" height="570" as="geometry"/>
                </mxCell>
                <mxCell id="10" value="&lt;font style=&quot;font-size: 24px;&quot;&gt;&lt;font color=&quot;#000000&quot;&gt;&lt;b&gt;&lt;u&gt;MVP&lt;/u&gt;&lt;/b&gt;:&lt;br&gt;App that utilises a elephantSQL database with CRUD functionality.&lt;br&gt;Users should be able to use all CRUD features through the front end web page, and so DOM Manipulation must be used.&lt;br&gt;Stylings: Web page must be stylish and elegant, as befitting a wine app&lt;br&gt;&lt;/font&gt;&lt;br&gt;&lt;/font&gt;" style="rounded=0;whiteSpace=wrap;html=1;fillColor=#66FFFF;" parent="1" vertex="1">
                    <mxGeometry x="-740" y="300" width="590" height="310" as="geometry"/>
                </mxCell>
            </root>
        </mxGraphModel>
    </diagram>
</mxfile>